<svg width="25" height="24" viewBox="0 0 25 24" fill="none" xmlns="http://www.w3.org/2000/svg">
<path fill-rule="evenodd" clip-rule="evenodd" d="M5.5599 2.4707H8.9399C10.3499 2.4707 11.4799 3.6207 11.4799 5.0317V8.4407C11.4799 9.8607 10.3499 11.0007 8.9399 11.0007H5.5599C4.1599 11.0007 3.0199 9.8607 3.0199 8.4407V5.0317C3.0199 3.6207 4.1599 2.4707 5.5599 2.4707ZM5.5599 13.0007H8.9399C10.3499 13.0007 11.4799 14.1417 11.4799 15.5617V18.9707C11.4799 20.3807 10.3499 21.5307 8.9399 21.5307H5.5599C4.1599 21.5307 3.0199 20.3807 3.0199 18.9707V15.5617C3.0199 14.1417 4.1599 13.0007 5.5599 13.0007ZM19.4399 2.4707H16.0599C14.6499 2.4707 13.5199 3.6207 13.5199 5.0317V8.4407C13.5199 9.8607 14.6499 11.0007 16.0599 11.0007H19.4399C20.8399 11.0007 21.9799 9.8607 21.9799 8.4407V5.0317C21.9799 3.6207 20.8399 2.4707 19.4399 2.4707ZM16.0599 13.0007H19.4399C20.8399 13.0007 21.9799 14.1417 21.9799 15.5617V18.9707C21.9799 20.3807 20.8399 21.5307 19.4399 21.5307H16.0599C14.6499 21.5307 13.5199 20.3807 13.5199 18.9707V15.5617C13.5199 14.1417 14.6499 13.0007 16.0599 13.0007Z" fill="#293483"/>
</svg>
