<svg width="25" height="24" viewBox="0 0 25 24" fill="none" xmlns="http://www.w3.org/2000/svg">
<path fill-rule="evenodd" clip-rule="evenodd" d="M17.7289 16.9177C17.7289 17.3317 17.3929 17.6677 16.9789 17.6677C16.5649 17.6677 16.2289 17.3317 16.2289 16.9177V13.7607C16.2289 13.3467 16.5649 13.0107 16.9789 13.0107C17.3929 13.0107 17.7289 13.3467 17.7289 13.7607V16.9177ZM13.2499 16.9177C13.2499 17.3317 12.9139 17.6677 12.4999 17.6677C12.0859 17.6677 11.7499 17.3317 11.7499 16.9177V7.0197C11.7499 6.6047 12.0859 6.2697 12.4999 6.2697C12.9139 6.2697 13.2499 6.6047 13.2499 7.0197V16.9177ZM8.69594 16.9177C8.69594 17.3317 8.35994 17.6677 7.94594 17.6677C7.53194 17.6677 7.19594 17.3317 7.19594 16.9177V10.2237C7.19594 9.8097 7.53194 9.4737 7.94594 9.4737C8.35994 9.4737 8.69594 9.8097 8.69594 10.2237V16.9177ZM12.4999 1.7627C4.94094 1.7627 2.26294 4.4407 2.26294 11.9997C2.26294 19.5587 4.94094 22.2367 12.4999 22.2367C20.0579 22.2367 22.7369 19.5587 22.7369 11.9997C22.7369 4.4407 20.0579 1.7627 12.4999 1.7627Z" fill="#293483"/>
</svg>
