<svg width="25" height="24" viewBox="0 0 25 24" fill="none" xmlns="http://www.w3.org/2000/svg">
<path fill-rule="evenodd" clip-rule="evenodd" d="M7.98315 9.51074C8.39737 9.51074 8.73315 9.84653 8.73315 10.2607V16.9544C8.73315 17.3686 8.39737 17.7044 7.98315 17.7044C7.56894 17.7044 7.23315 17.3686 7.23315 16.9544V10.2607C7.23315 9.84653 7.56894 9.51074 7.98315 9.51074Z" fill="#19191B"/>
<path fill-rule="evenodd" clip-rule="evenodd" d="M12.5369 6.30762C12.9511 6.30762 13.2869 6.6434 13.2869 7.05762V16.9555C13.2869 17.3697 12.9511 17.7055 12.5369 17.7055C12.1227 17.7055 11.7869 17.3697 11.7869 16.9555V7.05762C11.7869 6.6434 12.1227 6.30762 12.5369 6.30762Z" fill="#19191B"/>
<path fill-rule="evenodd" clip-rule="evenodd" d="M17.0157 13.0479C17.43 13.0479 17.7657 13.3836 17.7657 13.7979V16.9547C17.7657 17.3689 17.43 17.7047 17.0157 17.7047C16.6015 17.7047 16.2657 17.3689 16.2657 16.9547V13.7979C16.2657 13.3836 16.6015 13.0479 17.0157 13.0479Z" fill="#19191B"/>
<path fill-rule="evenodd" clip-rule="evenodd" d="M5.46051 4.96027C4.16147 6.25931 3.55005 8.42719 3.55005 12.0366C3.55005 15.6461 4.16147 17.814 5.46051 19.113C6.75956 20.4121 8.92744 21.0235 12.5369 21.0235C16.1463 21.0235 18.3142 20.4121 19.6133 19.113C20.9123 17.814 21.5237 15.6461 21.5237 12.0366C21.5237 8.42719 20.9123 6.25931 19.6133 4.96027C18.3142 3.66122 16.1463 3.0498 12.5369 3.0498C8.92744 3.0498 6.75956 3.66122 5.46051 4.96027ZM4.39985 3.89961C6.1437 2.15576 8.84424 1.5498 12.5369 1.5498C16.2295 1.5498 18.9301 2.15576 20.6739 3.89961C22.4178 5.64346 23.0237 8.344 23.0237 12.0366C23.0237 15.7293 22.4178 18.4298 20.6739 20.1737C18.9301 21.9175 16.2295 22.5235 12.5369 22.5235C8.84424 22.5235 6.1437 21.9175 4.39985 20.1737C2.656 18.4298 2.05005 15.7293 2.05005 12.0366C2.05005 8.344 2.656 5.64346 4.39985 3.89961Z" fill="#19191B"/>
</svg>
