<svg width="25" height="24" viewBox="0 0 25 24" fill="none" xmlns="http://www.w3.org/2000/svg">
<path fill-rule="evenodd" clip-rule="evenodd" d="M2.75 12C2.75 4.802 5.302 2.25 12.5 2.25C19.699 2.25 22.25 4.802 22.25 12C22.25 19.198 19.699 21.75 12.5 21.75C5.302 21.75 2.75 19.198 2.75 12ZM12.0554 16.5794C12.0554 16.8318 12.2501 17 12.5062 17C12.7726 17 12.9673 16.8318 12.9673 16.5794V15.972C14.4839 15.8411 15.6622 15.0374 15.6622 13.6916C15.6622 12.4953 14.8015 11.7757 13.121 11.4953L12.9673 11.4673V9.08411C13.6334 9.18692 14.1047 9.56075 14.2892 10.1308C14.4019 10.4019 14.5966 10.5701 14.9142 10.5701C15.2728 10.5701 15.5085 10.3551 15.5085 10.0374C15.5085 9.94854 15.4932 9.87365 15.4758 9.7886C15.4731 9.77523 15.4703 9.76162 15.4675 9.74766C15.2114 8.80374 14.2174 8.14953 12.9673 8.02804V7.42056C12.9673 7.16822 12.7726 7 12.5062 7C12.2501 7 12.0554 7.16822 12.0554 7.42056V8.02804C10.5696 8.16822 9.51419 9.00935 9.51419 10.2243C9.51419 11.3551 10.3442 12.028 11.9632 12.3645L12.0554 12.3925V14.9159C11.2151 14.8131 10.7131 14.3832 10.5594 13.8131C10.4466 13.514 10.2315 13.3645 9.93431 13.3645C9.58592 13.3645 9.34 13.5888 9.34 13.9065C9.34 14.0093 9.36049 14.0935 9.39123 14.1963C9.66789 15.1869 10.7336 15.8411 12.0554 15.9626V16.5794ZM12.0554 9.08411V11.2523L11.9837 11.2336C11.1537 11.0093 10.7745 10.6729 10.7745 10.1589C10.7745 9.63551 11.2561 9.20561 12.0554 9.08411ZM12.9673 14.9159V12.5981L13.162 12.6449C14.074 12.8785 14.3916 13.2243 14.3916 13.7664C14.3916 14.3738 13.9203 14.8224 12.9673 14.9159Z" fill="#293483"/>
</svg>
