<svg width="25" height="24" viewBox="0 0 25 24" fill="none" xmlns="http://www.w3.org/2000/svg">
<path fill-rule="evenodd" clip-rule="evenodd" d="M4.74329 4.24329C6.41107 2.57552 8.9899 2 12.5 2C16.0101 2 18.5889 2.57552 20.2567 4.24329C21.9245 5.91107 22.5 8.4899 22.5 12C22.5 15.5101 21.9245 18.0889 20.2567 19.7567C18.5889 21.4245 16.0101 22 12.5 22C8.9899 22 6.41107 21.4245 4.74329 19.7567C3.07552 18.0889 2.5 15.5101 2.5 12C2.5 8.4899 3.07552 5.91107 4.74329 4.24329ZM5.80396 5.30396C4.58098 6.52693 4 8.5731 4 12C4 15.4269 4.58098 17.4731 5.80396 18.696C7.02693 19.919 9.0731 20.5 12.5 20.5C15.9269 20.5 17.9731 19.919 19.196 18.696C20.419 17.4731 21 15.4269 21 12C21 8.5731 20.419 6.52693 19.196 5.30396C17.9731 4.08098 15.9269 3.5 12.5 3.5C9.0731 3.5 7.02693 4.08098 5.80396 5.30396Z" fill="#19191B"/>
<path d="M12.5062 17C12.25 17 12.0553 16.8318 12.0553 16.5794V15.9626C10.7335 15.8411 9.66786 15.1869 9.3912 14.1963C9.36046 14.0935 9.33997 14.0093 9.33997 13.9065C9.33997 13.5888 9.58589 13.3645 9.93428 13.3645C10.2314 13.3645 10.4466 13.514 10.5593 13.8131C10.713 14.3832 11.2151 14.8131 12.0553 14.9159V12.3925L11.9631 12.3645C10.3441 12.028 9.51416 11.3551 9.51416 10.2243C9.51416 9.00935 10.5696 8.16822 12.0553 8.02804V7.42056C12.0553 7.16822 12.25 7 12.5062 7C12.7726 7 12.9673 7.16822 12.9673 7.42056V8.02804C14.2174 8.14953 15.2113 8.80374 15.4675 9.74766C15.488 9.85047 15.5085 9.93458 15.5085 10.0374C15.5085 10.3551 15.2728 10.5701 14.9142 10.5701C14.5965 10.5701 14.4018 10.4019 14.2891 10.1308C14.1047 9.56075 13.6333 9.18692 12.9673 9.08411V11.4673L13.121 11.4953C14.8015 11.7757 15.6622 12.4953 15.6622 13.6916C15.6622 15.0374 14.4838 15.8411 12.9673 15.972V16.5794C12.9673 16.8318 12.7726 17 12.5062 17ZM12.0553 11.2523V9.08411C11.2561 9.20561 10.7745 9.63551 10.7745 10.1589C10.7745 10.6729 11.1536 11.0093 11.9836 11.2336L12.0553 11.2523ZM12.9673 12.5981V14.9159C13.9202 14.8224 14.3916 14.3738 14.3916 13.7664C14.3916 13.2243 14.0739 12.8785 13.162 12.6449L12.9673 12.5981Z" fill="#19191B"/>
</svg>
