<svg width="25" height="24" viewBox="0 0 25 24" fill="none" xmlns="http://www.w3.org/2000/svg">
<path fill-rule="evenodd" clip-rule="evenodd" d="M20.8392 7.65899C21.5092 8.17799 21.9202 8.94899 21.9902 9.78799L22.0002 9.98899V18.098C22.0002 20.188 20.3492 21.888 18.2802 21.998H16.2902C15.3392 21.979 14.5702 21.239 14.5002 20.309L14.4902 20.168V17.309C14.4902 16.998 14.2592 16.739 13.9502 16.688L13.8602 16.678H11.1892C10.8702 16.688 10.6102 16.918 10.5702 17.218L10.5602 17.309V20.159C10.5602 20.218 10.5492 20.288 10.5402 20.338L10.5302 20.359L10.5192 20.428C10.4002 21.279 9.70024 21.928 8.83024 21.989L8.70024 21.998H6.91024C4.82024 21.998 3.11024 20.359 3.00024 18.298V9.98899C3.00924 9.13799 3.38024 8.34799 4.00024 7.79799L10.2302 2.78799C11.5002 1.77899 13.2802 1.73899 14.5892 2.66799L14.7502 2.78799L20.8392 7.65899ZM20.5994 18.258L20.6104 18.098V9.99799C20.5994 9.56899 20.4204 9.16799 20.1104 8.86899L19.9804 8.75799L13.8804 3.87799C13.1204 3.26799 12.0404 3.23899 11.2404 3.76799L11.0894 3.87799L5.00936 8.77899C4.66036 9.03799 4.45036 9.42799 4.40036 9.83799L4.38936 9.99799V18.098C4.38936 19.428 5.42936 20.518 6.75036 20.598H8.70036C8.92036 20.598 9.11036 20.449 9.13936 20.239L9.16036 20.059L9.17036 20.008V17.309C9.17036 16.239 9.99036 15.369 11.0404 15.288H13.8604C14.9294 15.288 15.7994 16.109 15.8804 17.159V20.168C15.8804 20.378 16.0304 20.559 16.2304 20.598H18.0894C19.4294 20.598 20.5194 19.569 20.5994 18.258Z" fill="#19191B"/>
</svg>
