<svg width="25" height="24" viewBox="0 0 25 24" fill="none" xmlns="http://www.w3.org/2000/svg">
<path d="M9.64398 20.7821V17.7152C9.64396 16.9381 10.2759 16.3067 11.0587 16.3018H13.9329C14.7191 16.3018 15.3565 16.9346 15.3565 17.7152V20.7732C15.3565 21.4473 15.9043 21.9951 16.5832 22H18.5441C19.4599 22.0023 20.339 21.6428 20.9874 21.0007C21.6358 20.3586 22.0002 19.4868 22.0002 18.5775V9.86585C22.0002 9.13139 21.6723 8.43471 21.1049 7.9635L14.4432 2.67427C13.2788 1.74912 11.6156 1.77901 10.4856 2.74538L3.96726 7.9635C3.37298 8.42082 3.0178 9.11956 3.00024 9.86585V18.5686C3.00024 20.4637 4.54763 22 6.45642 22H8.37253C8.69942 22.0023 9.01373 21.8751 9.24572 21.6464C9.4777 21.4178 9.60817 21.1067 9.60816 20.7821H9.64398Z" fill="#293483"/>
</svg>
