<svg width="25" height="24" viewBox="0 0 25 24" fill="none" xmlns="http://www.w3.org/2000/svg">
<path fill-rule="evenodd" clip-rule="evenodd" d="M12.5 2.25C5.302 2.25 2.75 4.802 2.75 12C2.75 19.198 5.302 21.75 12.5 21.75C19.699 21.75 22.25 19.198 22.25 12C22.25 4.802 19.699 2.25 12.5 2.25Z" fill="#293483"/>
<path d="M15.796 10.4527V8.46875" stroke="white" stroke-linecap="round" stroke-linejoin="round"/>
<path d="M15.796 16.9497V12.5859" stroke="white" stroke-linecap="round" stroke-linejoin="round"/>
<path d="M18.5002 14.1934C18.5002 14.1934 17.0589 16.9488 15.7969 16.9488C14.5282 16.9488 13.0869 14.1934 13.0869 14.1934" stroke="white" stroke-linecap="round" stroke-linejoin="round"/>
<path d="M9.21101 13.4453V15.4293" stroke="white" stroke-linecap="round" stroke-linejoin="round"/>
<path d="M9.21101 6.94922V11.3129" stroke="white" stroke-linecap="round" stroke-linejoin="round"/>
<path d="M11.9133 9.70469C11.9133 9.70469 10.472 6.94922 9.20997 6.94922C7.94133 6.94922 6.5 9.70469 6.5 9.70469" stroke="white" stroke-linecap="round" stroke-linejoin="round"/>
</svg>
