<svg width="25" height="24" viewBox="0 0 25 24" fill="none" xmlns="http://www.w3.org/2000/svg">
<path d="M12.5 21.5C5.37551 21.5 3 19.1245 3 12C3 4.87551 5.37551 2.5 12.5 2.5C19.6245 2.5 22 4.87551 22 12C22 17.6548 20.5036 20.3179 16.3246 21.1755" stroke="#19191B" stroke-width="1.5" stroke-linecap="round" stroke-linejoin="round"/>
<path d="M15.796 10.5035V8.51953" stroke="#19191B" stroke-linecap="round" stroke-linejoin="round"/>
<path d="M15.796 16.9995V12.6357" stroke="#19191B" stroke-linecap="round" stroke-linejoin="round"/>
<path d="M18.5002 14.2441C18.5002 14.2441 17.0589 16.9996 15.7969 16.9996C14.5282 16.9996 13.0869 14.2441 13.0869 14.2441" stroke="#19191B" stroke-linecap="round" stroke-linejoin="round"/>
<path d="M9.21101 13.4971V15.481" stroke="#19191B" stroke-linecap="round" stroke-linejoin="round"/>
<path d="M9.21125 7.00098V11.3647" stroke="#19191B" stroke-linecap="round" stroke-linejoin="round"/>
<path d="M11.9133 9.75547C11.9133 9.75547 10.472 7 9.20997 7C7.94133 7 6.5 9.75547 6.5 9.75547" stroke="#19191B" stroke-linecap="round" stroke-linejoin="round"/>
</svg>
