<svg width="40" height="40" viewBox="0 0 40 40" fill="none" xmlns="http://www.w3.org/2000/svg">
<rect width="40" height="40" rx="20" fill="#19191B"/>
<g clip-path="url(#clip0_3139_13211)">
<path d="M20.0455 0H19.9545C8.93391 0 0 8.93654 0 19.9603V20.0514C0 31.0752 8.93391 40.0118 19.9545 40.0118H20.0455C31.0661 40.0118 40 31.0752 40 20.0514V19.9603C40 8.93654 31.0661 0 20.0455 0Z" fill="black"/>
<path d="M30.1412 15.891V19.6689C29.4811 19.6044 28.6235 19.4544 27.6747 19.1067C26.4359 18.6525 25.5138 18.0315 24.9098 17.5507V25.1864L24.8944 25.1625C24.9042 25.3139 24.9098 25.4681 24.9098 25.6237C24.9098 29.4156 21.8253 32.5024 18.0331 32.5024C14.241 32.5024 11.1565 29.4156 11.1565 25.6237C11.1565 21.8318 14.241 18.7437 18.0331 18.7437C18.4045 18.7437 18.7689 18.7731 19.1248 18.8306V22.5538C18.7829 22.4318 18.4157 22.3659 18.0331 22.3659C16.2379 22.3659 14.7763 23.8266 14.7763 25.6237C14.7763 27.4208 16.2379 28.8815 18.0331 28.8815C19.8283 28.8815 21.29 27.4194 21.29 25.6237C21.29 25.5564 21.2886 25.4892 21.2844 25.4219V10.5837H25.0583C25.0723 10.9034 25.085 11.2258 25.099 11.5454C25.1242 12.1748 25.3484 12.779 25.7394 13.2738C26.1977 13.8556 26.8745 14.5312 27.8247 15.0709C28.7146 15.5756 29.5498 15.7915 30.1412 15.8938V15.891Z" fill="#FF004F"/>
<path d="M28.8434 12.8237V16.6016C28.1834 16.5371 27.3257 16.3871 26.377 16.0395C25.1382 15.5853 24.216 14.9643 23.612 14.4835V22.1191L23.5966 22.0953C23.6064 22.2467 23.612 22.4009 23.612 22.5565C23.612 26.3484 20.5276 29.4351 16.7354 29.4351C12.9432 29.4351 9.85876 26.3484 9.85876 22.5565C9.85876 18.7646 12.9432 15.6764 16.7354 15.6764C17.1068 15.6764 17.4711 15.7058 17.8271 15.7633V19.4865C17.4851 19.3645 17.118 19.2987 16.7354 19.2987C14.9402 19.2987 13.4786 20.7593 13.4786 22.5565C13.4786 24.3536 14.9402 25.8143 16.7354 25.8143C18.5306 25.8143 19.9922 24.3522 19.9922 22.5565C19.9922 22.4892 19.9908 22.4219 19.9866 22.3546V7.51367H23.7606C23.7746 7.83328 23.7872 8.1557 23.8012 8.47531C23.8265 9.10472 24.0507 9.7089 24.4417 10.2037C24.8999 10.7855 25.5768 11.4612 26.5269 12.0009C27.4168 12.5041 28.2521 12.7214 28.8434 12.8237Z" fill="#00F7EF"/>
<path d="M29.6689 14.4752V18.2531C29.0088 18.1886 28.1512 18.0386 27.2024 17.691C25.9636 17.2368 25.0415 16.6158 24.4375 16.1349V23.7706L24.4221 23.7468C24.4319 23.8982 24.4375 24.0524 24.4375 24.208C24.4375 27.9998 21.353 31.0866 17.5608 31.0866C13.7687 31.0866 10.6842 27.9998 10.6842 24.208C10.6842 20.4161 13.7687 17.3279 17.5608 17.3279C17.9322 17.3279 18.2966 17.3573 18.6525 17.4148V21.138C18.3106 21.016 17.9434 20.9502 17.5608 20.9502C15.7657 20.9502 14.304 22.4108 14.304 24.208C14.304 26.0051 15.7657 27.4658 17.5608 27.4658C19.356 27.4658 20.8177 26.0037 20.8177 24.208C20.8177 24.1407 20.8163 24.0734 20.8121 24.0061V9.16797H24.586C24.6 9.48758 24.6127 9.81 24.6267 10.1296C24.6519 10.759 24.8761 11.3632 25.2671 11.858C25.7254 12.4398 26.4022 13.1155 27.3524 13.6552C28.2423 14.1584 29.0775 14.3757 29.6689 14.478V14.4752Z" fill="white"/>
</g>
<defs>
<clipPath id="clip0_3139_13211">
<rect width="40" height="40" fill="white"/>
</clipPath>
</defs>
</svg>
