<svg width="40" height="40" viewBox="0 0 40 40" fill="none" xmlns="http://www.w3.org/2000/svg">
<rect width="40" height="40" rx="20" fill="#19191B"/>
<g clip-path="url(#clip0_3139_13209)">
<mask id="mask0_3139_13209" style="mask-type:alpha" maskUnits="userSpaceOnUse" x="0" y="0" width="40" height="40">
<circle cx="20" cy="20" r="20" fill="#D9D9D9"/>
</mask>
<g mask="url(#mask0_3139_13209)">
<path d="M8.59375 80.9375C32.3247 80.9375 51.5625 61.6997 51.5625 37.9688C51.5625 14.2378 32.3247 -5 8.59375 -5C-15.1372 -5 -34.375 14.2378 -34.375 37.9688C-34.375 61.6997 -15.1372 80.9375 8.59375 80.9375Z" fill="url(#paint0_radial_3139_13209)"/>
<path d="M8.59375 33.4375C34.2232 33.4375 55 12.6607 55 -12.9688C55 -38.5982 34.2232 -59.375 8.59375 -59.375C-17.0357 -59.375 -37.8125 -38.5982 -37.8125 -12.9688C-37.8125 12.6607 -17.0357 33.4375 8.59375 33.4375Z" fill="url(#paint1_radial_3139_13209)"/>
<path d="M4.33432 152.816C36.372 152.816 62.3437 126.844 62.3437 94.8063C62.3437 62.7686 36.372 36.7969 4.33432 36.7969C-27.7034 36.7969 -53.675 62.7686 -53.675 94.8063C-53.675 126.844 -27.7034 152.816 4.33432 152.816Z" fill="url(#paint2_radial_3139_13209)"/>
<path d="M8.59375 33.4375C34.2232 33.4375 55 12.6607 55 -12.9688C55 -38.5982 34.2232 -59.375 8.59375 -59.375C-17.0357 -59.375 -37.8125 -38.5982 -37.8125 -12.9688C-37.8125 12.6607 -17.0357 33.4375 8.59375 33.4375Z" fill="url(#paint3_radial_3139_13209)"/>
<path d="M8.59375 33.4375C34.2232 33.4375 55 12.6607 55 -12.9688C55 -38.5982 34.2232 -59.375 8.59375 -59.375C-17.0357 -59.375 -37.8125 -38.5982 -37.8125 -12.9688C-37.8125 12.6607 -17.0357 33.4375 8.59375 33.4375Z" fill="url(#paint4_radial_3139_13209)"/>
<path d="M4.33432 50.9406C36.372 50.9406 62.3437 24.9689 62.3437 -7.06875C62.3437 -39.1064 36.372 -65.0781 4.33432 -65.0781C-27.7034 -65.0781 -53.675 -39.1064 -53.675 -7.06875C-53.675 24.9689 -27.7034 50.9406 4.33432 50.9406Z" fill="url(#paint5_radial_3139_13209)"/>
</g>
</g>
<g clip-path="url(#clip1_3139_13209)">
<path d="M15.5555 20.0001C15.5555 19.1211 15.8162 18.2618 16.3045 17.5309C16.7929 16.8 17.487 16.2303 18.2991 15.894C19.1113 15.5576 20.0049 15.4695 20.867 15.641C21.7292 15.8125 22.5211 16.2358 23.1427 16.8574C23.7642 17.479 24.1875 18.2709 24.359 19.133C24.5305 19.9952 24.4425 20.8888 24.1061 21.7009C23.7697 22.513 23.2 23.2071 22.4692 23.6955C21.7383 24.1839 20.879 24.4445 20 24.4445C18.8212 24.4445 17.6908 23.9763 16.8573 23.1428C16.0238 22.3093 15.5555 21.1788 15.5555 20.0001ZM13.1526 20.0001C13.1526 21.3542 13.5542 22.6778 14.3064 23.8037C15.0587 24.9296 16.1279 25.8072 17.3789 26.3254C18.6299 26.8436 20.0065 26.9792 21.3346 26.7151C22.6627 26.451 23.8826 25.799 24.8401 24.8416C25.7977 23.8842 26.4498 22.6643 26.7141 21.3363C26.9783 20.0082 26.8429 18.6316 26.3248 17.3806C25.8067 16.1295 24.9293 15.0602 23.8035 14.3078C22.6777 13.5554 21.354 13.1537 20 13.1535C19.1008 13.1535 18.2105 13.3306 17.3799 13.6746C16.5492 14.0187 15.7944 14.523 15.1587 15.1588C14.5229 15.7945 14.0186 16.5493 13.6745 17.38C13.3305 18.2107 13.1534 19.101 13.1534 20.0001M25.5163 12.8822C25.5162 13.1986 25.6099 13.508 25.7857 13.7712C25.9614 14.0343 26.2112 14.2395 26.5035 14.3607C26.7958 14.4819 27.1175 14.5137 27.4279 14.4521C27.7383 14.3904 28.0235 14.2381 28.2473 14.0144C28.4711 13.7907 28.6236 13.5057 28.6855 13.1954C28.7473 12.885 28.7157 12.5633 28.5947 12.2709C28.4737 11.9785 28.2687 11.7285 28.0056 11.5526C27.7426 11.3767 27.4333 11.2828 27.1168 11.2827C26.6926 11.2829 26.2859 11.4515 25.9859 11.7514C25.6859 12.0513 25.5172 12.458 25.5168 12.8822M14.6143 30.8532C13.7688 30.8435 12.9312 30.6884 12.1383 30.3946C11.5591 30.1805 11.0352 29.8398 10.6047 29.3972C10.1614 28.9676 9.82056 28.4439 9.60728 27.8647C9.313 27.0718 9.15753 26.2342 9.14767 25.3886C9.0831 23.9831 9.06924 23.5609 9.06924 20.0003C9.06924 16.4398 9.0831 16.0186 9.14767 14.6121C9.15829 13.7666 9.31338 12.9292 9.60623 12.136C9.82029 11.5569 10.1611 11.0329 10.6036 10.6024C11.0334 10.159 11.5576 9.81805 12.1372 9.60505C12.9304 9.31092 13.7684 9.15571 14.6143 9.14623C16.0198 9.08165 16.442 9.06779 20 9.06779C23.5579 9.06779 23.9817 9.08165 25.3882 9.14623C26.2337 9.15684 27.0711 9.31193 27.8643 9.60479C28.4436 9.81845 28.9676 10.1593 29.3979 10.6022C29.8408 11.0324 30.1816 11.5564 30.3953 12.1358C30.6892 12.9287 30.8443 13.7663 30.8538 14.6118C30.9184 16.0184 30.9322 16.4396 30.9322 20.0001C30.9322 23.5606 30.9194 23.9818 30.8538 25.3883C30.8436 26.2338 30.6885 27.0713 30.3953 27.8644C30.1734 28.4394 29.8335 28.9616 29.3976 29.3973C28.9617 29.833 28.4394 30.1727 27.8643 30.3943C27.0714 30.6882 26.2338 30.8434 25.3882 30.8529C23.9827 30.9175 23.5605 30.9313 20 30.9313C16.4394 30.9313 16.0183 30.9185 14.6143 30.8529M14.503 6.74753C13.3969 6.76941 12.3026 6.97884 11.2666 7.36688C10.3768 7.70169 9.57077 8.22647 8.90453 8.90466C8.22565 9.57027 7.70069 10.3764 7.3665 11.2665C6.97855 12.3026 6.76921 13.397 6.74741 14.5031C6.68179 15.9248 6.66663 16.3792 6.66663 20.0001C6.66663 23.621 6.68179 24.0754 6.74741 25.4971C6.76932 26.6031 6.97874 27.6974 7.36676 28.7334C7.70094 29.6235 8.2258 30.4297 8.90453 31.0955C9.57099 31.7734 10.3769 32.2982 11.2664 32.6335C12.3024 33.0214 13.3967 33.2309 14.5027 33.2529C15.9252 33.3175 16.3788 33.3337 19.9997 33.3337C23.6206 33.3337 24.075 33.3185 25.4967 33.2529C26.6027 33.231 27.697 33.0216 28.733 32.6335C29.619 32.291 30.4235 31.7672 31.0952 31.0955C31.7668 30.4239 32.2907 29.6193 32.6332 28.7334C33.0217 27.6976 33.2311 26.6032 33.2525 25.4971C33.3171 24.0743 33.3309 23.621 33.3309 20.0001C33.3309 16.3792 33.3158 15.9248 33.2525 14.5031C33.2307 13.397 33.0212 12.3027 32.6332 11.2667C32.2979 10.3772 31.7731 9.57124 31.0954 8.90466C30.4299 8.22614 29.6242 7.70122 28.7346 7.36662C27.6986 6.97837 26.6041 6.76903 25.498 6.74753C24.0766 6.68296 23.6219 6.66675 20 6.66675C16.378 6.66675 15.9241 6.68191 14.5019 6.74753" fill="white"/>
<path d="M15.5555 20.0001C15.5555 19.1211 15.8162 18.2618 16.3045 17.5309C16.7929 16.8 17.487 16.2303 18.2991 15.894C19.1113 15.5576 20.0049 15.4695 20.867 15.641C21.7292 15.8125 22.5211 16.2358 23.1427 16.8574C23.7642 17.479 24.1875 18.2709 24.359 19.133C24.5305 19.9952 24.4425 20.8888 24.1061 21.7009C23.7697 22.513 23.2 23.2071 22.4692 23.6955C21.7383 24.1839 20.879 24.4445 20 24.4445C18.8212 24.4445 17.6908 23.9763 16.8573 23.1428C16.0238 22.3093 15.5555 21.1788 15.5555 20.0001ZM13.1526 20.0001C13.1526 21.3542 13.5542 22.6778 14.3064 23.8037C15.0587 24.9296 16.1279 25.8072 17.3789 26.3254C18.6299 26.8436 20.0065 26.9792 21.3346 26.7151C22.6627 26.451 23.8826 25.799 24.8401 24.8416C25.7977 23.8842 26.4498 22.6643 26.7141 21.3363C26.9783 20.0082 26.8429 18.6316 26.3248 17.3806C25.8067 16.1295 24.9293 15.0602 23.8035 14.3078C22.6777 13.5554 21.354 13.1537 20 13.1535C19.1008 13.1535 18.2105 13.3306 17.3799 13.6746C16.5492 14.0187 15.7944 14.523 15.1587 15.1588C14.5229 15.7945 14.0186 16.5493 13.6745 17.38C13.3305 18.2107 13.1534 19.101 13.1534 20.0001M25.5163 12.8822C25.5162 13.1986 25.6099 13.508 25.7857 13.7712C25.9614 14.0343 26.2112 14.2395 26.5035 14.3607C26.7958 14.4819 27.1175 14.5137 27.4279 14.4521C27.7383 14.3904 28.0235 14.2381 28.2473 14.0144C28.4711 13.7907 28.6236 13.5057 28.6855 13.1954C28.7473 12.885 28.7157 12.5633 28.5947 12.2709C28.4737 11.9785 28.2687 11.7285 28.0056 11.5526C27.7426 11.3767 27.4333 11.2828 27.1168 11.2827C26.6926 11.2829 26.2859 11.4515 25.9859 11.7514C25.6859 12.0513 25.5172 12.458 25.5168 12.8822M14.6143 30.8532C13.7688 30.8435 12.9312 30.6884 12.1383 30.3946C11.5591 30.1805 11.0352 29.8398 10.6047 29.3972C10.1614 28.9676 9.82056 28.4439 9.60728 27.8647C9.313 27.0718 9.15753 26.2342 9.14767 25.3886C9.0831 23.9831 9.06924 23.5609 9.06924 20.0003C9.06924 16.4398 9.0831 16.0186 9.14767 14.6121C9.15829 13.7666 9.31338 12.9292 9.60623 12.136C9.82029 11.5569 10.1611 11.0329 10.6036 10.6024C11.0334 10.159 11.5576 9.81805 12.1372 9.60505C12.9304 9.31092 13.7684 9.15571 14.6143 9.14623C16.0198 9.08165 16.442 9.06779 20 9.06779C23.5579 9.06779 23.9817 9.08165 25.3882 9.14623C26.2337 9.15684 27.0711 9.31193 27.8643 9.60479C28.4436 9.81845 28.9676 10.1593 29.3979 10.6022C29.8408 11.0324 30.1816 11.5564 30.3953 12.1358C30.6892 12.9287 30.8443 13.7663 30.8538 14.6118C30.9184 16.0184 30.9322 16.4396 30.9322 20.0001C30.9322 23.5606 30.9194 23.9818 30.8538 25.3883C30.8436 26.2338 30.6885 27.0713 30.3953 27.8644C30.1734 28.4394 29.8335 28.9616 29.3976 29.3973C28.9617 29.833 28.4394 30.1727 27.8643 30.3943C27.0714 30.6882 26.2338 30.8434 25.3882 30.8529C23.9827 30.9175 23.5605 30.9313 20 30.9313C16.4394 30.9313 16.0183 30.9185 14.6143 30.8529M14.503 6.74753C13.3969 6.76941 12.3026 6.97884 11.2666 7.36688C10.3768 7.70169 9.57077 8.22647 8.90453 8.90466C8.22565 9.57027 7.70069 10.3764 7.3665 11.2665C6.97855 12.3026 6.76921 13.397 6.74741 14.5031C6.68179 15.9248 6.66663 16.3792 6.66663 20.0001C6.66663 23.621 6.68179 24.0754 6.74741 25.4971C6.76932 26.6031 6.97874 27.6974 7.36676 28.7334C7.70094 29.6235 8.2258 30.4297 8.90453 31.0955C9.57099 31.7734 10.3769 32.2982 11.2664 32.6335C12.3024 33.0214 13.3967 33.2309 14.5027 33.2529C15.9252 33.3175 16.3788 33.3337 19.9997 33.3337C23.6206 33.3337 24.075 33.3185 25.4967 33.2529C26.6027 33.231 27.697 33.0216 28.733 32.6335C29.619 32.291 30.4235 31.7672 31.0952 31.0955C31.7668 30.4239 32.2907 29.6193 32.6332 28.7334C33.0217 27.6976 33.2311 26.6032 33.2525 25.4971C33.3171 24.0743 33.3309 23.621 33.3309 20.0001C33.3309 16.3792 33.3158 15.9248 33.2525 14.5031C33.2307 13.397 33.0212 12.3027 32.6332 11.2667C32.2979 10.3772 31.7731 9.57124 31.0954 8.90466C30.4299 8.22614 29.6242 7.70122 28.7346 7.36662C27.6986 6.97837 26.6041 6.76903 25.498 6.74753C24.0766 6.68296 23.6219 6.66675 20 6.66675C16.378 6.66675 15.9241 6.68191 14.5019 6.74753" fill="white"/>
</g>
<defs>
<radialGradient id="paint0_radial_3139_13209" cx="0" cy="0" r="1" gradientUnits="userSpaceOnUse" gradientTransform="translate(8.59375 37.9688) scale(42.9688)">
<stop stop-color="#FFD676"/>
<stop offset="0.25" stop-color="#F2A454"/>
<stop offset="0.38" stop-color="#F05C3C"/>
<stop offset="0.7" stop-color="#C22F86"/>
<stop offset="0.96" stop-color="#6666AD"/>
<stop offset="0.99" stop-color="#5C6CB2"/>
</radialGradient>
<radialGradient id="paint1_radial_3139_13209" cx="0" cy="0" r="1" gradientUnits="userSpaceOnUse" gradientTransform="translate(8.59375 -12.9688) scale(46.4062)">
<stop stop-color="#FFD676"/>
<stop offset="0.25" stop-color="#F2A454"/>
<stop offset="0.38" stop-color="#F05C3C"/>
<stop offset="0.7" stop-color="#C22F86"/>
<stop offset="0.96" stop-color="#6666AD"/>
<stop offset="0.99" stop-color="#5C6CB2"/>
</radialGradient>
<radialGradient id="paint2_radial_3139_13209" cx="0" cy="0" r="1" gradientUnits="userSpaceOnUse" gradientTransform="translate(4.33433 94.8063) scale(58.0094)">
<stop stop-color="#FFD676"/>
<stop offset="0.25" stop-color="#F2A454"/>
<stop offset="0.38" stop-color="#F05C3C"/>
<stop offset="0.7" stop-color="#C22F86"/>
<stop offset="0.96" stop-color="#6666AD"/>
<stop offset="0.99" stop-color="#5C6CB2"/>
</radialGradient>
<radialGradient id="paint3_radial_3139_13209" cx="0" cy="0" r="1" gradientUnits="userSpaceOnUse" gradientTransform="translate(8.59375 -12.9688) scale(46.4062)">
<stop stop-color="#FFD676"/>
<stop offset="0.25" stop-color="#F2A454"/>
<stop offset="0.38" stop-color="#F05C3C"/>
<stop offset="0.7" stop-color="#C22F86"/>
<stop offset="0.96" stop-color="#6666AD"/>
<stop offset="0.99" stop-color="#5C6CB2"/>
</radialGradient>
<radialGradient id="paint4_radial_3139_13209" cx="0" cy="0" r="1" gradientUnits="userSpaceOnUse" gradientTransform="translate(8.59375 -12.9688) scale(46.4062)">
<stop stop-color="#FFD676"/>
<stop offset="0.25" stop-color="#F2A454"/>
<stop offset="0.38" stop-color="#F05C3C"/>
<stop offset="0.7" stop-color="#C22F86"/>
<stop offset="0.96" stop-color="#6666AD"/>
<stop offset="0.99" stop-color="#5C6CB2"/>
</radialGradient>
<radialGradient id="paint5_radial_3139_13209" cx="0" cy="0" r="1" gradientUnits="userSpaceOnUse" gradientTransform="translate(4.33433 -7.06875) scale(58.0094)">
<stop stop-color="#FFD676"/>
<stop offset="0.25" stop-color="#F2A454"/>
<stop offset="0.38" stop-color="#F05C3C"/>
<stop offset="0.7" stop-color="#C22F86"/>
<stop offset="0.96" stop-color="#6666AD"/>
<stop offset="0.99" stop-color="#5C6CB2"/>
</radialGradient>
<clipPath id="clip0_3139_13209">
<rect width="40" height="40" fill="white"/>
</clipPath>
<clipPath id="clip1_3139_13209">
<rect width="26.6656" height="26.6667" fill="white" transform="translate(6.66663 6.66675)"/>
</clipPath>
</defs>
</svg>
