<svg width="40" height="40" viewBox="0 0 40 40" fill="none" xmlns="http://www.w3.org/2000/svg">
<rect width="40" height="40" rx="20" fill="white"/>
<g clip-path="url(#clip0_3477_11780)">
<path d="M39.75 20C39.75 30.9076 30.9076 39.75 20 39.75C9.09238 39.75 0.25 30.9076 0.25 20C0.25 9.09238 9.09238 0.25 20 0.25C30.9076 0.25 39.75 9.09238 39.75 20Z" fill="white" stroke="#E5E5E5" stroke-width="0.5"/>
<path d="M24.6009 13H27.0544L21.6943 19.1262L28 27.4625H23.0627L19.1957 22.4066L14.7709 27.4625H12.316L18.049 20.9099L12 13H17.0626L20.5581 17.6213L24.6009 13ZM23.7399 25.994H25.0993L16.3239 14.3914H14.8651L23.7399 25.994Z" fill="black"/>
</g>
<defs>
<clipPath id="clip0_3477_11780">
<rect width="40" height="40" fill="white"/>
</clipPath>
</defs>
</svg>
