<svg width="40" height="40" viewBox="0 0 40 40" fill="none" xmlns="http://www.w3.org/2000/svg">
<rect width="40" height="40" rx="20" fill="#19191B"/>
<g clip-path="url(#clip0_3139_13214)">
<path d="M40 20.125C40 9.01027 31.0457 0 20 0C8.95431 0 0 9.01027 0 20.125C0 30.17 7.31371 38.4958 16.875 40.0054V25.9424H11.7969V20.125H16.875V15.6912C16.875 10.6474 19.8609 7.86133 24.4293 7.86133C26.6175 7.86133 28.9062 8.25439 28.9062 8.25439V13.207H26.3843C23.8998 13.207 23.125 14.7583 23.125 16.3499V20.125H28.6719L27.7852 25.9424H23.125V40.0054C32.6863 38.4958 40 30.17 40 20.125Z" fill="url(#paint0_linear_3139_13214)"/>
<path d="M27.7852 25.9424L28.6719 20.125H23.125V16.3499C23.125 14.7583 23.8998 13.207 26.3843 13.207H28.9062V8.25439C28.9062 8.25439 26.6175 7.86133 24.4293 7.86133C19.8609 7.86133 16.875 10.6474 16.875 15.6912V20.125H11.7969V25.9424H16.875V40.0054C18.9457 40.3315 21.0543 40.3315 23.125 40.0054V25.9424H27.7852Z" fill="white"/>
</g>
<defs>
<linearGradient id="paint0_linear_3139_13214" x1="20" y1="0" x2="20" y2="40.0054" gradientUnits="userSpaceOnUse">
<stop stop-color="#18AFFF"/>
<stop offset="1" stop-color="#0062DF"/>
</linearGradient>
<clipPath id="clip0_3139_13214">
<rect width="40" height="40" fill="white"/>
</clipPath>
</defs>
</svg>
