<svg width="24" height="24" viewBox="0 0 24 24" fill="none" xmlns="http://www.w3.org/2000/svg">
<rect width="24" height="24" fill="white"/>
<path d="M18.7045 12.7631C18.7166 11.8432 18.9669 10.9412 19.4321 10.1412C19.8972 9.34105 20.5621 8.66882 21.3648 8.187C20.8548 7.47595 20.1821 6.89078 19.4 6.47797C18.6178 6.06517 17.7479 5.83609 16.8592 5.80895C14.9636 5.61469 13.1258 6.91641 12.1598 6.91641C11.1751 6.91641 9.68777 5.82824 8.08619 5.86041C7.05024 5.89308 6.04062 6.18719 5.15571 6.71408C4.2708 7.24096 3.54077 7.98265 3.03676 8.86688C0.853493 12.5573 2.48201 17.9809 4.5734 20.964C5.61977 22.4247 6.84267 24.0563 8.44281 23.9985C10.0086 23.9351 10.5935 23.0237 12.4836 23.0237C14.3561 23.0237 14.9048 23.9985 16.5374 23.9617C18.2176 23.9351 19.2762 22.4945 20.2859 21.0199C21.0377 19.9791 21.6162 18.8288 22 17.6116C21.0238 17.2085 20.1908 16.5338 19.6048 15.6716C19.0188 14.8094 18.7056 13.7979 18.7045 12.7631Z" fill="#211F20"/>
<path d="M15.6201 3.84712C16.5362 2.77342 16.9875 1.39335 16.8782 0C15.4786 0.14352 14.1857 0.796599 13.2572 1.82911C12.8033 2.33352 12.4556 2.92033 12.234 3.55601C12.0125 4.19169 11.9215 4.86376 11.9661 5.53381C12.6662 5.54084 13.3588 5.3927 13.9917 5.10054C14.6246 4.80838 15.1814 4.37982 15.6201 3.84712Z" fill="#211F20"/>
</svg>
