<svg width="24" height="24" viewBox="0 0 24 24" fill="none" xmlns="http://www.w3.org/2000/svg">
<g clip-path="url(#clip0_1_11014)">
<rect width="24" height="24" fill="white"/>
<path d="M23.9866 12.2245C23.9866 11.2413 23.9049 10.5238 23.7282 9.77966H12.2383V14.2176H18.9826C18.8467 15.3205 18.1124 16.9815 16.4807 18.0976L16.4578 18.2462L20.0907 20.9964L20.3424 21.0209C22.654 18.9347 23.9866 15.8653 23.9866 12.2245" fill="#4285F4"/>
<path d="M12.2391 23.9176C15.5433 23.9176 18.3171 22.8545 20.3432 21.0209L16.4815 18.0976C15.4481 18.8018 14.0611 19.2934 12.2391 19.2934C9.00291 19.2934 6.25622 17.2074 5.27711 14.324L5.13359 14.3359L1.35604 17.1927L1.30664 17.3269C3.31906 21.2334 7.45273 23.9176 12.2391 23.9176Z" fill="#34A853"/>
<path d="M5.27775 14.3239C5.0194 13.5798 4.86989 12.7825 4.86989 11.9587C4.86989 11.1349 5.0194 10.3376 5.26416 9.59354L5.25732 9.43507L1.43243 6.53235L1.30729 6.59052C0.477873 8.21162 0.00195312 10.032 0.00195312 11.9587C0.00195312 13.8854 0.477873 15.7058 1.30729 17.3269L5.27775 14.3239" fill="#FBBC05"/>
<path d="M12.2391 4.62403C14.5371 4.62403 16.0871 5.59401 16.971 6.40461L20.4248 3.10928C18.3036 1.1826 15.5433 0 12.2391 0C7.45273 0 3.31906 2.68406 1.30664 6.59056L5.26351 9.59359C6.25622 6.7102 9.00291 4.62403 12.2391 4.62403" fill="#EB4335"/>
</g>
<defs>
<clipPath id="clip0_1_11014">
<rect width="24" height="24" fill="white"/>
</clipPath>
</defs>
</svg>
