<svg width="24" height="24" viewBox="0 0 24 24" fill="none" xmlns="http://www.w3.org/2000/svg">
<rect x="0.5" y="0.5" width="23" height="23" fill="white"/>
<rect x="0.5" y="0.5" width="23" height="23" stroke="#E5E5E5"/>
<path d="M0 0H11.4171C11.4171 3.80571 11.4171 7.61143 11.4171 11.4171H0V0Z" fill="#F25022"/>
<path d="M12.582 0H23.9992C23.9992 3.80571 23.9992 7.61143 23.9992 11.4171H12.5827C12.5827 7.61143 12.5827 3.80571 12.5827 0H12.582Z" fill="#80BA01"/>
<path d="M0 12.5823C3.80571 12.5823 7.61143 12.5823 11.4171 12.5823C11.4171 16.388 11.4171 20.1935 11.4171 23.9987H0V12.5823Z" fill="#02A4EF"/>
<path d="M12.5827 12.5835C16.388 12.5835 20.1935 12.5835 23.9992 12.5835V24H12.582C12.582 20.1942 12.582 16.3888 12.582 12.5835H12.5827Z" fill="#FFB902"/>
</svg>
