<svg width="24" height="24" viewBox="0 0 24 24" fill="none" xmlns="http://www.w3.org/2000/svg">
<path d="M10.056 3.22778V10.0338H3.25V3.22778H6.382" stroke="#C9CCE0" stroke-width="1.5" stroke-linecap="square"/>
<path d="M20.7503 20.7271H13.9443V13.9211H20.7503V17.6411" stroke="#C9CCE0" stroke-width="1.5" stroke-linecap="square"/>
<path d="M16.3753 3.97778H17.1253V2.47778H16.3753V3.97778ZM13.9453 3.22778V2.47778H13.1953V3.22778H13.9453ZM13.1953 7.34778V8.09778H14.6953V7.34778H13.1953ZM20.0003 4.92878V5.67878H21.5003V4.92878H20.0003ZM20.7503 3.22778H21.5003V2.47778H20.7503V3.22778ZM19.0493 2.47778H18.2993V3.97778H19.0493V2.47778ZM21.5003 7.60278V6.85278H20.0003V7.60278H21.5003ZM20.7503 10.0328V10.7828H21.5003V10.0328H20.7503ZM19.0493 9.28278H18.2993V10.7828H19.0493V9.28278ZM13.9453 9.28278H13.1953V10.7828H13.9453V9.28278ZM16.1653 10.7828H16.9153V9.28278H16.1653V10.7828ZM16.3753 2.47778H13.9453V3.97778H16.3753V2.47778ZM13.1953 3.22778V7.34778H14.6953V3.22778H13.1953ZM21.5003 4.92878V3.22778H20.0003V4.92878H21.5003ZM20.7503 2.47778H19.0493V3.97778H20.7503V2.47778ZM20.0003 7.60278V10.0328H21.5003V7.60278H20.0003ZM20.7503 9.28278H19.0493V10.7828H20.7503V9.28278ZM13.9453 10.7828H16.1653V9.28278H13.9453V10.7828Z" fill="#C9CCE0"/>
<path d="M16.2676 5.59253V7.81153H18.0966" stroke="#C9CCE0" stroke-width="1.5" stroke-linecap="square"/>
<path d="M18.6934 5.58265V5.59265" stroke="#C9CCE0" stroke-width="1.5" stroke-linecap="square"/>
<path d="M6.65234 6.58163V6.67863" stroke="#C9CCE0" stroke-width="1.5" stroke-linecap="square"/>
<path d="M6.65234 17.2755V17.3725" stroke="#C9CCE0" stroke-width="1.5" stroke-linecap="square"/>
<path d="M17.3477 17.2755V17.3725" stroke="#C9CCE0" stroke-width="1.5" stroke-linecap="square"/>
<path d="M3.25 20.7271V13.9211H10.056V20.7271L6.765 20.7721" stroke="#C9CCE0" stroke-width="1.5" stroke-linecap="square"/>
</svg>
