<svg width="135" height="40" viewBox="0 0 135 40" fill="none" xmlns="http://www.w3.org/2000/svg">
<path d="M130 0H5C2.23858 0 0 2.23858 0 5V35C0 37.7614 2.23858 40 5 40H130C132.761 40 135 37.7614 135 35V5C135 2.23858 132.761 0 130 0Z" fill="black"/>
<path d="M130 0.8C132.32 0.8 134.2 2.68 134.2 5V35C134.2 37.32 132.32 39.2 130 39.2H5C2.68 39.2 0.8 37.32 0.8 35V5C0.8 2.68 2.68 0.8 5 0.8H130ZM130 0H5C2.25 0 0 2.25 0 5V35C0 37.75 2.25 40 5 40H130C132.75 40 135 37.75 135 35V5C135 2.25 132.75 0 130 0Z" fill="#A6A6A6"/>
<path d="M32.8389 20.3006C32.8496 19.466 33.072 18.6476 33.4851 17.9216C33.8983 17.1957 34.4889 16.5857 35.202 16.1486C34.749 15.5034 34.1514 14.9725 33.4566 14.5979C32.7619 14.2234 31.9891 14.0155 31.1997 13.9909C29.5157 13.8146 27.8832 14.9957 27.0251 14.9957C26.1504 14.9957 24.8292 14.0084 23.4064 14.0376C22.4862 14.0672 21.5893 14.3341 20.8033 14.8121C20.0172 15.2902 19.3687 15.9632 18.921 16.7655C16.9815 20.1139 18.4282 25.0349 20.286 27.7415C21.2155 29.0669 22.3018 30.5473 23.7232 30.4948C25.1142 30.4373 25.6337 29.6104 27.3127 29.6104C28.9761 29.6104 29.4635 30.4948 30.9138 30.4615C32.4063 30.4373 33.3467 29.1302 34.2436 27.7923C34.9115 26.848 35.4254 25.8042 35.7663 24.6998C34.8992 24.3341 34.1592 23.7219 33.6386 22.9396C33.118 22.1573 32.8399 21.2395 32.8389 20.3006Z" fill="white"/>
<path d="M30.0994 12.2108C30.9132 11.2366 31.3142 9.98445 31.2171 8.72021C29.9738 8.85044 28.8253 9.44299 28.0005 10.3798C27.5972 10.8375 27.2884 11.3699 27.0916 11.9467C26.8948 12.5235 26.8139 13.1333 26.8536 13.7412C27.4754 13.7476 28.0907 13.6132 28.6529 13.3481C29.2151 13.083 29.7097 12.6942 30.0994 12.2108Z" fill="white"/>
<path d="M50.4215 27.1396H45.6748L44.5349 30.496H42.5244L47.0204 18.078H49.1092L53.6052 30.496H51.5604L50.4215 27.1396ZM46.1664 25.5908H49.929L48.0742 20.1435H48.0223L46.1664 25.5908Z" fill="white"/>
<path d="M63.315 25.9697C63.315 28.7831 61.8049 30.5908 59.5261 30.5908C58.9488 30.6209 58.3747 30.4883 57.8695 30.2081C57.3643 29.928 56.9484 29.5116 56.6694 29.0068H56.6263V33.4911H54.7627V21.4423H56.5666V22.9482H56.6009C56.8927 22.4457 57.3156 22.0315 57.8246 21.7497C58.3337 21.4678 58.9098 21.3289 59.4918 21.3476C61.796 21.3476 63.315 23.164 63.315 25.9697ZM61.3995 25.9697C61.3995 24.1367 60.4495 22.9316 59.0002 22.9316C57.5763 22.9316 56.6185 24.162 56.6185 25.9697C56.6185 27.7939 57.5763 29.0156 59.0002 29.0156C60.4495 29.0156 61.3995 27.8193 61.3995 25.9697Z" fill="white"/>
<path d="M73.3077 25.9697C73.3077 28.7831 71.7976 30.5907 69.5187 30.5907C68.9415 30.6209 68.3674 30.4883 67.8622 30.2081C67.3569 29.928 66.9411 29.5116 66.6621 29.0067H66.619V33.4911H64.7554V21.4423H66.5592V22.9482H66.5935C66.8853 22.4457 67.3082 22.0315 67.8173 21.7497C68.3263 21.4678 68.9025 21.3289 69.4844 21.3476C71.7888 21.3476 73.3077 23.164 73.3077 25.9697ZM71.3921 25.9697C71.3921 24.1367 70.4422 22.9316 68.9928 22.9316C67.5689 22.9316 66.6112 24.162 66.6112 25.9697C66.6112 27.7939 67.5689 29.0156 68.9928 29.0156C70.4422 29.0156 71.3922 27.8193 71.3922 25.9697H71.3921Z" fill="white"/>
<path d="M79.9121 27.0361C80.0502 28.2675 81.2499 29.0761 82.8892 29.0761C84.46 29.0761 85.5901 28.2675 85.5901 27.1571C85.5901 26.1932 84.9085 25.6161 83.2946 25.2206L81.6807 24.8329C79.3941 24.2821 78.3325 23.2157 78.3325 21.4852C78.3325 19.3427 80.2049 17.871 82.8637 17.871C85.4951 17.871 87.299 19.3427 87.3597 21.4852H85.4785C85.3658 20.246 84.3385 19.4979 82.8373 19.4979C81.336 19.4979 80.3087 20.2548 80.3087 21.3563C80.3087 22.2343 80.9648 22.7509 82.5699 23.1463L83.9419 23.4823C86.4969 24.0848 87.5585 25.1083 87.5585 26.9247C87.5585 29.2479 85.7027 30.703 82.7511 30.703C79.9894 30.703 78.1249 29.2821 78.0044 27.036L79.9121 27.0361Z" fill="white"/>
<path d="M91.5807 19.2997V21.4423H93.3072V22.914H91.5807V27.9052C91.5807 28.6806 91.9264 29.0419 92.6854 29.0419C92.8903 29.0384 93.095 29.024 93.2984 28.9989V30.4618C92.9572 30.5254 92.6104 30.5542 92.2633 30.5478C90.4251 30.5478 89.7083 29.8593 89.7083 28.1034V22.914H88.3882V21.4423H89.7083V19.2997H91.5807Z" fill="white"/>
<path d="M94.3071 25.9697C94.3071 23.121 95.9896 21.331 98.6131 21.331C101.245 21.331 102.92 23.121 102.92 25.9697C102.92 28.8261 101.254 30.6083 98.6131 30.6083C95.9729 30.6083 94.3071 28.8261 94.3071 25.9697ZM101.021 25.9697C101.021 24.0156 100.123 22.8622 98.6131 22.8622C97.103 22.8622 96.206 24.0244 96.206 25.9697C96.206 27.9316 97.103 29.0761 98.6131 29.0761C100.123 29.0761 101.021 27.9316 101.021 25.9697H101.021Z" fill="white"/>
<path d="M104.457 21.4423H106.234V22.9833H106.277C106.397 22.502 106.68 22.0767 107.078 21.7788C107.476 21.4809 107.964 21.3287 108.461 21.3476C108.676 21.3468 108.89 21.3701 109.099 21.4169V23.1552C108.828 23.0726 108.546 23.0347 108.262 23.0429C107.991 23.0319 107.721 23.0796 107.471 23.1824C107.22 23.2853 106.995 23.4411 106.811 23.6389C106.626 23.8368 106.487 24.0722 106.402 24.3289C106.317 24.5855 106.289 24.8574 106.32 25.1259V30.496H104.457L104.457 21.4423Z" fill="white"/>
<path d="M117.692 27.8369C117.441 29.4804 115.836 30.6083 113.782 30.6083C111.141 30.6083 109.502 28.8437 109.502 26.0126C109.502 23.1728 111.15 21.331 113.704 21.331C116.216 21.331 117.796 23.0517 117.796 25.7968V26.4335H111.383V26.5458C111.354 26.879 111.395 27.2147 111.506 27.5305C111.616 27.8464 111.793 28.1352 112.024 28.3777C112.255 28.6203 112.535 28.811 112.846 28.9373C113.156 29.0636 113.49 29.1226 113.826 29.1103C114.266 29.1514 114.708 29.0497 115.086 28.8203C115.463 28.5908 115.757 28.2459 115.922 27.8368L117.692 27.8369ZM111.392 25.1347H115.931C115.948 24.8351 115.902 24.5353 115.797 24.2541C115.692 23.9729 115.53 23.7163 115.321 23.5006C115.112 23.2848 114.86 23.1145 114.582 23.0003C114.304 22.886 114.005 22.8304 113.704 22.8369C113.401 22.835 113.1 22.8932 112.819 23.0079C112.538 23.1227 112.283 23.2917 112.068 23.5054C111.853 23.719 111.683 23.973 111.567 24.2526C111.451 24.5323 111.391 24.8321 111.392 25.1347V25.1347Z" fill="white"/>
<path d="M45.9328 8.73101C46.3235 8.70305 46.7156 8.76191 47.0807 8.90335C47.4458 9.04478 47.7749 9.26526 48.0443 9.54889C48.3136 9.83251 48.5165 10.1722 48.6382 10.5435C48.76 10.9148 48.7976 11.3083 48.7483 11.6959C48.7483 13.6021 47.7151 14.6979 45.9328 14.6979H43.7715V8.73101H45.9328ZM44.7008 13.854H45.829C46.1082 13.8707 46.3876 13.825 46.6468 13.7204C46.9061 13.6158 47.1387 13.4548 47.3277 13.2493C47.5168 13.0437 47.6574 12.7987 47.7395 12.5321C47.8216 12.2655 47.8431 11.9839 47.8023 11.708C47.8401 11.4332 47.8165 11.1534 47.7331 10.8887C47.6498 10.6241 47.5088 10.3811 47.3202 10.1771C47.1316 9.97322 46.9001 9.81341 46.6423 9.70917C46.3845 9.60494 46.1068 9.55885 45.829 9.57422H44.7008V13.854Z" fill="white"/>
<path d="M49.7982 12.4443C49.7698 12.1484 49.8037 11.8499 49.8978 11.5678C49.9919 11.2857 50.1441 11.0264 50.3446 10.8064C50.5451 10.5864 50.7895 10.4107 51.0621 10.2904C51.3347 10.1701 51.6296 10.108 51.9277 10.108C52.2258 10.108 52.5206 10.1701 52.7932 10.2904C53.0658 10.4107 53.3102 10.5864 53.5107 10.8064C53.7112 11.0264 53.8634 11.2857 53.9575 11.5678C54.0516 11.8499 54.0855 12.1484 54.0572 12.4443C54.0861 12.7406 54.0525 13.0396 53.9587 13.3221C53.8648 13.6046 53.7127 13.8644 53.5122 14.0848C53.3116 14.3052 53.0671 14.4814 52.7942 14.6019C52.5213 14.7225 52.2261 14.7847 51.9277 14.7847C51.6292 14.7847 51.334 14.7225 51.0612 14.6019C50.7883 14.4814 50.5437 14.3052 50.3431 14.0848C50.1426 13.8644 49.9905 13.6046 49.8966 13.3221C49.8028 13.0396 49.7692 12.7406 49.7982 12.4443ZM53.1405 12.4443C53.1405 11.4683 52.7008 10.8975 51.9291 10.8975C51.1545 10.8975 50.7187 11.4683 50.7187 12.4444C50.7187 13.4282 51.1545 13.9946 51.9291 13.9946C52.7008 13.9946 53.1405 13.4243 53.1405 12.4443H53.1405Z" fill="white"/>
<path d="M59.7186 14.6978H58.7942L57.8609 11.3813H57.7904L56.861 14.6978H55.9454L54.7007 10.1948H55.6046L56.4135 13.6308H56.4801L57.4085 10.1948H58.2634L59.1918 13.6308H59.2623L60.0673 10.1948H60.9584L59.7186 14.6978Z" fill="white"/>
<path d="M62.0054 10.1948H62.8632V10.9102H62.9298C63.0428 10.6532 63.2333 10.4379 63.4749 10.2941C63.7164 10.1503 63.997 10.0852 64.2774 10.1079C64.4971 10.0914 64.7177 10.1245 64.9229 10.2046C65.128 10.2847 65.3125 10.4098 65.4626 10.5706C65.6127 10.7315 65.7246 10.9239 65.79 11.1337C65.8554 11.3436 65.8726 11.5654 65.8403 11.7827V14.6977H64.9492V12.0059C64.9492 11.2822 64.6338 10.9224 63.9748 10.9224C63.8256 10.9154 63.6767 10.9408 63.5382 10.9966C63.3998 11.0524 63.2751 11.1375 63.1727 11.2458C63.0703 11.3542 62.9926 11.4834 62.9449 11.6245C62.8972 11.7657 62.8807 11.9154 62.8965 12.0635V14.6978H62.0054L62.0054 10.1948Z" fill="white"/>
<path d="M67.2603 8.43701H68.1514V14.6978H67.2603V8.43701Z" fill="white"/>
<path d="M69.3899 12.4443C69.3616 12.1484 69.3955 11.8498 69.4897 11.5677C69.5838 11.2857 69.736 11.0263 69.9365 10.8063C70.137 10.5863 70.3815 10.4106 70.6541 10.2903C70.9267 10.17 71.2216 10.1079 71.5197 10.1079C71.8178 10.1079 72.1126 10.17 72.3853 10.2903C72.6579 10.4106 72.9023 10.5863 73.1028 10.8063C73.3034 11.0263 73.4556 11.2857 73.5497 11.5677C73.6438 11.8498 73.6778 12.1484 73.6494 12.4443C73.6783 12.7406 73.6447 13.0396 73.5508 13.3221C73.457 13.6046 73.3048 13.8644 73.1043 14.0848C72.9037 14.3052 72.6591 14.4814 72.3862 14.6019C72.1133 14.7224 71.8181 14.7847 71.5197 14.7847C71.2212 14.7847 70.926 14.7224 70.6531 14.6019C70.3802 14.4814 70.1356 14.3052 69.9351 14.0848C69.7345 13.8644 69.5824 13.6046 69.4885 13.3221C69.3946 13.0396 69.361 12.7406 69.3899 12.4443ZM72.7323 12.4443C72.7323 11.4683 72.2926 10.8975 71.5209 10.8975C70.7463 10.8975 70.3105 11.4683 70.3105 12.4444C70.3105 13.4282 70.7463 13.9946 71.5209 13.9946C72.2926 13.9946 72.7323 13.4243 72.7323 12.4443H72.7323Z" fill="white"/>
<path d="M74.5879 13.4243C74.5879 12.6138 75.1931 12.1465 76.2674 12.0801L77.4906 12.0098V11.6211C77.4906 11.1455 77.1752 10.877 76.5661 10.877C76.0686 10.877 75.7239 11.0591 75.625 11.3775H74.7622C74.8533 10.604 75.5829 10.1079 76.6072 10.1079C77.7393 10.1079 78.3778 10.6699 78.3778 11.6211V14.6978H77.5199V14.065H77.4494C77.3063 14.292 77.1053 14.477 76.867 14.6012C76.6288 14.7254 76.3617 14.7844 76.0931 14.772C75.9035 14.7916 75.7119 14.7715 75.5307 14.7128C75.3494 14.6541 75.1825 14.5581 75.0407 14.4312C74.8988 14.3042 74.7853 14.149 74.7073 13.9756C74.6293 13.8022 74.5886 13.6144 74.5879 13.4243ZM77.4906 13.0396V12.6631L76.3879 12.7334C75.766 12.7749 75.4839 12.9859 75.4839 13.3828C75.4839 13.7881 75.8365 14.0239 76.3213 14.0239C76.4633 14.0383 76.6068 14.024 76.7432 13.9819C76.8796 13.9398 77.0061 13.8708 77.1152 13.7789C77.2243 13.6871 77.3137 13.5743 77.3782 13.4473C77.4427 13.3203 77.4809 13.1816 77.4906 13.0396Z" fill="white"/>
<path d="M79.5488 12.4444C79.5488 11.0215 80.2823 10.1201 81.4232 10.1201C81.7054 10.1072 81.9855 10.1746 82.2307 10.3145C82.4759 10.4544 82.6761 10.661 82.808 10.9101H82.8746V8.43701H83.7657V14.6978H82.9118V13.9863H82.8413C82.6993 14.2338 82.4921 14.4378 82.2421 14.5763C81.9922 14.7148 81.709 14.7825 81.4232 14.772C80.2745 14.772 79.5488 13.8706 79.5488 12.4444ZM80.4694 12.4444C80.4694 13.3994 80.9209 13.9741 81.6759 13.9741C82.427 13.9741 82.8912 13.3911 82.8912 12.4483C82.8912 11.5098 82.4221 10.9185 81.6759 10.9185C80.9257 10.9185 80.4694 11.4971 80.4694 12.4444H80.4694Z" fill="white"/>
<path d="M87.4529 12.4443C87.4246 12.1484 87.4585 11.8499 87.5526 11.5678C87.6467 11.2857 87.7989 11.0264 87.9994 10.8064C88.1999 10.5864 88.4443 10.4107 88.7169 10.2904C88.9895 10.1701 89.2843 10.108 89.5824 10.108C89.8805 10.108 90.1754 10.1701 90.448 10.2904C90.7206 10.4107 90.965 10.5864 91.1655 10.8064C91.366 11.0264 91.5182 11.2857 91.6123 11.5678C91.7064 11.8499 91.7403 12.1484 91.7119 12.4443C91.7409 12.7406 91.7073 13.0396 91.6135 13.3221C91.5196 13.6046 91.3675 13.8644 91.167 14.0848C90.9664 14.3052 90.7218 14.4814 90.4489 14.6019C90.1761 14.7225 89.8809 14.7847 89.5824 14.7847C89.284 14.7847 88.9888 14.7225 88.7159 14.6019C88.443 14.4814 88.1985 14.3052 87.9979 14.0848C87.7974 13.8644 87.6453 13.6046 87.5514 13.3221C87.4576 13.0396 87.424 12.7406 87.4529 12.4443ZM90.7953 12.4443C90.7953 11.4683 90.3556 10.8975 89.5839 10.8975C88.8093 10.8975 88.3735 11.4683 88.3735 12.4444C88.3735 13.4282 88.8093 13.9946 89.5839 13.9946C90.3556 13.9946 90.7953 13.4243 90.7953 12.4443Z" fill="white"/>
<path d="M92.9077 10.1948H93.7656V10.9102H93.8322C93.9452 10.6532 94.1357 10.4379 94.3772 10.2941C94.6188 10.1503 94.8993 10.0852 95.1797 10.1079C95.3994 10.0914 95.62 10.1245 95.8252 10.2046C96.0304 10.2847 96.2149 10.4098 96.365 10.5706C96.5151 10.7315 96.627 10.9239 96.6923 11.1337C96.7577 11.3436 96.7749 11.5654 96.7427 11.7827V14.6977H95.8515V12.0059C95.8515 11.2822 95.5362 10.9224 94.8771 10.9224C94.7279 10.9154 94.579 10.9408 94.4406 10.9966C94.3021 11.0524 94.1774 11.1375 94.075 11.2458C93.9726 11.3542 93.8949 11.4834 93.8472 11.6245C93.7996 11.7657 93.7831 11.9154 93.7989 12.0635V14.6978H92.9077V10.1948Z" fill="white"/>
<path d="M101.778 9.07373V10.2153H102.756V10.9639H101.778V13.2793C101.778 13.751 101.973 13.9575 102.416 13.9575C102.53 13.9572 102.643 13.9503 102.756 13.937V14.6772C102.596 14.7058 102.434 14.721 102.272 14.7226C101.28 14.7226 100.886 14.375 100.886 13.5068V10.9638H100.169V10.2153H100.886V9.07373H101.778Z" fill="white"/>
<path d="M103.974 8.43701H104.857V10.9185H104.927C105.046 10.6591 105.242 10.4425 105.488 10.2982C105.734 10.1539 106.019 10.0888 106.304 10.1118C106.523 10.1 106.741 10.1364 106.944 10.2184C107.147 10.3004 107.329 10.4261 107.478 10.5864C107.626 10.7468 107.738 10.9378 107.804 11.146C107.87 11.3541 107.889 11.5742 107.859 11.7905V14.6978H106.967V12.0098C106.967 11.2905 106.631 10.9263 106.002 10.9263C105.849 10.9137 105.695 10.9347 105.55 10.9878C105.406 11.0408 105.275 11.1247 105.167 11.2334C105.059 11.3421 104.976 11.4732 104.923 11.6173C104.871 11.7614 104.851 11.9152 104.865 12.0679V14.6977H103.974L103.974 8.43701Z" fill="white"/>
<path d="M113.056 13.4819C112.935 13.8935 112.673 14.2495 112.315 14.4876C111.957 14.7258 111.527 14.8309 111.099 14.7847C110.802 14.7925 110.506 14.7357 110.233 14.6182C109.96 14.5006 109.715 14.3252 109.517 14.1041C109.318 13.8829 109.171 13.6214 109.084 13.3376C108.997 13.0537 108.973 12.7544 109.013 12.4605C108.974 12.1656 108.998 11.8656 109.085 11.581C109.172 11.2963 109.319 11.0335 109.516 10.8105C109.714 10.5874 109.957 10.4092 110.229 10.288C110.502 10.1668 110.797 10.1054 111.095 10.1079C112.352 10.1079 113.11 10.9639 113.11 12.3779V12.688H109.921V12.7378C109.907 12.9031 109.928 13.0694 109.982 13.2261C110.037 13.3829 110.123 13.5266 110.236 13.6481C110.35 13.7695 110.487 13.866 110.64 13.9314C110.793 13.9968 110.958 14.0297 111.124 14.0278C111.337 14.0533 111.553 14.0151 111.744 13.9178C111.936 13.8206 112.094 13.6689 112.198 13.4819L113.056 13.4819ZM109.921 12.0308H112.202C112.213 11.8796 112.193 11.7278 112.142 11.5851C112.09 11.4424 112.01 11.3119 111.905 11.2021C111.801 11.0922 111.674 11.0054 111.534 10.9472C111.393 10.8891 111.242 10.8608 111.09 10.8643C110.936 10.8623 110.783 10.8912 110.641 10.9491C110.498 11.0071 110.368 11.0929 110.259 11.2017C110.15 11.3104 110.064 11.4397 110.006 11.5821C109.948 11.7245 109.919 11.8771 109.921 12.0308H109.921Z" fill="white"/>
</svg>
