<svg width="135" height="40" viewBox="0 0 135 40" fill="none" xmlns="http://www.w3.org/2000/svg">
<g clip-path="url(#clip0_83_7770)">
<path d="M130 0H5C2.23858 0 0 2.23858 0 5V35C0 37.7614 2.23858 40 5 40H130C132.761 40 135 37.7614 135 35V5C135 2.23858 132.761 0 130 0Z" fill="black"/>
<path d="M130 0.8C132.32 0.8 134.2 2.68 134.2 5V35C134.2 37.32 132.32 39.2 130 39.2H5C2.68 39.2 0.8 37.32 0.8 35V5C0.8 2.68 2.68 0.8 5 0.8H130ZM130 0H5C2.25 0 0 2.25 0 5V35C0 37.75 2.25 40 5 40H130C132.75 40 135 37.75 135 35V5C135 2.25 132.75 0 130 0Z" fill="#A6A6A6"/>
<path d="M47.838 10.0035C47.838 10.843 47.5776 11.5119 47.0569 12.01C46.4718 12.6033 45.7024 12.9 44.7487 12.9C43.8359 12.9 43.0636 12.5977 42.4317 11.9933C41.7998 11.3888 41.4839 10.6443 41.4839 9.76C41.4839 8.87565 41.7998 8.13123 42.4317 7.52673C43.0636 6.92224 43.8359 6.62 44.7487 6.62C45.2109 6.62 45.6468 6.69836 46.0564 6.85508C46.4659 7.0118 46.8023 7.23288 47.0656 7.51834L46.4864 8.07246C46.2933 7.84857 46.0417 7.67506 45.7316 7.55192C45.4274 7.42319 45.0997 7.35882 44.7487 7.35882C44.0641 7.35882 43.4849 7.5855 43.011 8.03887C42.5429 8.49784 42.3089 9.07155 42.3089 9.76C42.3089 10.4484 42.5429 11.0222 43.011 11.4811C43.4849 11.9345 44.0641 12.1612 44.7487 12.1612C45.3747 12.1612 45.8955 11.9933 46.3109 11.6574C46.7263 11.3216 46.9662 10.8598 47.0305 10.2721H44.7487V9.5501H47.7941C47.8233 9.70682 47.838 9.85795 47.838 10.0035Z" fill="white"/>
<path d="M52.4875 6.75433V7.49315H49.6264V9.39898H52.2066V10.121H49.6264V12.0268H52.4875V12.7657H48.819V6.75433H52.4875Z" fill="white"/>
<path d="M55.7171 7.49315V12.7657H54.9097V7.49315H53.1544V6.75433H57.4724V7.49315H55.7171Z" fill="white"/>
<path d="M61.0511 12.7657H60.2436V6.75433H61.0511V12.7657Z" fill="white"/>
<path d="M64.4592 7.49315V12.7657H63.6517V7.49315H61.8965V6.75433H66.2144V7.49315H64.4592Z" fill="white"/>
<path d="M74.9665 9.76C74.9665 10.6499 74.6564 11.3944 74.0362 11.9933C73.4102 12.5977 72.6437 12.9 71.7368 12.9C70.8241 12.9 70.0576 12.5977 69.4374 11.9933C68.8172 11.3944 68.5071 10.6499 68.5071 9.76C68.5071 8.87005 68.8172 8.12563 69.4374 7.52673C70.0576 6.92224 70.8241 6.62 71.7368 6.62C72.6495 6.62 73.416 6.92504 74.0362 7.53513C74.6564 8.13402 74.9665 8.87565 74.9665 9.76ZM69.3321 9.76C69.3321 10.454 69.5603 11.0277 70.0166 11.4811C70.4789 11.9345 71.0523 12.1612 71.7368 12.1612C72.4214 12.1612 72.9918 11.9345 73.4482 11.4811C73.9104 11.0333 74.1415 10.4596 74.1415 9.76C74.1415 9.06035 73.9104 8.48664 73.4482 8.03887C72.9918 7.5855 72.4214 7.35882 71.7368 7.35882C71.0523 7.35882 70.4789 7.5855 70.0166 8.03887C69.5603 8.49224 69.3321 9.06595 69.3321 9.76Z" fill="white"/>
<path d="M76.7268 12.7657H75.9193V6.75433H76.9023L79.9565 11.4307H79.9916L79.9565 10.2721V6.75433H80.7639V12.7657H79.9214L76.7268 7.86256H76.6917L76.7268 9.02117V12.7657Z" fill="white"/>
<path d="M68.1398 21.75C65.7898 21.75 63.8698 23.54 63.8698 26C63.8698 28.46 65.7898 30.25 68.1398 30.25C70.4898 30.25 72.4098 28.45 72.4098 26C72.4098 23.55 70.4898 21.75 68.1398 21.75ZM68.1398 28.58C66.8498 28.58 65.7398 27.52 65.7398 26C65.7398 24.48 66.8498 23.42 68.1398 23.42C69.4298 23.42 70.5398 24.47 70.5398 26C70.5398 27.53 69.4298 28.58 68.1398 28.58ZM58.8298 21.75C56.4798 21.75 54.5598 23.54 54.5598 26C54.5598 28.46 56.4798 30.25 58.8298 30.25C61.1798 30.25 63.0998 28.45 63.0998 26C63.0998 23.55 61.1798 21.75 58.8298 21.75ZM58.8298 28.58C57.5398 28.58 56.4298 27.52 56.4298 26C56.4298 24.48 57.5398 23.42 58.8298 23.42C60.1198 23.42 61.2298 24.47 61.2298 26C61.2298 27.53 60.1198 28.58 58.8298 28.58ZM47.7498 23.05V24.85H52.0698C51.9398 25.86 51.5998 26.61 51.0898 27.12C50.4598 27.75 49.4798 28.44 47.7598 28.44C45.0998 28.44 43.0198 26.3 43.0198 23.64C43.0198 20.98 45.0998 18.84 47.7598 18.84C49.1898 18.84 50.2398 19.4 51.0098 20.13L52.2798 18.86C51.1998 17.83 49.7698 17.04 47.7498 17.04C44.1098 17.04 41.0498 20 41.0498 23.65C41.0498 27.3 44.1098 30.26 47.7498 30.26C49.7198 30.26 51.1998 29.62 52.3598 28.41C53.5498 27.22 53.9198 25.54 53.9198 24.19C53.9198 23.77 53.8898 23.38 53.8198 23.06H47.7498V23.05ZM93.0598 24.45C92.7098 23.5 91.6298 21.74 89.4198 21.74C87.2098 21.74 85.4098 23.46 85.4098 25.99C85.4098 28.37 87.2098 30.24 89.6298 30.24C91.5798 30.24 92.7098 29.05 93.1698 28.36L91.7198 27.39C91.2398 28.1 90.5798 28.57 89.6298 28.57C88.6798 28.57 87.9998 28.14 87.5698 27.28L93.2598 24.93L93.0698 24.45H93.0598ZM87.2598 25.87C87.2098 24.23 88.5298 23.39 89.4798 23.39C90.2198 23.39 90.8498 23.76 91.0598 24.29L87.2598 25.87ZM82.6398 29.99H84.5098V17.49H82.6398V29.99ZM79.5798 22.69H79.5198C79.0998 22.19 78.2998 21.74 77.2798 21.74C75.1498 21.74 73.1998 23.61 73.1998 26.01C73.1998 28.41 75.1498 30.25 77.2798 30.25C78.2898 30.25 79.0998 29.8 79.5198 29.28H79.5798V29.89C79.5798 31.52 78.7098 32.39 77.3098 32.39C76.1698 32.39 75.4598 31.57 75.1698 30.88L73.5398 31.56C74.0098 32.69 75.2498 34.07 77.3098 34.07C79.4998 34.07 81.3498 32.78 81.3498 29.64V22H79.5798V22.69ZM77.4398 28.57C76.1498 28.57 75.0698 27.49 75.0698 26.01C75.0698 24.53 76.1498 23.42 77.4398 23.42C78.7298 23.42 79.7098 24.52 79.7098 26.01C79.7098 27.5 78.7098 28.57 77.4398 28.57ZM101.82 17.49H97.3498V29.99H99.2198V25.25H101.83C103.9 25.25 105.93 23.75 105.93 21.37C105.93 18.99 103.9 17.49 101.83 17.49H101.82ZM101.87 23.52H99.2198V19.23H101.87C103.27 19.23 104.06 20.39 104.06 21.37C104.06 22.35 103.27 23.51 101.87 23.51V23.52ZM113.4 21.72C112.05 21.72 110.65 22.32 110.07 23.63L111.73 24.32C112.08 23.63 112.74 23.4 113.43 23.4C114.39 23.4 115.38 23.98 115.39 25.01V25.14C115.05 24.95 114.33 24.66 113.44 24.66C111.65 24.66 109.84 25.64 109.84 27.47C109.84 29.14 111.3 30.22 112.94 30.22C114.19 30.22 114.89 29.66 115.32 29H115.38V29.96H117.18V25.17C117.18 22.95 115.52 21.71 113.38 21.71L113.4 21.72ZM113.17 28.57C112.56 28.57 111.71 28.26 111.71 27.51C111.71 26.55 112.77 26.18 113.69 26.18C114.51 26.18 114.9 26.36 115.39 26.6C115.25 27.76 114.25 28.58 113.17 28.58V28.57ZM123.75 21.99L121.61 27.41H121.55L119.33 21.99H117.32L120.65 29.57L118.75 33.78H120.7L125.83 21.99H123.76H123.75ZM106.94 29.99H108.81V17.49H106.94V29.99Z" fill="white"/>
<path d="M20.7203 19.42L10.0703 30.72C10.4003 31.95 11.5203 32.85 12.8503 32.85C13.3803 32.85 13.8803 32.71 14.3103 32.45L14.3403 32.43L26.3203 25.52L20.7103 19.41L20.7203 19.42Z" fill="#EA4335"/>
<path d="M31.49 17.5H31.48L26.31 14.49L20.48 19.68L26.33 25.53L31.48 22.56C32.38 22.07 32.99 21.12 32.99 20.03C32.99 18.94 32.39 17.99 31.49 17.51V17.5Z" fill="#FBBC04"/>
<path d="M10.0702 9.28003C10.0102 9.52003 9.97021 9.76003 9.97021 10.02V29.99C9.97021 30.25 10.0002 30.49 10.0702 30.73L21.0802 19.72L10.0702 9.28003Z" fill="#4285F4"/>
<path d="M20.8003 20L26.3103 14.49L14.3403 7.55001C13.9103 7.29001 13.4003 7.14001 12.8503 7.14001C11.5203 7.14001 10.4003 8.05002 10.0703 9.27002L20.8003 19.99V20Z" fill="#34A853"/>
</g>
<defs>
<clipPath id="clip0_83_7770">
<rect width="135" height="40" fill="white"/>
</clipPath>
</defs>
</svg>
