<svg width="104" height="107" viewBox="0 0 104 107" fill="none" xmlns="http://www.w3.org/2000/svg">
<g filter="url(#filter0_d_3647_20724)">
<circle cx="52" cy="48.5" r="45.5" fill="#EAF5FF"/>
</g>
<path fill-rule="evenodd" clip-rule="evenodd" d="M83 36.1726C83 25.0406 73.9594 16 62.8274 16H25.1726C14.0406 16 5 25.0406 5 36.1726V73.8274C5 84.9594 14.0406 94 25.1726 94H62.8274C73.9594 94 83 84.9594 83 73.8274V36.1726Z" fill="#639C90"/>
<path fill-rule="evenodd" clip-rule="evenodd" d="M83 36.1726C83 25.0406 73.9594 16 62.8274 16H25.1726C14.0406 16 5 25.0406 5 36.1726V73.8274C5 84.9594 14.0406 94 25.1726 94H62.8274C73.9594 94 83 84.9594 83 73.8274V36.1726ZM80.3104 36.1726V73.8274C80.3104 83.4765 72.4768 91.3095 62.8282 91.3095H25.1735C15.5244 91.3095 7.69135 83.476 7.69135 73.8274V36.1726C7.69135 26.5235 15.5249 18.6905 25.1735 18.6905H62.8282C72.4773 18.6905 80.3104 26.5241 80.3104 36.1726ZM44 24.0697C35.5109 24.0697 27.8184 27.4957 22.2239 33.0397C22.1903 33.07 22.1601 33.1003 22.1264 33.1272C22.0962 33.1608 22.0659 33.191 22.039 33.2247C16.495 38.8191 13.069 46.5118 13.069 55.0007C13.069 63.4896 16.495 71.1824 22.039 76.7768C22.0693 76.8104 22.0995 76.8407 22.1264 76.8743C22.1601 76.9046 22.1903 76.9348 22.2239 76.9617C27.8184 82.5057 35.5111 85.9317 44 85.9317C52.4889 85.9317 60.1817 82.5058 65.7761 76.9617C65.8097 76.9315 65.8399 76.9012 65.8736 76.8743C65.9038 76.8407 65.9341 76.8104 65.961 76.7768C71.505 71.1824 74.931 63.4896 74.931 55.0007C74.931 46.5118 71.5051 38.8191 65.961 33.2247C65.9307 33.191 65.9005 33.1608 65.8736 33.1272C65.8399 33.0969 65.8097 33.0666 65.7761 33.0397C60.1817 27.4958 52.4889 24.0697 44 24.0697ZM45.3448 26.793V30.7938C45.3448 31.5368 44.743 32.1386 44 32.1386C43.257 32.1386 42.6552 31.5368 42.6552 30.7938V26.793C35.874 27.109 29.7149 29.8255 25.0078 34.1088L27.8353 36.9329C28.3598 37.4607 28.3598 38.3113 27.8353 38.8357C27.3075 39.3602 26.4568 39.3602 25.9324 38.8357L23.1084 36.0082C18.8251 40.7151 16.1086 46.8743 15.7926 53.6556H19.7934C20.5364 53.6556 21.1382 54.2574 21.1382 55.0004C21.1382 55.7434 20.5364 56.3452 19.7934 56.3452H15.7926C16.1086 63.1265 18.8251 69.2856 23.1084 73.9926L25.9324 71.1651C26.4603 70.6407 27.3109 70.6407 27.8353 71.1651C28.3598 71.693 28.3598 72.5436 27.8353 73.068L25.0078 75.8921C29.7147 80.1753 35.8739 82.8918 42.6552 83.2079V79.2071C42.6552 78.4641 43.257 77.8623 44 77.8623C44.743 77.8623 45.3448 78.4641 45.3448 79.2071V83.2079C52.126 82.8918 58.2851 80.1753 62.9922 75.8921L60.1647 73.068C59.6402 72.5402 59.6402 71.6895 60.1647 71.1651C60.6925 70.6407 61.5432 70.6407 62.0676 71.1651L64.8916 73.9926C69.1749 69.2858 71.8914 63.1265 72.2074 56.3452H68.2066C67.4636 56.3452 66.8618 55.7434 66.8618 55.0004C66.8618 54.2574 67.4636 53.6556 68.2066 53.6556H72.2074C71.8914 46.8744 69.1749 40.7153 64.8916 36.0082L62.0676 38.8357C61.5397 39.3602 60.6891 39.3602 60.1647 38.8357C59.6402 38.3079 59.6402 37.4573 60.1647 36.9329L62.9922 34.1088C58.2853 29.8255 52.1261 27.1091 45.3448 26.793ZM42.6552 49.793C40.3354 50.3914 38.6208 52.4994 38.6208 55.0041C38.6208 57.9728 41.0313 60.3834 44 60.3834C44.9986 60.3834 45.9298 60.1111 46.7333 59.637L53.6659 66.5695C54.1903 67.094 55.0443 67.094 55.5687 66.5695C56.0932 66.0451 56.0932 65.1911 55.5687 64.6667L48.6362 57.7341C49.1103 56.934 49.3826 55.9994 49.3826 55.0008C49.3826 52.496 47.668 50.3881 45.3482 49.7896V35.9817C45.3482 35.2387 44.7464 34.6369 44.0033 34.6369C43.2603 34.6369 42.6585 35.2387 42.6585 35.9817V49.7896L42.6552 49.793ZM45.9164 56.8869C46.3938 56.4027 46.6897 55.7371 46.6897 55.0008C46.6897 53.5147 45.4861 52.3112 44 52.3112C42.514 52.3112 41.3104 53.5147 41.3104 55.0008C41.3104 56.4868 42.514 57.6904 44 57.6904C44.733 57.6904 45.402 57.3945 45.8861 56.9171L45.9198 56.8835L45.9164 56.8869Z" fill="#151946"/>
<path fill-rule="evenodd" clip-rule="evenodd" d="M45.3447 26.7928V30.7936C45.3447 31.5366 44.7429 32.1384 43.9999 32.1384C43.2569 32.1384 42.6551 31.5366 42.6551 30.7936V26.7928C35.8739 27.1089 29.7148 29.8254 25.0077 34.1086L27.8352 36.9327C28.3597 37.4605 28.3597 38.3112 27.8352 38.8356C27.3074 39.3601 26.4567 39.3601 25.9323 38.8356L23.1083 36.0081C18.825 40.715 16.1085 46.8741 15.7925 53.6554H19.7933C20.5363 53.6554 21.1381 54.2573 21.1381 55.0003C21.1381 55.7433 20.5363 56.3451 19.7933 56.3451H15.7925C16.1085 63.1263 18.825 69.2854 23.1083 73.9925L25.9323 71.165C26.4602 70.6405 27.3108 70.6405 27.8352 71.165C28.3597 71.6928 28.3597 72.5434 27.8352 73.0678L25.0077 75.8919C29.7146 80.1752 35.8738 82.8916 42.6551 83.2077V79.2069C42.6551 78.4639 43.2569 77.8621 43.9999 77.8621C44.7429 77.8621 45.3447 78.4639 45.3447 79.2069V83.2077C52.1259 82.8917 58.285 80.1752 62.9921 75.8919L60.1646 73.0678C59.6401 72.54 59.6401 71.6894 60.1646 71.165C60.6924 70.6405 61.5431 70.6405 62.0675 71.165L64.8915 73.9925C69.1748 69.2856 71.8913 63.1264 72.2073 56.3451H68.2065C67.4635 56.3451 66.8617 55.7433 66.8617 55.0003C66.8617 54.2573 67.4635 53.6554 68.2065 53.6554H72.2073C71.8913 46.8742 69.1748 40.7151 64.8915 36.0081L62.0675 38.8356C61.5396 39.3601 60.689 39.3601 60.1646 38.8356C59.6401 38.3077 59.6401 37.4571 60.1646 36.9327L62.9921 34.1086C58.2852 29.8254 52.126 27.1089 45.3447 26.7928ZM42.6551 49.7928C40.3353 50.3912 38.6206 52.4992 38.6206 55.004C38.6206 57.9726 41.0312 60.3832 43.9999 60.3832C44.9985 60.3832 45.9297 60.1109 46.7332 59.6368L53.6658 66.5694C54.1902 67.0938 55.0442 67.0938 55.5686 66.5694C56.093 66.0449 56.0931 65.1909 55.5686 64.6665L48.6361 57.734C49.1102 56.9338 49.3825 55.9992 49.3825 55.0006C49.3825 52.4959 47.6678 50.3879 45.3481 49.7895V35.9816C45.3481 35.2386 44.7463 34.6367 44.0032 34.6367C43.2602 34.6367 42.6584 35.2386 42.6584 35.9816V49.7895L42.6551 49.7928ZM45.9163 56.8867C46.3937 56.4026 46.6896 55.7369 46.6896 55.0006C46.6896 53.5146 45.486 52.311 43.9999 52.311C42.5139 52.311 41.3103 53.5146 41.3103 55.0006C41.3103 56.4867 42.5139 57.6902 43.9999 57.6902C44.7328 57.6902 45.4019 57.3944 45.886 56.917L45.9196 56.8833L45.9163 56.8867Z" fill="white"/>
<path fill-rule="evenodd" clip-rule="evenodd" d="M45.9146 56.8865C46.392 56.4024 46.6878 55.7367 46.6878 55.0004C46.6878 53.5144 45.4843 52.3108 43.9982 52.3108C42.5122 52.3108 41.3086 53.5144 41.3086 55.0004C41.3086 56.4865 42.5122 57.69 43.9982 57.69C44.7311 57.69 45.4002 57.3942 45.8843 56.9168L45.9179 56.8832L45.9146 56.8865Z" fill="#C9CCE0"/>
<path d="M97.0216 58.756C97.5 58.0697 97.76 57.3209 97.76 56.52V48.2C97.76 42.792 85.9769 39.88 74.88 39.88C63.7831 39.88 52 42.792 52 48.2V56.52C52 59.1616 54.8184 61.2104 58.9888 62.604C58.396 63.4568 58.24 64.2472 58.24 64.84V73.16C58.24 74.2 58.6768 75.136 59.4568 75.9888C55.9312 77.4656 54.08 79.348 54.08 81.48V89.8C54.08 95.208 65.8631 98.12 76.96 98.12C88.0569 98.12 99.84 95.208 99.84 89.8V81.48C99.84 80.7416 99.5904 79.7224 98.6128 78.6512C101.889 77.2888 104 75.448 104 73.16V64.84C104 62.4064 101.535 60.2744 97.0216 58.756ZM67.6001 62.3232V56.104C69.6385 56.3432 71.7393 56.4784 73.8401 56.5096V62.7392C71.6353 62.708 69.5449 62.552 67.6001 62.3232ZM60.2891 60.8256C60.2891 60.8256 60.3203 60.732 60.3203 60.68V54.7C61.9219 55.1576 63.6795 55.532 65.5203 55.8232V62.032C63.5755 61.7096 61.8075 61.304 60.2891 60.836L60.2891 60.8256ZM75.9201 56.5096C78.0208 56.4784 80.1217 56.3328 82.1601 56.104V62.3232C80.2153 62.5625 78.1249 62.708 75.9201 62.7392V56.5096ZM84.2401 55.8128C86.0808 55.5216 87.8384 55.1472 89.4401 54.6896V60.6696C89.4401 60.6696 89.4609 60.7632 89.4713 60.8152C87.9529 61.2832 86.1849 61.6992 84.24 62.0112V55.8025L84.2401 55.8128ZM91.5204 54.0136C93.1948 53.3896 94.6196 52.6617 95.6804 51.8192V56.5096C95.6804 57.7264 94.1412 59.0056 91.5204 60.0768V54.0136ZM74.8804 41.9603C86.7887 41.9603 95.6804 45.2571 95.6804 48.2003C95.6804 51.1435 86.7887 54.4403 74.8804 54.4403C62.9721 54.4403 54.0804 51.1435 54.0804 48.2003C54.0804 45.2571 62.9721 41.9603 74.8804 41.9603ZM54.0804 56.5203V51.8299C55.1412 52.6722 56.566 53.4003 58.2404 54.0243V60.0875C55.6196 59.0059 54.0804 57.7371 54.0804 56.5203ZM74.8804 64.8403C82.9195 64.8403 91.3334 63.3011 95.3476 60.3995C99.414 61.6059 101.92 63.2907 101.92 64.8403C101.92 67.7835 93.0286 71.0803 81.1204 71.0803C69.2121 71.0803 60.3204 67.7835 60.3204 64.8403C60.3204 64.3203 60.6116 63.7899 61.1628 63.2491C65.198 64.2995 70.1074 64.8403 74.8804 64.8403ZM90.4807 78.6621V72.4533C92.3215 72.1621 94.0791 71.7877 95.6807 71.3301V77.3102C95.6807 77.3102 95.7015 77.4037 95.7119 77.4557C94.1936 77.9237 92.4255 78.3397 90.4807 78.6518L90.4807 78.6621ZM73.8407 78.9637V72.7445C75.8791 72.9837 77.98 73.1189 80.0807 73.1501V79.3797C77.8759 79.3485 75.7855 79.1925 73.8407 78.9637ZM60.3211 73.1605V68.4701C61.3819 69.3124 62.8067 70.0405 64.4811 70.6645V76.7277C61.8603 75.6461 60.3211 74.3773 60.3211 73.1605ZM66.5611 77.3205V71.3405C68.1626 71.7981 69.9203 72.1725 71.7611 72.4637V78.6724C69.8162 78.35 68.0483 77.9444 66.5298 77.4764C66.5298 77.4244 66.561 77.3828 66.561 77.3308L66.5611 77.3205ZM82.1614 73.1501C84.2622 73.1189 86.363 72.9733 88.4014 72.7445V78.9637C86.4566 79.2029 84.3662 79.3485 82.1614 79.3797V73.1501ZM56.1617 89.8007V85.1103C57.2226 85.9527 58.6473 86.6807 60.3217 87.3047V93.368C57.7009 92.2864 56.1617 91.0176 56.1617 89.8007ZM84.2421 89.3847V95.604C82.2972 95.8432 80.2069 95.9888 78.0021 96.02V89.7904C80.1028 89.7592 82.2037 89.6135 84.2421 89.3847ZM91.5224 87.9807V93.9607C91.5224 93.9607 91.5432 94.0543 91.5536 94.1063C90.0352 94.5743 88.2672 94.9903 86.3224 95.3024V89.0936C88.1632 88.8024 89.9207 88.428 91.5224 87.9704L91.5224 87.9807ZM75.9221 96.0198C73.7173 95.9886 71.6269 95.8326 69.6821 95.6038V89.3846C71.7205 89.6238 73.8213 89.759 75.9221 89.7902V96.0198ZM67.6021 95.3023C65.6572 94.9799 63.8893 94.5742 62.3708 94.1062C62.3708 94.0542 62.402 94.0126 62.402 93.9606V87.9806C64.0036 88.4382 65.7613 88.8126 67.602 89.1038V95.3126L67.6021 95.3023ZM93.6017 93.3679V87.3047C95.2761 86.6807 96.7009 85.9527 97.7617 85.1103V89.8007C97.7617 91.0175 96.2225 92.2967 93.6017 93.3679ZM97.7617 81.4809C97.7617 84.4242 88.87 87.7209 76.9617 87.7209C65.0535 87.7209 56.1617 84.4242 56.1617 81.4809C56.1617 80.1394 58.0961 78.6625 61.3409 77.4977C65.5737 80.1081 73.5087 81.4809 81.1219 81.4809C86.5402 81.4809 92.1149 80.7841 96.41 79.4425C97.0964 79.9729 97.7617 80.6905 97.7617 81.4809ZM97.7617 76.7282V70.6649C99.4361 70.0409 100.861 69.313 101.922 68.4705V73.1609C101.922 74.3777 100.383 75.6569 97.7617 76.7282Z" fill="#151946"/>
<path d="M74.8801 41.9603C86.7883 41.9603 95.6801 45.2571 95.6801 48.2003C95.6801 51.1435 86.7883 54.4403 74.8801 54.4403C62.9718 54.4403 54.0801 51.1435 54.0801 48.2003C54.0801 45.2571 62.9718 41.9603 74.8801 41.9603ZM74.8801 64.8403C82.9192 64.8403 91.333 63.3011 95.3473 60.3995C99.4137 61.6059 101.92 63.2907 101.92 64.8403C101.92 67.7835 93.0283 71.0803 81.1201 71.0803C69.2118 71.0803 60.3201 67.7835 60.3201 64.8403C60.3201 64.3203 60.6113 63.7899 61.1625 63.2491C65.1977 64.2995 70.1071 64.8403 74.8801 64.8403ZM97.7614 81.481C97.7614 84.4242 88.8697 87.721 76.9614 87.721C65.0532 87.721 56.1614 84.4242 56.1614 81.481C56.1614 80.1394 58.0958 78.6626 61.3406 77.4978C65.5734 80.1082 73.5084 81.481 81.1215 81.481C86.5399 81.481 92.1146 80.7842 96.4097 79.4426C97.0961 79.973 97.7614 80.6906 97.7614 81.481Z" fill="white"/>
<path d="M67.5997 62.3234V56.1041C69.6381 56.3433 71.739 56.4785 73.8397 56.5097V62.7394C71.6349 62.7082 69.5446 62.5522 67.5997 62.3234ZM60.2888 60.8258C60.2888 60.8258 60.32 60.7322 60.32 60.6802V54.7002C61.9216 55.1578 63.6792 55.5322 65.52 55.8234V62.0321C63.5752 61.7097 61.8072 61.3041 60.2888 60.8361L60.2888 60.8258ZM75.9197 56.5098C78.0205 56.4786 80.1213 56.333 82.1597 56.1041V62.3234C80.2149 62.5626 78.1245 62.7082 75.9197 62.7394V56.5098ZM84.2397 55.8129C86.0805 55.5217 87.8381 55.1473 89.4397 54.6897V60.6698C89.4397 60.6698 89.4605 60.7633 89.4709 60.8154C87.9526 61.2833 86.1845 61.6993 84.2397 62.0114V55.8026L84.2397 55.8129ZM91.5201 54.0138C93.1945 53.3898 94.6192 52.6618 95.6801 51.8193V56.5098C95.6801 57.7265 94.1409 59.0058 91.5201 60.077V54.0138ZM54.0801 56.5204V51.83C55.1409 52.6724 56.5657 53.4004 58.2401 54.0244V60.0876C55.6193 59.006 54.0801 57.7373 54.0801 56.5204ZM90.4804 78.6623V72.4535C92.3212 72.1623 94.0788 71.7879 95.6804 71.3303V77.3103C95.6804 77.3103 95.7012 77.4039 95.7116 77.4559C94.1932 77.9239 92.4252 78.3399 90.4804 78.6519L90.4804 78.6623ZM73.8404 78.9638V72.7446C75.8788 72.9838 77.9796 73.119 80.0804 73.1502V79.3798C77.8756 79.3486 75.7852 79.1926 73.8404 78.9638ZM60.3207 73.1606V68.4702C61.3816 69.3126 62.8064 70.0406 64.4807 70.6646V76.7278C61.8599 75.6462 60.3207 74.3775 60.3207 73.1606ZM66.5607 77.3206V71.3406C68.1623 71.7982 69.92 72.1726 71.7607 72.4638V78.6726C69.8159 78.3502 68.048 77.9445 66.5295 77.4766C66.5295 77.4246 66.5607 77.383 66.5607 77.331L66.5607 77.3206ZM82.1611 73.1502C84.2618 73.119 86.3627 72.9734 88.4011 72.7446V78.9639C86.4563 79.2031 84.3659 79.3487 82.1611 79.3799V73.1502ZM56.1614 89.8009V85.1105C57.2222 85.9528 58.647 86.6809 60.3214 87.3049V93.3681C57.7006 92.2865 56.1614 91.0177 56.1614 89.8009ZM84.2417 89.3849V95.6041C82.2969 95.8433 80.2065 95.9889 78.0017 96.0201V89.7905C80.1025 89.7593 82.2033 89.6137 84.2417 89.3849ZM91.5221 87.9809V93.9609C91.5221 93.9609 91.5429 94.0545 91.5533 94.1065C90.0349 94.5745 88.2669 94.9905 86.3221 95.3025V89.0937C88.1628 88.8025 89.9204 88.4281 91.5221 87.9705L91.5221 87.9809ZM75.9217 96.02C73.7169 95.9888 71.6266 95.8328 69.6817 95.604V89.3847C71.7201 89.6239 73.821 89.7591 75.9217 89.7903V96.02ZM67.6017 95.3024C65.6569 94.98 63.889 94.5744 62.3705 94.1064C62.3705 94.0544 62.4017 94.0128 62.4017 93.9608V87.9808C64.0033 88.4384 65.7609 88.8128 67.6017 89.104V95.3127L67.6017 95.3024ZM93.6014 93.368V87.3048C95.2758 86.6808 96.7006 85.9528 97.7614 85.1104V89.8008C97.7614 91.0176 96.2222 92.2968 93.6014 93.368ZM97.7614 76.7283V70.6651C99.4358 70.0411 100.861 69.3131 101.921 68.4707V73.1611C101.921 74.3779 100.382 75.6571 97.7614 76.7283Z" fill="#78CAB9"/>
<defs>
<filter id="filter0_d_3647_20724" x="0.5" y="0" width="103" height="103" filterUnits="userSpaceOnUse" color-interpolation-filters="sRGB">
<feFlood flood-opacity="0" result="BackgroundImageFix"/>
<feColorMatrix in="SourceAlpha" type="matrix" values="0 0 0 0 0 0 0 0 0 0 0 0 0 0 0 0 0 0 127 0" result="hardAlpha"/>
<feOffset dy="3"/>
<feGaussianBlur stdDeviation="3"/>
<feColorMatrix type="matrix" values="0 0 0 0 0.533333 0 0 0 0 0.533333 0 0 0 0 0.611765 0 0 0 0.12 0"/>
<feBlend mode="normal" in2="BackgroundImageFix" result="effect1_dropShadow_3647_20724"/>
<feBlend mode="normal" in="SourceGraphic" in2="effect1_dropShadow_3647_20724" result="shape"/>
</filter>
</defs>
</svg>
