<svg width="104" height="107" viewBox="0 0 104 107" fill="none" xmlns="http://www.w3.org/2000/svg">
<g filter="url(#filter0_d_3211_25361)">
<circle cx="52" cy="48.5" r="45.5" fill="#EAF5FF"/>
</g>
<path d="M61.4042 85.08C61.5896 85.0642 61.7981 85.0563 62.0143 85.0563C62.4777 84.9536 62.9063 84.7206 63.2538 84.3888C65.3313 82.4613 64.4779 79.3724 62.0413 79.0287C52.8704 77.7371 50.2017 76.4771 47.6038 75.2604C42.5492 72.8825 39.7072 72.5547 34.0462 73.2105C33.9535 73.2184 33.8608 73.2184 33.7681 73.2065C31.3586 72.8431 23.6278 78.2624 18.5576 81.8016C17.3413 82.6508 16.2832 83.3934 15.4106 83.97H15.4144C15.2059 84.1083 15.1403 84.3887 15.2638 84.606L24.8016 101.267C24.9174 101.484 25.1761 101.567 25.3924 101.461C29.9257 98.6129 34.5749 95.8677 39.1428 93.0909C39.5328 92.8539 39.9807 92.7236 40.4364 92.7117C45.8502 92.5656 50.7121 92.7947 55.461 93.0198C58.4151 93.1581 61.3266 93.2963 64.2381 93.3398C65.3656 93.2884 66.9063 92.3089 67.9566 91.8466L87.5226 83.2516L87.5187 83.2556C88.1288 82.904 88.5652 82.3076 88.7196 81.6084C88.874 80.9133 88.7312 80.1825 88.3296 79.5979C87.399 78.3537 85.7347 77.9666 84.3678 78.6736L64.698 87.3082C64.1265 87.3833 63.5511 87.3912 62.9797 87.3359C62.8406 87.3319 62.7016 87.3003 62.5742 87.245C62.0992 87.3556 61.6088 87.3833 61.1262 87.3201L47.7613 85.6176C47.6841 85.6058 47.6068 85.59 47.5335 85.5663C45.931 85.0686 43.3361 86.1548 41.4131 86.376L41.4169 86.3721C40.8107 86.4432 40.2701 85.9968 40.2006 85.3767C40.1349 84.7605 40.5713 84.2076 41.1737 84.1364C41.8726 84.0416 42.5599 83.8994 43.2395 83.7137C44.8033 83.1884 46.4676 83.0738 48.0855 83.3859L61.4042 85.08ZM57.4192 18.4765L64.4394 21.5969C62.7982 18.4488 60.1146 15.0006 56.6701 15.0006C53.6698 15.0006 50.8625 17.6549 48.7001 21.9999L56.5427 18.4765H56.5466C56.8246 18.3541 57.1412 18.3541 57.4192 18.4765ZM67.5052 22.9636L79.3873 28.2408C79.8121 28.4304 80.0747 28.8688 80.0476 29.3428L80.009 33.8102C83.2372 35.8997 86.0406 38.9411 86.0406 42.7923C86.0406 46.2604 83.7315 49.4045 79.8392 51.8811L79.8044 55.7244C79.8006 56.1628 79.5457 56.5578 79.1557 56.7395L67.7679 61.9534C67.6636 62.06 64.0609 72.8276 56.6696 72.8276C49.4526 72.8276 45.8186 62.4428 45.7375 62.3568L34.0027 56.7361C33.6088 56.5504 33.3617 56.1436 33.3733 55.7012L33.3617 51.7948C29.5581 49.3339 27.3108 46.2214 27.3108 42.7969C27.3108 38.9536 30.1026 35.92 33.3115 33.8305L33.3037 29.7265L33.2999 29.7226C33.2651 29.2328 33.547 28.7746 33.9911 28.5968L45.6834 23.3553C45.7645 23.2644 49.4135 12.75 56.6689 12.75C61.8394 12.75 65.4769 18.0666 67.5042 22.965L67.5052 22.9636ZM64.7713 63.3239L56.5272 67.0961C56.226 67.2344 55.8785 67.2265 55.5811 67.0724L48.8275 63.8375C52.0479 70.1258 56.8632 72.9855 61.5469 68.1468C62.8636 66.7249 63.9526 65.0975 64.7712 63.3279L64.7713 63.3239ZM44.6726 59.3661C44.3366 58.2878 44.0316 57.162 43.7651 55.9929C40.927 55.3372 38.1738 54.3497 35.5595 53.0501V55.0014L44.6726 59.3661ZM43.267 53.5557C42.1935 47.3898 42.0429 41.0939 42.8268 34.8843L35.4977 31.4044L35.5518 50.5107C37.9883 51.8497 40.5755 52.8727 43.2592 53.556L43.267 53.5557ZM43.1743 32.5697C43.5296 30.4327 44.0238 28.3275 44.6571 26.2616L37.0655 29.6704L43.1743 32.5697ZM66.2772 24.8634C66.2386 24.8476 66.1961 24.8278 66.1575 24.8081L56.9905 20.7357L47.4025 25.0372H47.3987C46.4063 27.7943 45.6842 30.6461 45.244 33.5493L55.8479 38.5855L76.2245 29.2874L66.2772 24.8634ZM44.923 35.8761H44.9269C44.2318 41.9511 44.4596 48.1013 45.6065 54.1047C48.6956 54.7367 51.8311 55.0961 54.9821 55.1751V40.6475L44.923 35.8761ZM46.151 56.5022C46.5062 57.9241 46.9426 59.3225 47.4523 60.693L54.9782 64.2993L54.9821 57.4343C52.0204 57.3553 49.0663 57.0434 46.151 56.5022ZM79.9844 36.5041L79.8686 49.1641C85.4059 45.0166 84.873 40.2451 79.9844 36.5041ZM33.3496 49.065L33.3149 36.5435C28.5228 40.2366 27.9551 44.945 33.3496 49.065ZM77.6367 53.1294C72.3774 55.7838 65.0913 57.3913 57.183 57.4545V64.3393L77.6219 54.9819L77.6367 53.1294ZM57.1791 55.2031C64.9946 55.136 72.4548 53.5086 77.6565 50.5896L77.8341 31.0142L57.1758 40.4387L57.1791 55.2031ZM80.3868 77.9709L83.5029 76.6002H83.5068C84.6304 76.0828 85.8932 75.9525 87.0979 76.225C88.6425 76.6082 89.9399 77.6865 90.6195 79.1598C91.6003 81.4902 90.6234 84.1999 88.3953 85.3176L68.8294 93.9127C67.3196 94.5723 66.2461 95.4137 64.381 95.5795C63.6396 95.6467 56.5732 95.3188 55.3684 95.2596C50.642 95.0384 45.8036 94.8093 40.4821 94.9554L40.262 95.0226L26.5422 103.377C25.9244 103.748 25.183 103.847 24.4918 103.653C23.8006 103.456 23.2175 102.982 22.8739 102.342L13.367 85.7442C12.6449 84.4921 13.0195 82.8766 14.2166 82.0905C14.9888 81.5849 16.0778 80.8187 17.3211 79.9496C22.5804 76.2644 30.5654 70.6791 33.9175 70.9636V70.9596C35.7015 70.7226 37.4971 70.6318 39.2965 70.6792C42.5092 70.8648 45.6486 71.726 48.5138 73.219C50.9464 74.3644 53.4564 75.5376 62.1564 76.7778L74.1196 70.3394C76.5022 68.9451 79.5334 69.7706 80.9312 72.188C81.9584 74.0405 81.7421 76.3552 80.3867 77.9747L80.3868 77.9709ZM64.7977 77.888C66.5469 79.3218 67.13 81.7826 66.2148 83.8761L78.1118 76.9992H78.1156C79.0231 76.4186 79.5057 75.3324 79.3397 74.2461C79.1737 73.1599 78.3937 72.279 77.3511 72.0065C76.602 71.8367 75.8181 71.9473 75.1462 72.3225L64.7977 77.888Z" fill="#151946"/>
<path d="M61.4043 85.08C61.5896 85.0642 61.7981 85.0563 62.0144 85.0563C62.4778 84.9536 62.9064 84.7206 63.2539 84.3888C65.3314 82.4613 64.478 79.3724 62.0414 79.0287C52.8705 77.7371 50.2018 76.4771 47.6039 75.2605C42.5493 72.8826 39.7072 72.5547 34.0462 73.2105C33.9536 73.2184 33.8609 73.2184 33.7682 73.2065C31.3587 72.8432 23.6279 78.2624 18.5577 81.8016C17.3413 82.6508 16.2833 83.3934 15.4106 83.9701H15.4145C15.206 84.1083 15.1403 84.3887 15.2639 84.606L24.8016 101.267C24.9175 101.484 25.1762 101.567 25.3924 101.461C29.9257 98.6129 34.575 95.8677 39.1429 93.0909C39.5329 92.8539 39.9808 92.7236 40.4365 92.7117C45.8502 92.5656 50.7122 92.7947 55.4611 93.0198C58.4151 93.1581 61.3266 93.2963 64.2382 93.3398C65.3657 93.2884 66.9064 92.3089 67.9567 91.8467L87.5226 83.2516L87.5188 83.2556C88.1289 82.904 88.5652 82.3076 88.7197 81.6085C88.8741 80.9133 88.7312 80.1825 88.3297 79.5979C87.399 78.3537 85.7348 77.9666 84.3678 78.6737L64.6981 87.3082C64.1266 87.3833 63.5512 87.3912 62.9797 87.3359C62.8407 87.3319 62.7017 87.3003 62.5743 87.245C62.0993 87.3556 61.6089 87.3833 61.1263 87.3201L47.7614 85.6177C47.6841 85.6058 47.6069 85.59 47.5335 85.5663C45.931 85.0686 43.3361 86.1549 41.4132 86.376L41.417 86.3721C40.8108 86.4432 40.2701 85.9969 40.2006 85.3767C40.135 84.7605 40.5713 84.2076 41.1737 84.1364C41.8726 84.0416 42.5599 83.8994 43.2395 83.7138C44.8034 83.1884 46.4677 83.0739 48.0856 83.3859L61.4043 85.08ZM64.7977 77.888C66.5469 79.3218 67.1301 81.7827 66.2149 83.8761L78.1118 76.9993H78.1157C79.0231 76.4186 79.5058 75.3324 79.3398 74.2461C79.1738 73.1599 78.3937 72.2791 77.3512 72.0065C76.6021 71.8367 75.8182 71.9473 75.1463 72.3225L64.7977 77.888Z" fill="white"/>
<path d="M77.6367 53.1294C72.3774 55.7838 65.0912 57.3913 57.183 57.4545V64.3393L77.6218 54.9819L77.6367 53.1294ZM57.1791 55.2031C64.9946 55.136 72.4548 53.5086 77.6564 50.5896L77.8341 31.0142L57.1758 40.4387L57.1791 55.2031Z" fill="#78CAB9"/>
<path d="M44.6741 59.366C44.3382 58.2877 44.0331 57.1619 43.7667 55.9928C40.9285 55.3371 38.1754 54.3496 35.5611 53.05V55.0013L44.6741 59.366ZM43.2685 53.5556C42.1951 47.3898 42.0444 41.0938 42.8283 34.8842L35.4993 31.4043L35.5533 50.5106C37.9899 51.8496 40.577 52.8726 43.2608 53.5559L43.2685 53.5556ZM44.9246 35.876H44.9284C44.2334 41.951 44.4612 48.1012 45.608 54.1046C48.6972 54.7366 51.8327 55.096 54.9836 55.175V40.6474L44.9246 35.876ZM46.1525 56.5021C46.5078 57.924 46.9441 59.3224 47.4538 60.693L54.9798 64.2992L54.9836 57.4342C52.0219 57.3552 49.0679 57.0433 46.1525 56.5021Z" fill="#639C90"/>
<path d="M43.1759 32.5698C43.5312 30.4329 44.0255 28.3276 44.6587 26.2617L37.0671 29.6705L43.1759 32.5698ZM66.2789 24.8635C66.2402 24.8477 66.1978 24.8279 66.1592 24.8082L56.9921 20.7358L47.4042 25.0373H47.4003C46.4079 27.7944 45.6858 30.6462 45.2456 33.5494L55.8496 38.5856L76.2261 29.2875L66.2789 24.8635Z" fill="#78CAB9"/>
<defs>
<filter id="filter0_d_3211_25361" x="0.5" y="0" width="103" height="103" filterUnits="userSpaceOnUse" color-interpolation-filters="sRGB">
<feFlood flood-opacity="0" result="BackgroundImageFix"/>
<feColorMatrix in="SourceAlpha" type="matrix" values="0 0 0 0 0 0 0 0 0 0 0 0 0 0 0 0 0 0 127 0" result="hardAlpha"/>
<feOffset dy="3"/>
<feGaussianBlur stdDeviation="3"/>
<feColorMatrix type="matrix" values="0 0 0 0 0.533333 0 0 0 0 0.533333 0 0 0 0 0.611765 0 0 0 0.12 0"/>
<feBlend mode="normal" in2="BackgroundImageFix" result="effect1_dropShadow_3211_25361"/>
<feBlend mode="normal" in="SourceGraphic" in2="effect1_dropShadow_3211_25361" result="shape"/>
</filter>
</defs>
</svg>
