<svg width="105" height="107" viewBox="0 0 105 107" fill="none" xmlns="http://www.w3.org/2000/svg">
<g filter="url(#filter0_d_3171_8605)">
<circle cx="52.6667" cy="48.5" r="45.5" fill="#EAF5FF"/>
</g>
<path d="M91.3331 53.2143L81.8854 45.5768L80.9677 37.6558C80.9189 37.2387 80.5999 36.9118 80.1964 36.8617L72.6918 35.9174L63.3125 26.0244L63.3092 26.0211C63.2604 25.9711 63.2083 25.9277 63.1497 25.891C63.1335 25.881 63.1172 25.8743 63.1009 25.8643C63.0586 25.8409 63.0131 25.8209 62.9675 25.8042C62.9415 25.7942 62.9187 25.7876 62.8959 25.7809C62.8796 25.7775 62.8633 25.7675 62.8438 25.7642C62.8145 25.7575 62.7852 25.7575 62.756 25.7575C62.7332 25.7542 62.7136 25.7509 62.6909 25.7509C62.6225 25.7509 62.5542 25.7542 62.4891 25.7675H62.4858L52.6675 27.973L42.8491 25.7675H42.8458C42.7808 25.7542 42.7124 25.7475 42.6441 25.7509C42.6213 25.7509 42.6018 25.7542 42.579 25.7575C42.5497 25.7609 42.5204 25.7609 42.4911 25.7642C42.4716 25.7675 42.4553 25.7742 42.439 25.7809C42.4163 25.7876 42.3967 25.7942 42.374 25.8009C42.3251 25.8176 42.2796 25.8376 42.2373 25.8643C42.221 25.8743 42.2047 25.881 42.1885 25.891C42.1299 25.9277 42.0746 25.9711 42.029 26.0211L42.0257 26.0244L32.6464 35.9174L25.1418 36.8617C24.735 36.9117 24.4161 37.2421 24.3705 37.6558L23.4527 45.5768L14.0051 53.2143C13.709 53.4545 13.5918 53.8616 13.7155 54.2286L18.8639 69.3705L17.6436 84.912C17.6306 85.0689 17.6566 85.2324 17.7249 85.3825C17.7314 85.3992 17.7412 85.4125 17.7477 85.4259C17.803 85.5326 17.8811 85.6227 17.969 85.6961L31.8064 97.4939C31.8194 97.5039 31.8357 97.5106 31.8487 97.5206C31.8649 97.534 31.8747 97.5506 31.8942 97.5606C31.9105 97.5706 31.9235 97.5807 31.9398 97.5907L42.3572 103.633C42.4939 103.713 42.6436 103.75 42.7933 103.75C42.9397 103.75 43.0862 103.713 43.2196 103.637C43.4897 103.486 43.6622 103.203 43.6785 102.886L44.0267 95.969L52.3482 99.1388C52.4393 99.1721 52.5467 99.1888 52.6508 99.1888C52.6639 99.1888 52.6769 99.1855 52.6931 99.1821H52.6997C52.7094 99.1821 52.7192 99.1788 52.7289 99.1755C52.8005 99.1688 52.8721 99.1655 52.9372 99.1488C52.9502 99.1454 52.9633 99.1354 52.9763 99.1321C52.9893 99.1287 52.9991 99.1288 53.0121 99.1254L61.3042 95.969L61.6525 102.886C61.6687 103.199 61.8412 103.483 62.1113 103.637C62.2448 103.71 62.3912 103.75 62.5377 103.75C62.6874 103.75 62.8403 103.71 62.9738 103.633L73.3911 97.5906C73.4009 97.584 73.4107 97.5806 73.4204 97.574C73.4399 97.5606 73.453 97.5406 73.4725 97.5273C73.4888 97.5139 73.5083 97.5106 73.5246 97.4972L87.3619 85.696C87.4465 85.626 87.5214 85.5359 87.5767 85.4325C87.5865 85.4158 87.5962 85.3991 87.6027 85.3791C87.6711 85.2289 87.6971 85.0688 87.6841 84.9086L86.467 69.3636L91.6154 54.2218C91.7424 53.8614 91.6292 53.4545 91.3331 53.2143ZM72.5453 37.7291L79.2884 38.5766L80.1085 45.6569L73.5803 50.9654L72.1646 45.9405C72.1093 45.7403 71.9889 45.5668 71.8229 45.4466L67.2895 42.1935L72.5453 37.7291ZM64.751 62.5136L69.395 60.0812L75.3798 65.5532L72.4671 72.0562L64.751 62.5136ZM71.3834 73.5648L65.9941 77.3919C64.201 72.3537 61.7829 65.414 60.888 62.5038L62.8601 63.0276L71.3834 73.5648ZM66.8826 44.126L70.5503 46.7585L72.1417 52.4074L69.1119 57.9027L66.0723 56.9285L66.8826 44.126ZM67.1951 59.1909L63.2572 61.253L61.7211 60.8459L65.2651 58.5736L67.1951 59.1909ZM58.818 60.8091C58.792 60.8926 58.7757 60.976 58.7724 61.0627L57.3633 64.6729L53.7346 57.4426L63.6213 46.1445L58.818 60.8091ZM53.4645 29.6585L61.5484 27.8434L59.4103 39.1611L53.4645 42.818V29.6585ZM53.4645 44.937L60.2695 40.7496L64.3504 42.5847L53.4648 55.0231L53.4645 44.937ZM56.631 67.1855L59.7455 79.4445H52.8039C52.7584 79.4445 52.7128 79.4512 52.6672 79.4579C52.6217 79.4512 52.5761 79.4445 52.5306 79.4445H45.589L48.7034 67.1855L52.6673 59.2878L56.631 67.1855ZM58.8017 81.2622L52.6672 87.7619L46.5327 81.2622H52.5305C52.576 81.2622 52.6216 81.2555 52.6672 81.2488C52.7127 81.2555 52.7583 81.2622 52.8038 81.2622H58.8017ZM42.4708 63.0274L44.443 62.5036C43.5513 65.413 41.1333 72.353 39.3369 77.3917L33.9476 73.5646L42.4708 63.0274ZM32.8674 72.0525L29.9841 65.6096L35.9461 60.0808L40.5868 62.5132L32.8674 72.0525ZM46.5165 60.8083L41.713 46.1473L51.5997 57.4454L47.971 64.6758L46.5619 61.0656C46.5586 60.9755 46.5425 60.8884 46.5165 60.8083ZM51.6909 29.6175V42.7068L45.9209 39.1567L43.7828 27.8389L51.6909 29.6175ZM45.0618 40.7516L51.6909 44.8289V54.8252L40.9836 42.5867L45.0618 40.7516ZM43.6103 60.8442L42.0742 61.2512L38.1396 59.1892L40.0662 58.5719L43.6103 60.8442ZM39.2722 56.9237L36.2228 57.9013L33.193 52.4059L34.7844 46.7571L38.6604 43.9743L39.2722 56.9237ZM26.0464 38.5762L32.7895 37.7287L38.0454 42.1997L33.512 45.4529C33.346 45.573 33.2256 45.7465 33.1703 45.9467L31.7547 50.9716L25.2264 45.6631L26.0464 38.5762ZM16.0522 53.8709L24.2858 47.2144L31.2274 52.8599L28.3115 63.6241L16.0522 53.8709ZM20.6018 69.8635L28.3668 66.3667L31.5496 73.4736L19.5734 83.0096L20.6018 69.8635ZM20.3936 85.4016L38.2082 80.29L32.0249 95.3182L20.3936 85.4016ZM41.9831 101.33L34.9178 97.2295L42.263 95.8014L41.9831 101.33ZM42.5559 93.8929L34.7616 95.411L40.8929 88.3141L43.5517 91.2436L42.5559 93.8929ZM41.7163 86.5524L40.7497 79.362L45.7908 71.4376L43.5843 80.1228C43.5843 80.1295 43.5843 80.1362 43.5811 80.1428C43.5648 80.2096 43.555 80.2796 43.555 80.353V80.3664C43.555 80.4331 43.5648 80.4998 43.5811 80.5632C43.5843 80.5833 43.5941 80.5999 43.5973 80.62C43.6136 80.67 43.6299 80.7167 43.6527 80.7634C43.6624 80.7835 43.6722 80.8001 43.6819 80.8202C43.7112 80.8735 43.747 80.9203 43.7861 80.9636C43.7926 80.9703 43.7958 80.977 43.8024 80.9836L50.9002 88.5043L44.8698 90.0258L41.7163 86.5524ZM52.6252 96.8588L46.4744 91.4969L52.5439 89.9654C52.5862 89.9721 52.6285 89.9787 52.6708 89.9787C52.7229 89.9787 52.775 89.9721 52.827 89.962L59.0461 91.5403L52.6252 96.8588ZM60.4617 90.0254L54.4378 88.4972L61.5291 80.9832C61.5356 80.9765 61.5389 80.9699 61.5454 80.9632C61.5845 80.9198 61.6203 80.8698 61.6496 80.8197C61.6593 80.803 61.6691 80.783 61.6788 80.763C61.7016 80.7163 61.7211 80.6696 61.7342 80.6195C61.7407 80.5995 61.7472 80.5828 61.7504 80.5628C61.7667 80.4994 61.7732 80.4327 61.7765 80.3659V80.3526C61.7765 80.2792 61.7667 80.2091 61.7504 80.1424C61.7504 80.1357 61.7504 80.129 61.7472 80.1224L59.4854 71.2134L64.6274 79.0243L63.6153 86.5484L60.4617 90.0254ZM63.3517 101.329L63.0718 95.8007L70.417 97.2288L63.3517 101.329ZM62.7789 93.8922L61.7831 91.2396L64.4419 88.3101L70.5732 95.407L62.7789 93.8922ZM73.3104 95.317L67.049 80.0957L84.9545 85.3876L73.3104 95.317ZM73.7856 73.4691L76.9683 66.3622L84.7333 69.859L85.765 83.0055L73.7856 73.4691ZM77.0497 63.7094L74.1111 52.8589L81.0527 47.2133L89.1301 53.743L77.0497 63.7094Z" fill="#151946"/>
<path d="M72.5452 37.729L79.2883 38.5765L80.1084 45.6568L73.5802 50.9653L72.1645 45.9404C72.1092 45.7402 71.9888 45.5667 71.8228 45.4466L67.2895 42.1934L72.5452 37.729ZM53.4645 29.6584L61.5483 27.8433L59.4102 39.161L53.4645 42.8179V29.6584ZM51.6909 29.6174V42.7067L45.9209 39.1566L43.7827 27.8389L51.6909 29.6174ZM26.0464 38.5761L32.7895 37.7286L38.0454 42.1997L33.512 45.4528C33.346 45.573 33.2256 45.7465 33.1703 45.9466L31.7546 50.9715L25.2264 45.6631L26.0464 38.5761ZM16.0522 53.8708L24.2858 47.2143L31.2274 52.8598L28.3115 63.6241L16.0522 53.8708ZM20.6018 69.8634L28.3668 66.3666L31.5496 73.4735L19.5734 83.0095L20.6018 69.8634ZM20.3936 85.4016L38.2082 80.2899L32.0249 95.3181L20.3936 85.4016ZM41.9831 101.33L34.9178 97.2294L42.263 95.8013L41.9831 101.33ZM42.5559 93.8928L34.7616 95.411L40.8929 88.314L43.5517 91.2436L42.5559 93.8928ZM63.3516 101.329L63.0717 95.8006L70.4169 97.2287L63.3516 101.329ZM62.7789 93.8922L61.783 91.2395L64.4418 88.31L70.5731 95.4069L62.7789 93.8922ZM73.3103 95.3169L67.0489 80.0956L84.9544 85.3875L73.3103 95.3169ZM73.7855 73.469L76.9683 66.3621L84.7332 69.8589L85.7649 83.0054L73.7855 73.469ZM77.0497 63.7093L74.111 52.8588L81.0526 47.2133L89.1299 53.743L77.0497 63.7093Z" fill="#639C90"/>
<path d="M64.7522 62.5135L69.3962 60.0811L75.381 65.5531L72.4684 72.0561L64.7522 62.5135ZM71.3846 73.5648L65.9953 77.3919C64.2022 72.3536 61.7841 65.4139 60.8892 62.5037L62.8614 63.0276L71.3846 73.5648ZM66.8839 44.1259L70.5515 46.7584L72.1429 52.4073L69.1131 57.9027L66.0736 56.9284L66.8839 44.1259ZM67.1963 59.1908L63.2584 61.2529L61.7223 60.8458L65.2663 58.5735L67.1963 59.1908ZM58.8192 60.809C58.7932 60.8925 58.7769 60.9759 58.7737 61.0626L57.3645 64.6729L53.7359 57.4425L63.6225 46.1444L58.8192 60.809ZM53.4657 44.9369L60.2707 40.7495L64.3517 42.5846L53.4661 55.023L53.4657 44.9369ZM56.6323 67.1854L59.7467 79.4444H52.8052C52.7596 79.4444 52.714 79.4511 52.6685 79.4578C52.6229 79.4511 52.5774 79.4444 52.5318 79.4444H45.5902L48.7047 67.1854L52.6685 59.2877L56.6323 67.1854ZM58.803 81.2621L52.6684 87.7618L46.5339 81.2621H52.5317C52.5773 81.2621 52.6229 81.2554 52.6684 81.2487C52.714 81.2554 52.7595 81.2621 52.8051 81.2621H58.803ZM42.4721 63.0273L44.4443 62.5035C43.5526 65.4129 41.1345 72.3529 39.3382 77.3916L33.9488 73.5645L42.4721 63.0273ZM32.8687 72.0525L29.9854 65.6095L35.9473 60.0807L40.5881 62.5131L32.8687 72.0525ZM46.5178 60.8082L41.7143 46.1473L51.601 57.4453L47.9723 64.6757L46.5632 61.0655C46.5599 60.9754 46.5438 60.8883 46.5178 60.8082ZM45.063 40.7515L51.6922 44.8288V54.8251L40.9849 42.5866L45.063 40.7515ZM43.6116 60.8441L42.0755 61.2511L38.1409 59.1891L40.0675 58.5718L43.6116 60.8441ZM39.2735 56.9236L36.2241 57.9012L33.1943 52.4058L34.7857 46.757L38.6617 43.9743L39.2735 56.9236ZM41.7176 86.5523L40.751 79.3619L45.792 71.4375L43.5856 80.1227C43.5856 80.1294 43.5856 80.1361 43.5823 80.1427C43.5661 80.2095 43.5563 80.2795 43.5563 80.3529V80.3663C43.5563 80.433 43.5661 80.4997 43.5823 80.5631C43.5856 80.5832 43.5953 80.5998 43.5986 80.6199C43.6149 80.6699 43.6311 80.7166 43.6539 80.7633C43.6637 80.7833 43.6734 80.8 43.6832 80.8201C43.7125 80.8734 43.7483 80.9202 43.7874 80.9635C43.7939 80.9702 43.7971 80.9769 43.8036 80.9835L50.9014 88.5042L44.871 90.0257L41.7176 86.5523ZM52.6265 96.8587L46.4757 91.4968L52.5451 89.9653C52.5875 89.972 52.6298 89.9786 52.6721 89.9786C52.7241 89.9786 52.7762 89.972 52.8283 89.9619L59.0474 91.5402L52.6265 96.8587ZM60.463 90.0253L54.4391 88.4971L61.5304 80.9831C61.5369 80.9764 61.5401 80.9698 61.5466 80.9631C61.5857 80.9197 61.6215 80.8697 61.6508 80.8196C61.6605 80.8029 61.6703 80.7829 61.6801 80.7629C61.7029 80.7162 61.7224 80.6695 61.7354 80.6194C61.7419 80.5994 61.7484 80.5827 61.7517 80.5627C61.7679 80.4993 61.7745 80.4326 61.7777 80.3658V80.3525C61.7777 80.2791 61.7679 80.209 61.7517 80.1423C61.7517 80.1356 61.7517 80.1289 61.7484 80.1223L59.4867 71.2133L64.6286 79.0242L63.6165 86.5483L60.463 90.0253Z" fill="white"/>
<path d="M58.8042 81.2621L52.6697 87.7618L46.5352 81.2621H52.533C52.5785 81.2621 52.6241 81.2555 52.6697 81.2488C52.7152 81.2555 52.7608 81.2621 52.8063 81.2621H58.8042Z" fill="#78CAB9"/>
<path d="M67.1975 59.1908L63.2597 61.2528L61.7235 60.8458L65.2676 58.5735L67.1975 59.1908ZM43.6128 60.844L42.0767 61.2511L38.1421 59.189L40.0687 58.5718L43.6128 60.844Z" fill="#78CAB9"/>
<defs>
<filter id="filter0_d_3171_8605" x="1.16675" y="0" width="103" height="103" filterUnits="userSpaceOnUse" color-interpolation-filters="sRGB">
<feFlood flood-opacity="0" result="BackgroundImageFix"/>
<feColorMatrix in="SourceAlpha" type="matrix" values="0 0 0 0 0 0 0 0 0 0 0 0 0 0 0 0 0 0 127 0" result="hardAlpha"/>
<feOffset dy="3"/>
<feGaussianBlur stdDeviation="3"/>
<feColorMatrix type="matrix" values="0 0 0 0 0.533333 0 0 0 0 0.533333 0 0 0 0 0.611765 0 0 0 0.12 0"/>
<feBlend mode="normal" in2="BackgroundImageFix" result="effect1_dropShadow_3171_8605"/>
<feBlend mode="normal" in="SourceGraphic" in2="effect1_dropShadow_3171_8605" result="shape"/>
</filter>
</defs>
</svg>
