<svg width="104" height="116" viewBox="0 0 104 116" fill="none" xmlns="http://www.w3.org/2000/svg">
<g filter="url(#filter0_d_3139_6584)">
<circle cx="52" cy="48.5" r="45.5" fill="#EAF5FF"/>
</g>
<path fill-rule="evenodd" clip-rule="evenodd" d="M39.3185 55.3778C40.0494 55.3778 40.7716 55.3841 41.4852 55.3968C42.6152 50.1128 44.9945 45.1762 48.4238 41.0004C41.7105 40.3781 40.5041 37.9601 38.8904 34.7161C37.6391 31.8418 35.6062 29.3765 33.0229 27.6006C32.8385 27.4785 32.6979 27.3007 32.6214 27.0931C32.5449 26.8856 32.5366 26.6591 32.5977 26.4465C32.6588 26.2339 32.7861 26.0463 32.961 25.9109C33.136 25.7756 33.3495 25.6996 33.5707 25.6939C36.9678 25.4921 40.3762 25.7923 43.6857 26.5849C48.9265 28.0045 52.3811 31.2338 52.1072 36.875L52.1506 36.8317C52.9535 34.4808 54.0989 32.2613 55.5497 30.2449C60.5808 23.4752 67.9181 22.9509 75.57 25.6341C80.9411 27.695 85.9794 30.5356 90.5229 34.0643C90.7159 34.189 90.8622 34.3741 90.939 34.5907C91.0157 34.8072 91.0186 35.0432 90.9471 35.2615C90.8757 35.4799 90.7339 35.6685 90.5439 35.7978C90.3539 35.9271 90.1265 35.9898 89.8971 35.9762C82.1958 36.0681 77.9291 38.4367 74.3437 40.4275C68.7319 43.5476 64.6516 45.8079 53.1967 38.7106C52.3447 39.5851 51.5292 40.4847 50.7595 41.4077C55.9596 39.9734 59.78 42.5587 62.3731 47.0342C63.9894 50.0193 65.1575 53.226 65.8398 56.5512C65.8978 56.7639 65.8867 56.9895 65.8082 57.1954C65.7297 57.4014 65.5877 57.5771 65.4029 57.6971C65.218 57.8172 64.9998 57.8754 64.7797 57.8634C64.5596 57.8514 64.3491 57.7697 64.1784 57.6303C56.0966 50.8571 51.2432 56.9369 47.2642 46.2854C45.5387 49.1146 44.2957 52.211 43.586 55.448C48.2219 55.5677 52.8403 56.0666 57.3949 56.9395C62.4415 57.9917 65.624 59.6496 65.624 61.6768V68.9526L65.6179 69.1008C68.855 69.6477 75.8682 71.0239 75.8682 74.2142V81.4943C75.8682 84.6646 68.5014 86.1675 64.7989 86.7421C65.0507 86.971 65.2535 87.2485 65.3953 87.5578C65.5371 87.8672 65.6149 88.202 65.624 88.5422V95.8179C65.624 104.23 13 104.225 13 95.8179V88.5465C13 85.1994 20.7585 83.8075 24.1394 83.2857C23.8749 83.0659 23.6587 82.7936 23.5046 82.486C23.3505 82.1784 23.2618 81.8422 23.2442 81.4986V74.2229C23.2442 74.1735 23.2442 74.1232 23.2494 74.0738C22.5924 73.9629 20.6259 73.6015 20.014 73.4203C15.6919 72.3682 13.0555 70.8341 13.0052 69.008C13.0052 68.9907 13.0052 68.9742 13.0052 68.9569V61.6811C13.0052 59.654 16.1885 57.996 21.2387 56.9438C27.2008 55.8347 33.257 55.3102 39.3211 55.3778H39.3185ZM48.9569 38.9672C46.8682 34.2654 43.2012 31.3837 37.9422 29.2707C42.2245 34.3607 40.3628 38.2435 48.9569 38.9672ZM40.2675 28.0192C44.6009 30.0126 47.9064 32.6768 50.0463 36.5058C50.1893 30.7276 45.3385 28.7057 40.2675 28.0192ZM51.1513 43.4557C55.4058 44.5356 58.8301 47.0386 61.8773 50.7176C59.9082 45.9942 56.6989 41.8289 51.1513 43.4557ZM61.2663 53.2839C57.8681 48.7494 54.1344 45.9465 49.0539 45.1423C51.9712 53.2605 55.2403 50.4637 61.2663 53.2839ZM83.8494 32.0155C75.5397 26.8735 64.0579 22.2653 57.2059 31.4825C56.4697 32.4849 55.8277 33.5531 55.288 34.6736C58.9685 32.4447 63.0864 31.0356 67.3608 30.5421C71.9542 29.9979 77.3363 30.3593 83.8494 32.0155ZM54.9318 37.3499C70.4107 46.6624 70.4471 36.6765 84.5774 34.3555C77.7653 32.4896 72.2472 32.0554 67.6061 32.6048C63.0609 33.1407 58.7129 34.7688 54.9335 37.3499H54.9318ZM40.3559 94.8499V100.05C41.8067 100.038 43.2238 100.001 44.6026 99.939V94.7389C43.2246 94.7996 41.8076 94.8377 40.3559 94.8499ZM38.2759 100.05V94.8499C36.8268 94.8377 35.408 94.7996 34.0291 94.7389V99.939C35.4037 100.001 36.8216 100.038 38.2759 100.05ZM26.7369 92.0765C26.7811 92.0791 26.8251 92.0843 26.8686 92.0921C31.0002 92.5634 35.1558 92.7926 39.3142 92.7785C41.4653 92.7785 43.5505 92.723 45.5395 92.6173C45.5638 92.6173 45.5881 92.6173 45.6132 92.6173C47.7972 92.5003 49.8643 92.3226 51.7666 92.0973C51.8036 92.0904 51.8409 92.0858 51.8784 92.0834C53.9214 91.8426 55.9509 91.4983 57.9591 91.0521C58.0083 91.0364 58.0587 91.0248 58.1099 91.0174C61.4986 90.2331 63.5474 89.3638 63.5474 88.5578C63.5474 88.4468 63.4235 88.2882 63.1903 88.0898C62.7038 87.7106 62.1642 87.4052 61.5887 87.1832C59.8276 87.3799 57.9487 87.5351 55.9726 87.6425C55.9449 87.6425 55.9163 87.6425 55.886 87.6425C53.8588 87.7509 51.7372 87.8089 49.5523 87.8089C43.0714 87.9052 36.5997 87.2879 30.2539 85.9681C29.1725 85.7128 28.1093 85.3856 27.0714 84.9888C23.9525 85.2892 20.8736 85.9145 17.8846 86.8547C16.1001 87.4831 15.0757 88.0724 15.0757 88.5534C15.0757 89.7018 19.1283 90.7375 21.6512 91.2627C23.1627 91.5773 24.8701 91.852 26.7343 92.0782L26.7369 92.0765ZM27.7154 94.2727V99.4641C29.0622 99.6114 30.4836 99.7327 31.9621 99.8272V94.6271C30.4888 94.5344 29.0665 94.4139 27.7154 94.2701V94.2727ZM25.6353 99.2127V94.0196C24.1048 93.8168 22.6834 93.581 21.3886 93.3167V98.4778C22.7198 98.7612 24.0753 98.9978 25.6353 99.2058V99.2127ZM63.5466 91.2037C62.2078 91.9304 60.7802 92.4802 59.2998 92.8392V97.9873C61.9692 97.2835 63.5466 96.5286 63.5466 95.8205V91.1968V91.2037ZM57.2276 93.3236C55.938 93.5836 54.5157 93.8237 52.9852 94.0265V99.2127C54.5383 99.0013 55.8964 98.7681 57.2276 98.4847V93.3167V93.3236ZM50.9095 94.277C49.5592 94.4209 48.1404 94.537 46.6628 94.6332V99.8333C48.1413 99.7388 49.5601 99.6175 50.9095 99.4701V94.2787V94.277ZM19.325 92.8322C17.847 92.4727 16.4219 91.9229 15.0852 91.1968V95.8223C15.0852 96.5286 16.6583 97.2835 19.3276 97.989V92.8322H19.325ZM27.1503 82.8949C27.3912 82.8963 27.624 82.9822 27.8081 83.1375C28.3281 83.3109 28.9131 83.4903 29.5683 83.6636V78.5086C28.0894 78.1492 26.6634 77.5995 25.3259 76.8732V81.4986C25.3259 81.9528 25.9768 82.4269 27.1503 82.8949ZM50.6001 80.521V85.7211C52.05 85.709 53.4679 85.6708 54.8468 85.6102V80.4101C53.4697 80.4708 52.0518 80.5089 50.6001 80.521ZM48.52 85.7211V80.521C47.0718 80.5089 45.6548 80.4716 44.2733 80.411V85.611C45.6487 85.6717 47.0658 85.709 48.52 85.7211ZM36.9793 77.7476C37.0239 77.75 37.0682 77.7555 37.1119 77.7641C39.0186 77.9912 41.0779 78.168 43.2584 78.2841C43.2836 78.2841 43.3078 78.2841 43.3321 78.2841C45.3255 78.389 47.4055 78.4453 49.5575 78.4453C55.4792 78.5057 61.3931 77.9975 67.2178 76.9278C69.739 76.4026 73.7933 75.3677 73.7933 74.2177C73.7933 73.8207 73.0133 73.3189 71.6362 72.7634C69.3033 71.9233 66.8866 71.3375 64.428 71.0161C62.8541 72.2858 60.0547 73.1447 57.4009 73.6977C48.0035 75.6511 34.5856 75.6511 25.3554 74.3962C25.7272 75.4691 29.4288 76.4216 31.9014 76.9364C33.4129 77.251 35.1203 77.5258 36.9837 77.7511L36.9793 77.7476ZM37.9656 79.943V85.1344C39.3107 85.2808 40.7295 85.403 42.2123 85.4966V80.2966C40.739 80.2038 39.3202 80.0842 37.9656 79.9404V79.943ZM35.8856 84.883V79.6959C34.355 79.4931 32.9328 79.2574 31.6388 78.9931V84.1533C32.9709 84.4376 34.3255 84.6742 35.8856 84.883ZM73.7959 76.874C72.4573 77.6009 71.0297 78.1504 69.5492 78.5086V83.6645C72.2186 82.9607 73.7959 82.2059 73.7959 81.4978V76.874ZM67.4796 78.9896C66.1891 79.2496 64.7677 79.4897 63.2372 79.6925V84.883C64.7894 84.6716 66.1492 84.4376 67.4796 84.1542V78.9896ZM61.1606 79.943C59.8103 80.0868 58.3924 80.203 56.9138 80.2992V85.4992C58.3924 85.4056 59.8112 85.2834 61.1606 85.137V79.943ZM63.1964 69.5575C63.3698 69.0912 63.5544 69.2438 63.5544 68.956V64.3314C62.2155 65.0581 60.788 65.6079 59.3076 65.9669V71.1219C60.6897 70.853 62.0079 70.3235 63.1921 69.5619L63.1964 69.5575ZM24.8163 72.2234L25.6431 72.3404V67.1551C24.1126 66.9514 22.6912 66.7157 21.3964 66.4522V71.6124L24.812 72.2234H24.8163ZM40.3568 67.9767V73.1768C41.8067 73.1646 43.2238 73.1265 44.6035 73.065V67.8649C43.2255 67.9256 41.8085 67.9628 40.3568 67.975V67.9767ZM38.2767 73.1768V67.9767C36.8303 67.9646 35.4167 67.9273 34.0361 67.8666L34.0655 73.0667C35.4306 73.1274 36.8389 73.1646 38.2767 73.1768ZM26.7421 65.2094C26.7857 65.2119 26.8291 65.2171 26.8721 65.225C31.0039 65.6965 35.1598 65.926 39.3185 65.9123C45.2402 65.9683 51.1537 65.4598 56.9789 64.3938C59.5 63.8686 63.5544 62.8338 63.5544 61.6846C63.5544 60.791 61.041 59.8212 56.9789 58.9753C47.2625 56.9508 31.3745 56.9508 21.6581 58.9753C17.5986 59.8178 15.0852 60.7893 15.0852 61.6811C15.0852 62.8295 19.1378 63.8652 21.6607 64.3904C23.1722 64.7058 24.8805 64.9797 26.7447 65.2059L26.7421 65.2094ZM27.7197 67.4055V72.5978C29.0761 72.7452 30.5078 72.8682 32.0002 72.9627L31.9716 67.7626C30.494 67.6699 29.0726 67.5503 27.7197 67.4055ZM57.2363 66.4522C55.9458 66.7122 54.5235 66.9514 52.9895 67.1551V72.3404C54.5417 72.1298 55.9024 71.8958 57.2363 71.6124V66.4522ZM50.9173 67.4055C49.567 67.5503 48.1482 67.6656 46.6706 67.7626V72.9627C48.1491 72.8682 49.5679 72.7469 50.9173 72.6004V67.4021V67.4055ZM19.325 65.9669C17.8471 65.6076 16.4219 65.0581 15.0852 64.3323V68.9569C15.0852 69.6632 16.6583 70.4181 19.3276 71.1236L19.325 65.9669Z" fill="#151946"/>
<path fill-rule="evenodd" clip-rule="evenodd" d="M40.3559 94.85V100.05C41.8067 100.038 43.2237 100.001 44.6026 99.9391V94.739C43.2246 94.7997 41.8076 94.8378 40.3559 94.85ZM38.2759 100.05V94.85C36.8268 94.8378 35.408 94.7997 34.0291 94.739V99.9391C35.4037 100.001 36.8216 100.038 38.2759 100.05ZM27.7153 94.2728V99.4642C29.0622 99.6115 30.4835 99.7329 31.9621 99.8273V94.6272C30.4887 94.5345 29.0665 94.414 27.7153 94.2702V94.2728ZM25.6353 99.2129V94.0197C24.1048 93.8169 22.6834 93.5812 21.3886 93.3168V98.4779C22.7198 98.7613 24.0753 98.9979 25.6353 99.2059V99.2129ZM63.5465 91.2039C62.2077 91.9305 60.7802 92.4803 59.2998 92.8393V97.9874C61.9692 97.2836 63.5465 96.5287 63.5465 95.8207V91.1969V91.2039ZM57.2276 93.3238C55.9379 93.5838 54.5157 93.8238 52.9852 94.0266V99.2129C54.5383 99.0014 55.8963 98.7682 57.2276 98.4848V93.3168V93.3238ZM50.9095 94.2771C49.5592 94.421 48.1404 94.5371 46.6627 94.6333V99.8334C48.1413 99.7389 49.56 99.6176 50.9095 99.4703V94.2788V94.2771ZM19.325 92.8323C17.847 92.4728 16.4218 91.9231 15.0852 91.1969V95.8224C15.0852 96.5287 16.6582 97.2836 19.3276 97.9891V92.8323H19.325ZM27.1503 82.895C27.3912 82.8964 27.624 82.9823 27.8081 83.1377C28.3281 83.311 28.9131 83.4904 29.5683 83.6637V78.5087C28.0894 78.1494 26.6634 77.5996 25.3259 76.8733V81.4988C25.3259 81.9529 25.9768 82.427 27.1503 82.895ZM50.6001 80.5211V85.7212C52.05 85.7091 53.4679 85.671 54.8468 85.6103V80.4102C53.4696 80.4709 52.0517 80.509 50.6001 80.5211ZM48.52 85.7212V80.5211C47.0718 80.509 45.6548 80.4717 44.2733 80.4111V85.6112C45.6487 85.6718 47.0657 85.7091 48.52 85.7212ZM37.9656 79.9431V85.1345C39.3107 85.281 40.7294 85.4032 42.2123 85.4968V80.2967C40.739 80.2039 39.3202 80.0843 37.9656 79.9405V79.9431ZM35.8855 84.8831V79.6961C34.355 79.4933 32.9328 79.2575 31.6388 78.9932V84.1534C32.9709 84.4377 34.3255 84.6743 35.8855 84.8831ZM73.7959 76.8742C72.4573 77.6011 71.0297 78.1505 69.5492 78.5087V83.6646C72.2185 82.9608 73.7959 82.206 73.7959 81.4979V76.8742ZM67.4795 78.9897C66.189 79.2497 64.7677 79.4898 63.2371 79.6926V84.8831C64.7893 84.6717 66.1492 84.4377 67.4795 84.1543V78.9897ZM61.1606 79.9431C59.8103 80.0869 58.3924 80.2031 56.9138 80.2993V85.4994C58.3924 85.4058 59.8111 85.2836 61.1606 85.1371V79.9431ZM63.1964 69.5576C63.3697 69.0914 63.5543 69.2439 63.5543 68.9562V64.3315C62.2155 65.0582 60.788 65.608 59.3076 65.967V71.122C60.6896 70.8531 62.0079 70.3237 63.1921 69.562L63.1964 69.5576ZM24.8163 72.2235L25.6431 72.3405V67.1552C24.1126 66.9515 22.6912 66.7158 21.3964 66.4523V71.6125L24.812 72.2235H24.8163ZM40.3568 67.9768V73.1769C41.8067 73.1648 43.2237 73.1266 44.6035 73.0651V67.865C43.2255 67.9257 41.8084 67.9629 40.3568 67.9751V67.9768ZM38.2767 73.1769V67.9768C36.8302 67.9647 35.4167 67.9274 34.0361 67.8667L34.0655 73.0668C35.4305 73.1275 36.8389 73.1648 38.2767 73.1769ZM27.7197 67.4057V72.5979C29.076 72.7453 30.5078 72.8684 32.0002 72.9628L31.9716 67.7627C30.4939 67.67 29.0726 67.5504 27.7197 67.4057ZM57.2362 66.4523C55.9457 66.7123 54.5235 66.9515 52.9895 67.1552V72.3405C54.5417 72.1299 55.9024 71.8959 57.2362 71.6125V66.4523ZM50.9173 67.4057C49.567 67.5504 48.1482 67.6657 46.6705 67.7627V72.9628C48.1491 72.8684 49.5678 72.747 50.9173 72.6005V67.4022V67.4057ZM19.325 65.967C17.847 65.6077 16.4219 65.0582 15.0852 64.3324V68.957C15.0852 69.6634 16.6582 70.4182 19.3276 71.1237L19.325 65.967Z" fill="#78CAB9"/>
<path fill-rule="evenodd" clip-rule="evenodd" d="M48.9568 38.9671C46.8681 34.2653 43.2012 31.3836 37.9421 29.2707C42.2244 34.3607 40.3628 38.2434 48.9568 38.9671ZM40.2674 28.0192C44.6008 30.0125 47.9064 32.6767 50.0462 36.5057C50.1892 30.7276 45.3384 28.7056 40.2674 28.0192ZM51.1512 43.4556C55.4058 44.5355 58.83 47.0385 61.8773 50.7176C59.9082 45.9941 56.6988 41.8289 51.1512 43.4556ZM61.2663 53.2838C57.868 48.7493 54.1343 45.9465 49.0539 45.1422C51.9711 53.2604 55.2402 50.4636 61.2663 53.2838ZM83.8494 32.0154C75.5396 26.8734 64.0578 22.2653 57.2059 31.4824C56.4697 32.4848 55.8276 33.5531 55.2879 34.6736C58.9685 32.4447 63.0863 31.0355 67.3608 30.5421C71.9542 29.9978 77.3362 30.3592 83.8494 32.0154ZM54.9317 37.3499C70.4106 46.6624 70.447 36.6765 84.5774 34.3555C77.7653 32.4895 72.2471 32.0553 67.606 32.6048C63.0608 33.1407 58.7128 34.7687 54.9334 37.3499H54.9317Z" fill="#639C90"/>
<path fill-rule="evenodd" clip-rule="evenodd" d="M26.7369 92.0766C26.7811 92.0792 26.825 92.0844 26.8686 92.0922C31.0002 92.5635 35.1558 92.7927 39.3141 92.7786C41.4652 92.7786 43.5505 92.7231 45.5395 92.6174C45.5638 92.6174 45.588 92.6174 45.6132 92.6174C47.7972 92.5004 49.8643 92.3227 51.7666 92.0974C51.8036 92.0905 51.8409 92.0859 51.8784 92.0835C53.9214 91.8427 55.9509 91.4985 57.9591 91.0522C58.0083 91.0366 58.0587 91.025 58.1099 91.0175C61.4986 90.2332 63.5474 89.3639 63.5474 88.5579C63.5474 88.4469 63.4235 88.2883 63.1903 88.0899C62.7038 87.7108 62.1642 87.4053 61.5887 87.1833C59.8276 87.3801 57.9487 87.5352 55.9726 87.6427C55.9449 87.6427 55.9163 87.6427 55.886 87.6427C53.8588 87.751 51.7371 87.8091 49.5522 87.8091C43.0714 87.9054 36.5996 87.288 30.2539 85.9682C29.1725 85.7129 28.1093 85.3857 27.0714 84.9889C23.9525 85.2893 20.8735 85.9146 17.8846 86.8548C16.1001 87.4832 15.0757 88.0725 15.0757 88.5535C15.0757 89.7019 19.1283 90.7376 21.6512 91.2628C23.1627 91.5774 24.87 91.8521 26.7343 92.0783L26.7369 92.0766ZM36.9793 77.7478C37.0238 77.7501 37.0681 77.7556 37.1119 77.7642C39.0186 77.9913 41.0778 78.1681 43.2584 78.2842C43.2835 78.2842 43.3078 78.2842 43.3321 78.2842C45.3254 78.3891 47.4055 78.4454 49.5574 78.4454C55.4792 78.5058 61.3931 77.9976 67.2178 76.9279C69.739 76.4027 73.7933 75.3679 73.7933 74.2178C73.7933 73.8208 73.0133 73.319 71.6361 72.7635C69.3033 71.9234 66.8866 71.3376 64.428 71.0163C62.8541 72.2859 60.0547 73.1448 57.4009 73.6978C48.0035 75.6513 34.5855 75.6513 25.3554 74.3963C25.7272 75.4693 29.4288 76.4217 31.9014 76.9366C33.4129 77.2512 35.1203 77.5259 36.9836 77.7512L36.9793 77.7478ZM26.7421 65.2095C26.7857 65.212 26.8291 65.2172 26.8721 65.2251C31.0039 65.6967 35.1598 65.9261 39.3185 65.9124C45.2401 65.9684 51.1536 65.4599 56.9788 64.3939C59.5 63.8687 63.5543 62.8339 63.5543 61.6847C63.5543 60.7912 61.041 59.8213 56.9788 58.9755C47.2625 56.9509 31.3745 56.9509 21.6581 58.9755C17.5986 59.8179 15.0852 60.7894 15.0852 61.6812C15.0852 62.8296 19.1378 63.8653 21.6607 64.3905C23.1722 64.706 24.8804 64.9798 26.7447 65.206L26.7421 65.2095Z" fill="white"/>
<defs>
<filter id="filter0_d_3139_6584" x="0.5" y="0" width="103" height="103" filterUnits="userSpaceOnUse" color-interpolation-filters="sRGB">
<feFlood flood-opacity="0" result="BackgroundImageFix"/>
<feColorMatrix in="SourceAlpha" type="matrix" values="0 0 0 0 0 0 0 0 0 0 0 0 0 0 0 0 0 0 127 0" result="hardAlpha"/>
<feOffset dy="3"/>
<feGaussianBlur stdDeviation="3"/>
<feColorMatrix type="matrix" values="0 0 0 0 0.533333 0 0 0 0 0.533333 0 0 0 0 0.611765 0 0 0 0.12 0"/>
<feBlend mode="normal" in2="BackgroundImageFix" result="effect1_dropShadow_3139_6584"/>
<feBlend mode="normal" in="SourceGraphic" in2="effect1_dropShadow_3139_6584" result="shape"/>
</filter>
</defs>
</svg>
