<svg width="104" height="107" viewBox="0 0 104 107" fill="none" xmlns="http://www.w3.org/2000/svg">
<g filter="url(#filter0_d_3647_20603)">
<circle cx="52" cy="48.5" r="45.5" fill="#EAF5FF"/>
</g>
<path d="M51.9984 78.9032C61.8732 78.9032 69.8782 70.8352 69.8782 60.8829C69.8782 50.9305 61.8732 42.8625 51.9984 42.8625C42.1237 42.8625 34.1187 50.9305 34.1187 60.8829C34.1187 70.8352 42.1237 78.9032 51.9984 78.9032Z" fill="#78CAB9" stroke="#151946" stroke-width="2" stroke-miterlimit="10"/>
<path d="M51.9996 75.4788C59.9978 75.4788 66.4816 68.944 66.4816 60.8829C66.4816 52.8219 59.9978 46.2871 51.9996 46.2871C44.0014 46.2871 37.5176 52.8219 37.5176 60.8829C37.5176 68.944 44.0014 75.4788 51.9996 75.4788Z" stroke="#151946" stroke-width="3" stroke-miterlimit="10" stroke-dasharray="1.01 1.01"/>
<path d="M51.7715 55.2229V53.1521" stroke="#151946" stroke-width="3" stroke-miterlimit="10" stroke-linecap="round" stroke-linejoin="round"/>
<path d="M51.7715 68.3924V66.3215" stroke="#151946" stroke-width="3" stroke-miterlimit="10" stroke-linecap="round" stroke-linejoin="round"/>
<path d="M48.8034 65.5283C48.8034 65.5283 53.6007 68.0435 54.6235 64.1144C55.7264 59.8761 48.923 61.1889 48.8034 57.7246C48.6568 53.5045 54.6235 55.9004 54.6235 55.9004" stroke="#151946" stroke-width="3" stroke-miterlimit="10" stroke-linecap="round" stroke-linejoin="round"/>
<path d="M63.3251 90.3684C63.3251 90.3684 78.3733 75.943 80.9512 80.3132C80.9512 80.3132 81.6842 80.8758 82.7352 85.0197C82.7352 85.0197 72.2171 92.1267 67.986 96.6843C56.8476 108.682 41.1623 104.763 41.1623 104.763C34.2427 104.878 21.3305 92.8825 12.1182 101.756L6.5 87.7384C6.5 87.7384 21.0993 78.1594 25.5391 77.4717C29.9777 76.7807 37.7769 79.754 44.6379 83.6683C51.5 87.5827 57.3618 84.9163 62.0057 88.8931C66.6507 92.87 51.1425 96.3911 47.968 95.7273C44.7924 95.0636 42.0735 92.4301 39.1324 92.7029" fill="white"/>
<path d="M63.3251 90.3684C63.3251 90.3684 78.3733 75.943 80.9512 80.3132C80.9512 80.3132 81.6842 80.8758 82.7352 85.0197C82.7352 85.0197 72.2171 92.1267 67.986 96.6843C56.8476 108.682 41.1623 104.763 41.1623 104.763C34.2427 104.878 21.3305 92.8825 12.1182 101.756L6.5 87.7384C6.5 87.7384 21.0993 78.1594 25.5391 77.4717C29.9777 76.7807 37.7769 79.754 44.6379 83.6683C51.5 87.5827 57.3618 84.9163 62.0057 88.8931C66.6507 92.87 51.1425 96.3911 47.968 95.7273C44.7924 95.0636 42.0735 92.4301 39.1324 92.7029" stroke="#151946" stroke-width="3" stroke-miterlimit="10" stroke-linecap="round" stroke-linejoin="round"/>
<path opacity="0.4" d="M14.6089 98.0788L12.7889 99.1349L8.46639 88.3938L10.0589 87.3538L14.6089 98.0788Z" fill="#C9CCE0"/>
<path d="M16.7542 98.9744L10.8066 85.0071" stroke="#151946" stroke-width="3" stroke-miterlimit="10" stroke-linecap="round" stroke-linejoin="round"/>
<path d="M30.291 92.5381C32.7269 92.3915 34.5098 92.562 34.5098 92.562" stroke="#151946" stroke-width="3" stroke-miterlimit="10" stroke-linecap="round" stroke-linejoin="round"/>
<path d="M40.6736 31.0065C40.6736 31.0065 25.6255 45.4319 23.0487 41.0618C23.0487 41.0618 22.3145 40.5003 21.2646 36.3552C21.2646 36.3552 31.7816 29.2483 36.0128 24.6906C47.1512 12.693 62.8376 16.6119 62.8376 16.6119C69.7572 16.4971 82.6694 28.4924 91.8805 19.6192L97.4987 33.6366C97.4987 33.6366 82.8983 43.2144 78.4585 43.9032C74.021 44.5942 66.2207 41.621 59.3608 37.7066C52.4976 33.7923 46.6358 36.4587 41.9919 32.4818C37.3469 28.5038 52.8562 24.9839 56.0307 25.6476C59.2052 26.3114 61.9252 28.9448 64.8652 28.672" fill="white"/>
<path d="M40.6736 31.0065C40.6736 31.0065 25.6255 45.4319 23.0487 41.0618C23.0487 41.0618 22.3145 40.5003 21.2646 36.3552C21.2646 36.3552 31.7816 29.2483 36.0128 24.6906C47.1512 12.693 62.8376 16.6119 62.8376 16.6119C69.7572 16.4971 82.6694 28.4924 91.8805 19.6192L97.4987 33.6366C97.4987 33.6366 82.8983 43.2144 78.4585 43.9032C74.021 44.5942 66.2207 41.621 59.3608 37.7066C52.4976 33.7923 46.6358 36.4587 41.9919 32.4818C37.3469 28.5038 52.8562 24.9839 56.0307 25.6476C59.2052 26.3114 61.9252 28.9448 64.8652 28.672" stroke="#151946" stroke-width="3" stroke-miterlimit="10" stroke-linecap="round" stroke-linejoin="round"/>
<path d="M87.2422 22.4004L93.1886 36.3688" stroke="#151946" stroke-width="2" stroke-miterlimit="10" stroke-linecap="round" stroke-linejoin="round"/>
<path d="M73.7065 28.8382C71.2707 28.9837 69.4878 28.8143 69.4878 28.8143" stroke="#151946" stroke-width="3" stroke-miterlimit="10" stroke-linecap="round" stroke-linejoin="round"/>
<path d="M89.3745 23.3124L91.1945 22.2563L95.517 32.9974L93.9245 34.0374L89.3745 23.3124Z" fill="#C9CCE0"/>
<defs>
<filter id="filter0_d_3647_20603" x="0.5" y="0" width="103" height="103" filterUnits="userSpaceOnUse" color-interpolation-filters="sRGB">
<feFlood flood-opacity="0" result="BackgroundImageFix"/>
<feColorMatrix in="SourceAlpha" type="matrix" values="0 0 0 0 0 0 0 0 0 0 0 0 0 0 0 0 0 0 127 0" result="hardAlpha"/>
<feOffset dy="3"/>
<feGaussianBlur stdDeviation="3"/>
<feColorMatrix type="matrix" values="0 0 0 0 0.533333 0 0 0 0 0.533333 0 0 0 0 0.611765 0 0 0 0.12 0"/>
<feBlend mode="normal" in2="BackgroundImageFix" result="effect1_dropShadow_3647_20603"/>
<feBlend mode="normal" in="SourceGraphic" in2="effect1_dropShadow_3647_20603" result="shape"/>
</filter>
</defs>
</svg>
