<svg width="104" height="104" viewBox="0 0 104 104" fill="none" xmlns="http://www.w3.org/2000/svg">
<g filter="url(#filter0_d_3647_20698)">
<path d="M51.9998 90.2353C75.6506 90.2353 94.8233 71.0626 94.8233 47.4118C94.8233 23.761 75.6506 4.58826 51.9998 4.58826C28.349 4.58826 9.17627 23.761 9.17627 47.4118C9.17627 71.0626 28.349 90.2353 51.9998 90.2353Z" fill="#EAF5FF"/>
</g>
<path fill-rule="evenodd" clip-rule="evenodd" d="M19.0177 32.7701C15.3143 37.5382 12.964 43.213 12.2082 49.2012H15.4834C16.4515 44.2927 19.0465 39.8552 22.8471 36.6025L19.0177 32.7701ZM61.382 62.242C63.5666 62.2492 65.3337 64.0161 65.3409 66.2004V79.8354C65.3409 82.0197 63.5666 83.7938 61.382 83.7938C59.1937 83.7938 57.4229 82.0197 57.4229 79.8354V66.2004C57.4265 64.0161 59.1937 62.2492 61.382 62.242ZM61.382 65.1208C60.7844 65.128 60.3057 65.6065 60.3022 66.2004V79.8354C60.3022 80.4291 60.7844 80.915 61.382 80.915C61.9757 80.915 62.4616 80.4291 62.4616 79.8354V66.2004C62.4544 65.6065 61.9758 65.1243 61.382 65.1208ZM61.382 92.4304C61.9613 92.4304 62.4868 92.0778 62.71 91.5415C62.9331 91.0018 62.8108 90.3829 62.3969 89.9727C61.9866 89.5588 61.3674 89.4365 60.8277 89.6596C60.2914 89.8826 59.9423 90.4081 59.9423 90.991C59.9423 91.3724 60.0934 91.7359 60.3634 92.0059C60.6333 92.2793 60.9967 92.4304 61.382 92.4304ZM61.382 95.3092C59.6328 95.3092 58.0599 94.2549 57.3905 92.6427C56.7211 91.027 57.0918 89.1702 58.3264 87.9358C59.5608 86.7016 61.4179 86.3308 63.0339 87.0003C64.6464 87.6695 65.7007 89.2421 65.7007 90.991C65.7007 93.3732 63.7645 95.3092 61.382 95.3092ZM61.382 43.5697C62.6812 43.5732 63.8868 44.2677 64.5347 45.3941L66.7337 49.2013H79.5361C78.5787 41.756 75.1776 34.8358 69.8691 29.525C64.5606 24.2171 57.6398 20.8165 50.1934 19.8594V35.3149C53.7924 37.859 56.5639 41.4143 58.1474 45.5312C58.86 44.2969 59.965 43.5735 61.3794 43.57L61.382 43.5697ZM68.3965 52.0801H81.1297C81.5292 52.0766 81.9143 51.9111 82.1843 51.6159C82.4577 51.3209 82.5946 50.9286 82.5657 50.5291C81.8567 41.8424 78.0885 33.6883 71.9305 27.517C65.7725 21.3455 57.6245 17.5631 48.9361 16.8364C48.5257 16.7824 48.1119 16.9082 47.7987 17.1818C47.4891 17.4553 47.3092 17.8474 47.3128 18.265V36.0741C47.3128 36.56 47.5575 37.0133 47.9643 37.276C52.0816 39.9713 55.0256 44.1276 56.199 48.9064L28.4282 97.0008C27.766 98.1237 27.7623 99.5199 28.4245 100.65H28.4282L28.4245 100.646C28.7448 101.2 29.2019 101.661 29.7525 101.981V101.978H29.7562C30.3104 102.301 30.9403 102.471 31.5809 102.471H91.1784C92.4812 102.471 93.687 101.772 94.3348 100.646C94.9862 99.516 94.9862 98.127 94.3348 97.0008L68.3965 52.0801ZM91.848 98.4363L62.0511 46.8329C61.9144 46.5918 61.6588 46.4407 61.378 46.4407C61.1009 46.4407 60.8455 46.5918 60.7086 46.8329L30.9118 98.4363H30.9081C30.7751 98.6736 30.7751 98.9688 30.9081 99.2063H30.9046L31.1925 99.4907V99.4978C31.3113 99.5625 31.4445 99.595 31.5812 99.5913H91.1786C91.4557 99.595 91.7113 99.4474 91.8517 99.2099C91.9921 98.9723 91.9883 98.6736 91.848 98.4363ZM37.9086 48.0461L45.499 46.0129C46.2692 45.8078 47.0575 46.2613 47.2591 47.0314C47.4642 47.7979 47.0107 48.586 46.2442 48.7911L38.7832 50.7919L38.7796 50.7884C38.7149 52.8935 37.1385 54.646 35.0509 54.9375C32.9635 55.2254 30.9731 53.9694 30.3325 51.9614C29.6955 49.9535 30.5989 47.7764 32.4704 46.8082C34.3418 45.8438 36.6382 46.3656 37.9086 48.0461ZM34.4643 52.0764C33.8848 52.0729 33.3593 51.7239 33.1399 51.1877C32.9202 50.6515 33.0426 50.0325 33.4529 49.6224C33.8633 49.2122 34.4822 49.0897 35.0186 49.3128C35.5548 49.5359 35.904 50.0613 35.904 50.6406C35.9075 51.0221 35.7564 51.3891 35.4828 51.6591C35.2128 51.929 34.8458 52.0801 34.4643 52.0764ZM41.5545 19.8585V31.64V31.6365C37.941 30.9455 34.216 31.1542 30.7073 32.2446L25.1251 26.6633C29.8903 22.9639 35.5657 20.6142 41.5545 19.8585ZM31.7973 19.4986C35.3064 18.0449 39.0243 17.1451 42.8103 16.8357C43.2207 16.7818 43.6345 16.9078 43.9441 17.1812C44.2536 17.4547 44.4335 17.8505 44.43 18.2644V33.4536H44.4263L44.43 33.4499C44.43 33.8997 44.2177 34.3244 43.8613 34.5944C43.5015 34.8678 43.0371 34.9542 42.6052 34.8354C39.8087 34.0545 36.8719 33.9034 34.0142 34.4V34.3964C32.9345 34.5835 31.8729 34.8641 30.8434 35.2312C30.3108 35.44 29.7025 35.3139 29.2995 34.9074L21.9609 27.5701C21.6803 27.2858 21.529 26.8935 21.5436 26.494C21.5614 26.0946 21.745 25.7167 22.051 25.4576C24.9699 22.9783 28.2595 20.9668 31.7973 19.4986ZM11.8479 39.4449C13.3055 35.9364 15.2958 32.6725 17.7468 29.7684C17.995 29.4337 18.3801 29.2179 18.7976 29.189C19.2187 29.1567 19.629 29.3113 19.9242 29.6065L26.0211 35.7024L26.0174 35.7059C26.3126 36.0011 26.4637 36.4113 26.4312 36.8288C26.399 37.2462 26.1865 37.6312 25.8519 37.8795C23.7609 39.4196 21.9937 41.3592 20.662 43.5904C19.3556 45.7855 18.4953 48.2144 18.1354 50.7442C18.0779 51.4963 17.4516 52.0792 16.6994 52.0792H10.6134C10.2139 52.0757 9.82876 51.9102 9.55885 51.615C9.28532 51.32 9.14856 50.9277 9.18095 50.5282C9.48327 46.7174 10.3867 42.9784 11.8479 39.4449Z" fill="#151946"/>
<path fill-rule="evenodd" clip-rule="evenodd" d="M91.8479 98.4361L62.051 46.8328C61.9142 46.5917 61.6587 46.4406 61.3779 46.4406C61.1007 46.4406 60.8453 46.5917 60.7084 46.8328L30.9117 98.4361H30.908C30.7748 98.6736 30.7748 98.9687 30.908 99.2062H30.9045L31.1923 99.4905V99.4977C31.3112 99.5624 31.4442 99.5948 31.5811 99.5913H91.1785C91.4556 99.5948 91.7112 99.4474 91.8516 99.2098C91.9918 98.9723 91.9881 98.6736 91.8479 98.4361Z" fill="white"/>
<path fill-rule="evenodd" clip-rule="evenodd" d="M61.3806 62.2422C63.5652 62.2494 65.3325 64.0163 65.3397 66.2006V79.8356C65.3397 82.0199 63.5652 83.794 61.3806 83.794C59.1923 83.794 57.4216 82.0199 57.4216 79.8356V66.2006C57.4253 64.0163 59.1923 62.2494 61.3806 62.2422ZM61.3806 95.3094C59.6316 95.3094 58.0586 94.2551 57.3893 92.6429C56.7199 91.0272 57.0906 89.1704 58.325 87.936C59.5594 86.7018 61.4167 86.331 63.0327 87.0005C64.645 87.6697 65.6995 89.2423 65.6995 90.9912C65.6995 93.3734 63.7631 95.3094 61.3806 95.3094Z" fill="#151946"/>
<path fill-rule="evenodd" clip-rule="evenodd" d="M61.3824 65.121C60.785 65.1282 60.3063 65.6067 60.3027 66.2006V79.8356C60.3027 80.4293 60.785 80.9152 61.3824 80.9152C61.9762 80.9152 62.4621 80.4295 62.4621 79.8356V66.2006C62.4549 65.6069 61.9762 65.1246 61.3824 65.121ZM61.3824 92.4306C61.9618 92.4306 62.4873 92.0779 62.7105 91.5417C62.9336 91.002 62.8113 90.383 62.3974 89.9728C61.9871 89.559 61.368 89.4366 60.8282 89.6598C60.2919 89.8829 59.9429 90.4083 59.9429 90.9913C59.9429 91.3727 60.094 91.7361 60.3639 92.006C60.6339 92.2795 60.9972 92.4306 61.3824 92.4306Z" fill="#C9CCE0"/>
<path fill-rule="evenodd" clip-rule="evenodd" d="M34.4638 52.0766C33.8843 52.0731 33.3589 51.724 33.1393 51.1879C32.9198 50.6517 33.0422 50.0327 33.4524 49.6225C33.8627 49.2122 34.4818 49.0898 35.018 49.313C35.5542 49.5361 35.9034 50.0615 35.9034 50.6408C35.9069 51.0223 35.7558 51.3893 35.4822 51.6593C35.2124 51.9292 34.8453 52.0803 34.4638 52.0766Z" fill="white"/>
<path fill-rule="evenodd" clip-rule="evenodd" d="M19.0179 32.7699C15.3145 37.538 12.9643 43.2129 12.2085 49.2008H15.4837C16.4518 44.2925 19.0468 39.855 22.8474 36.6021L19.0179 32.7699Z" fill="#3C5F58"/>
<path fill-rule="evenodd" clip-rule="evenodd" d="M41.5539 19.8585V31.64V31.6364C37.9404 30.9455 34.2155 31.1543 30.7067 32.2446L25.1245 26.6632C29.8897 22.964 35.565 20.6142 41.5539 19.8585Z" fill="#639C90"/>
<path fill-rule="evenodd" clip-rule="evenodd" d="M61.3813 43.5694C62.6805 43.5729 63.8863 44.2674 64.5342 45.3939L66.7332 49.2012H79.5354C78.578 41.7558 75.1769 34.8356 69.8684 29.5247C64.5599 24.2169 57.6393 20.8162 50.1929 19.8593V35.3146C53.7919 37.8587 56.5632 41.4142 58.1467 45.531C58.8594 44.2967 59.9643 43.5734 61.3787 43.5697L61.3813 43.5694Z" fill="#78CAB9"/>
<defs>
<filter id="filter0_d_3647_20698" x="3.17627" y="1.58826" width="97.647" height="97.6471" filterUnits="userSpaceOnUse" color-interpolation-filters="sRGB">
<feFlood flood-opacity="0" result="BackgroundImageFix"/>
<feColorMatrix in="SourceAlpha" type="matrix" values="0 0 0 0 0 0 0 0 0 0 0 0 0 0 0 0 0 0 127 0" result="hardAlpha"/>
<feOffset dy="3"/>
<feGaussianBlur stdDeviation="3"/>
<feColorMatrix type="matrix" values="0 0 0 0 0.533333 0 0 0 0 0.533333 0 0 0 0 0.611765 0 0 0 0.12 0"/>
<feBlend mode="normal" in2="BackgroundImageFix" result="effect1_dropShadow_3647_20698"/>
<feBlend mode="normal" in="SourceGraphic" in2="effect1_dropShadow_3647_20698" result="shape"/>
</filter>
</defs>
</svg>
