<svg width="119" height="109" viewBox="0 0 119 109" fill="none" xmlns="http://www.w3.org/2000/svg">
<g filter="url(#filter0_d_3139_6593)">
<circle cx="67" cy="50.5" r="45.5" fill="#EAF5FF"/>
</g>
<rect x="24.7183" y="32.9663" width="66.6575" height="47.06" rx="4" fill="#151946"/>
<path fill-rule="evenodd" clip-rule="evenodd" d="M89.5464 47.2311V75.9114C89.5432 77.1631 88.5429 78.1735 87.3112 78.1768H28.7848C27.553 78.1768 26.5528 77.1631 26.5496 75.9114V47.2277L89.5464 47.2311ZM26.5505 41.0516V37.0978C26.5538 35.8494 27.5508 34.8358 28.7858 34.8325H87.3155C88.5473 34.8358 89.5475 35.8495 89.5507 37.0978V41.0516H26.5505Z" fill="white"/>
<path fill-rule="evenodd" clip-rule="evenodd" d="M82.2084 58.209V69.3529H71.2148V58.2115L82.2084 58.209Z" fill="#639C90"/>
<path fill-rule="evenodd" clip-rule="evenodd" d="M70.2969 56.3545H83.1233L83.1265 56.3577C83.6283 56.361 84.0335 56.775 84.0335 57.2835V70.279C84.0335 70.5267 83.937 70.7614 83.7666 70.9341C83.5929 71.1101 83.3613 71.2079 83.1201 71.2079H70.2937C69.7888 71.2014 69.3867 70.7875 69.3867 70.279V57.2835C69.3867 56.775 69.7952 56.3577 70.3002 56.3577L70.2969 56.3545ZM82.2069 58.2092V69.3531H71.2133V58.2117L82.2069 58.2092Z" fill="#151946"/>
<path fill-rule="evenodd" clip-rule="evenodd" d="M26.5496 45.3763V42.9023H89.5501V45.3763H26.5496Z" fill="#639C90"/>
<path fill-rule="evenodd" clip-rule="evenodd" d="M32.5605 68.2277C32.3129 68.2343 32.0749 68.143 31.898 67.967C31.7179 67.791 31.6182 67.553 31.6182 67.302C31.6182 67.051 31.7179 66.8098 31.898 66.6371C32.0749 66.4611 32.3129 66.3665 32.5605 66.3763H60.4133C60.6577 66.3665 60.8989 66.4611 61.0758 66.6371C61.2527 66.8098 61.3557 67.051 61.3557 67.302C61.3557 67.553 61.2527 67.791 61.0758 67.967C60.899 68.143 60.6577 68.2342 60.4133 68.2277H32.5605ZM32.5605 62.4356C32.3129 62.4454 32.0749 62.3508 31.898 62.1748C31.7179 62.0021 31.6182 61.7609 31.6182 61.5099C31.6182 61.2589 31.7179 61.0209 31.898 60.8449C32.0749 60.6722 32.3129 60.5777 32.5605 60.5842H55.6822C56.1743 60.6005 56.5667 61.0112 56.5667 61.5099C56.5667 62.0119 56.1743 62.4226 55.6822 62.4356L32.5605 62.4356ZM32.5605 56.6434V56.6467C32.0556 56.6467 31.6471 56.2295 31.6471 55.7177C31.6471 55.206 32.0556 54.792 32.5605 54.792H49.3267C49.8316 54.792 50.2401 55.2059 50.2401 55.7177C50.2401 56.2295 49.8317 56.6467 49.3267 56.6467L32.5605 56.6434Z" fill="#151946"/>
<path d="M110.874 71.2536C110.874 69.2056 109.207 67.5411 107.162 67.5411H106.001V59.8837C106.001 50.4747 98.3461 42.8198 88.9371 42.8198C79.5281 42.8198 71.8732 50.4747 71.8732 59.8837V67.5411H70.7125C68.6645 67.5411 67 69.2082 67 71.2536V91.4678C67 93.5158 68.667 95.1803 70.7125 95.1803H107.163C109.21 95.1803 110.875 93.5132 110.875 91.4678L110.874 71.2536ZM73.8338 59.881C73.8338 51.5533 80.6096 44.7808 88.934 44.7808C97.2617 44.7808 104.034 51.5566 104.034 59.881V67.5385H99.5803V59.8784C99.5803 54.0079 94.8042 49.2316 88.9336 49.2316C83.0629 49.2316 78.2868 54.0077 78.2868 59.8784V67.5385H73.8329L73.8338 59.881ZM97.6172 59.881V67.5411H80.2516V59.881C80.2516 55.0947 84.1455 51.1979 88.9347 51.1979C93.721 51.1979 97.6172 55.0919 97.6172 59.881ZM75.1965 93.2167L75.6005 91.8642C75.7335 91.4142 76.14 91.1125 76.6079 91.1125H101.258C101.726 91.1125 102.132 91.4142 102.265 91.8642L102.669 93.2167H75.1965ZM108.911 91.4679C108.911 92.4318 108.126 93.2167 107.162 93.2167H104.723L104.15 91.3017C103.771 90.0335 102.582 89.1488 101.261 89.1488H76.608C75.2861 89.1488 74.0972 90.0335 73.7188 91.3017L73.1461 93.2167H70.7069C69.7429 93.2167 68.958 92.4318 68.958 91.4679V71.2537C68.958 70.2898 69.7429 69.5048 70.7069 69.5048H107.157C108.121 69.5048 108.906 70.2898 108.906 71.2537V91.4679H108.911Z" fill="#151946"/>
<path d="M108.911 91.4679C108.911 92.4319 108.126 93.2168 107.162 93.2168H104.723L104.15 91.3017C103.771 90.0336 102.583 89.1489 101.261 89.1489H76.608C75.2862 89.1489 74.0973 90.0336 73.7188 91.3017L73.1461 93.2168H70.7069C69.7429 93.2168 68.958 92.4319 68.958 91.4679V71.2537C68.958 70.2898 69.7429 69.5049 70.7069 69.5049H107.157C108.121 69.5049 108.906 70.2898 108.906 71.2537V91.4679H108.911Z" fill="#78CAB9"/>
<path d="M73.8342 59.881C73.8342 51.5533 80.61 44.7808 88.9344 44.7808C97.2621 44.7808 104.035 51.5566 104.035 59.881V67.5385H99.5807V59.8784C99.5807 54.0079 94.8046 49.2316 88.9339 49.2316C83.0633 49.2316 78.2872 54.0077 78.2872 59.8784V67.5385H73.8333L73.8342 59.881Z" fill="white"/>
<path d="M75.1965 93.2165L75.6005 91.864C75.7335 91.414 76.14 91.1123 76.6079 91.1123H101.258C101.726 91.1123 102.132 91.414 102.265 91.864L102.669 93.2165H75.1965Z" fill="white"/>
<path d="M95.806 75.5518H82.0607C79.9794 75.5518 78.2869 77.2443 78.2869 79.3256C78.2869 81.4068 79.9794 83.0994 82.0607 83.0994H95.806C97.8873 83.0994 99.5798 81.4068 99.5798 79.3256C99.5798 77.2443 97.8873 75.5518 95.806 75.5518ZM95.806 81.1358H82.0607C81.0636 81.1358 80.2505 80.3227 80.2505 79.3256C80.2505 78.3285 81.0636 77.5154 82.0607 77.5154H95.806C96.8031 77.5154 97.6162 78.3285 97.6162 79.3256C97.6162 80.3227 96.8031 81.1358 95.806 81.1358Z" fill="#151946"/>
<path d="M95.8053 81.136H82.06C81.0628 81.136 80.2498 80.323 80.2498 79.3258C80.2498 78.3287 81.0628 77.5156 82.06 77.5156H95.8053C96.8024 77.5156 97.6155 78.3287 97.6155 79.3258C97.6155 80.323 96.8024 81.136 95.8053 81.136Z" fill="white"/>
<defs>
<filter id="filter0_d_3139_6593" x="15.5" y="2" width="103" height="103" filterUnits="userSpaceOnUse" color-interpolation-filters="sRGB">
<feFlood flood-opacity="0" result="BackgroundImageFix"/>
<feColorMatrix in="SourceAlpha" type="matrix" values="0 0 0 0 0 0 0 0 0 0 0 0 0 0 0 0 0 0 127 0" result="hardAlpha"/>
<feOffset dy="3"/>
<feGaussianBlur stdDeviation="3"/>
<feColorMatrix type="matrix" values="0 0 0 0 0.533333 0 0 0 0 0.533333 0 0 0 0 0.611765 0 0 0 0.12 0"/>
<feBlend mode="normal" in2="BackgroundImageFix" result="effect1_dropShadow_3139_6593"/>
<feBlend mode="normal" in="SourceGraphic" in2="effect1_dropShadow_3139_6593" result="shape"/>
</filter>
</defs>
</svg>
