<svg width="119" height="109" viewBox="0 0 119 109" fill="none" xmlns="http://www.w3.org/2000/svg">
<g filter="url(#filter0_d_3647_20546)">
<circle cx="67" cy="50.5" r="45.5" fill="#EAF5FF"/>
</g>
<rect x="24.7183" y="32.9663" width="66.6575" height="47.06" rx="4" fill="#151946"/>
<path fill-rule="evenodd" clip-rule="evenodd" d="M89.5467 47.2309V75.9113C89.5435 77.163 88.5432 78.1734 87.3114 78.1766H28.7851C27.5532 78.1766 26.553 77.163 26.5498 75.9113V47.2276L89.5467 47.2309ZM26.5508 41.0515V37.0977C26.554 35.8493 27.551 34.8357 28.7861 34.8324H87.3157C88.5475 34.8357 89.5478 35.8494 89.551 37.0977V41.0515H26.5508Z" fill="white"/>
<path fill-rule="evenodd" clip-rule="evenodd" d="M82.2084 58.2092V69.3531H71.2148V58.2117L82.2084 58.2092Z" fill="#639C90"/>
<path fill-rule="evenodd" clip-rule="evenodd" d="M70.2969 56.3545H83.1233L83.1265 56.3577C83.6283 56.361 84.0335 56.775 84.0335 57.2835V70.279C84.0335 70.5267 83.937 70.7614 83.7666 70.9341C83.5929 71.1101 83.3613 71.2079 83.1201 71.2079H70.2937C69.7888 71.2014 69.3867 70.7875 69.3867 70.279V57.2835C69.3867 56.775 69.7952 56.3577 70.3002 56.3577L70.2969 56.3545ZM82.2069 58.2092V69.3531H71.2133V58.2117L82.2069 58.2092Z" fill="#151946"/>
<path fill-rule="evenodd" clip-rule="evenodd" d="M26.5498 45.3762V42.9022H89.5503V45.3762H26.5498Z" fill="#639C90"/>
<path fill-rule="evenodd" clip-rule="evenodd" d="M32.5605 68.2275C32.3129 68.234 32.0749 68.1427 31.898 67.9667C31.7179 67.7907 31.6182 67.5528 31.6182 67.3018C31.6182 67.0508 31.7179 66.8096 31.898 66.6368C32.0749 66.4608 32.3129 66.3663 32.5605 66.3761H60.4133C60.6577 66.3663 60.8989 66.4608 61.0758 66.6368C61.2527 66.8096 61.3557 67.0508 61.3557 67.3018C61.3557 67.5528 61.2527 67.7907 61.0758 67.9667C60.899 68.1427 60.6577 68.234 60.4133 68.2275H32.5605ZM32.5605 62.4353C32.3129 62.4451 32.0749 62.3506 31.898 62.1746C31.7179 62.0018 31.6182 61.7606 31.6182 61.5096C31.6182 61.2586 31.7179 61.0207 31.898 60.8447C32.0749 60.6719 32.3129 60.5774 32.5605 60.5839H55.6822C56.1743 60.6002 56.5667 61.0109 56.5667 61.5096C56.5667 62.0116 56.1743 62.4224 55.6822 62.4354L32.5605 62.4353ZM32.5605 56.6432V56.6464C32.0556 56.6464 31.6471 56.2292 31.6471 55.7175C31.6471 55.2057 32.0556 54.7917 32.5605 54.7917H49.3267C49.8316 54.7917 50.2401 55.2057 50.2401 55.7175C50.2401 56.2292 49.8317 56.6464 49.3267 56.6464L32.5605 56.6432Z" fill="#151946"/>
<path d="M110.874 71.2536C110.874 69.2056 109.207 67.5412 107.162 67.5412H106.001V59.8837C106.001 50.4747 98.3461 42.8198 88.9371 42.8198C79.5281 42.8198 71.8732 50.4747 71.8732 59.8837V67.5412H70.7125C68.6645 67.5412 67 69.2082 67 71.2536V91.4678C67 93.5158 68.667 95.1803 70.7125 95.1803H107.163C109.21 95.1803 110.875 93.5132 110.875 91.4678L110.874 71.2536ZM73.8338 59.881C73.8338 51.5533 80.6096 44.7808 88.934 44.7808C97.2617 44.7808 104.034 51.5566 104.034 59.881V67.5385H99.5803V59.8784C99.5803 54.0079 94.8042 49.2316 88.9336 49.2316C83.0629 49.2316 78.2868 54.0077 78.2868 59.8784V67.5385H73.8329L73.8338 59.881ZM97.6172 59.881V67.5411H80.2516V59.881C80.2516 55.0947 84.1455 51.1979 88.9347 51.1979C93.721 51.1979 97.6172 55.0919 97.6172 59.881ZM75.1965 93.2167L75.6005 91.8642C75.7335 91.4142 76.14 91.1125 76.6079 91.1125H101.258C101.726 91.1125 102.132 91.4142 102.265 91.8642L102.669 93.2167H75.1965ZM108.911 91.4679C108.911 92.4318 108.126 93.2167 107.162 93.2167H104.723L104.15 91.3017C103.771 90.0335 102.582 89.1488 101.261 89.1488H76.608C75.2861 89.1488 74.0972 90.0335 73.7188 91.3017L73.1461 93.2167H70.7069C69.7429 93.2167 68.958 92.4318 68.958 91.4679V71.2537C68.958 70.2898 69.7429 69.5048 70.7069 69.5048H107.157C108.121 69.5048 108.906 70.2898 108.906 71.2537V91.4679H108.911Z" fill="#151946"/>
<path d="M108.911 91.4679C108.911 92.4319 108.126 93.2168 107.162 93.2168H104.723L104.15 91.3017C103.771 90.0336 102.583 89.1489 101.261 89.1489H76.608C75.2862 89.1489 74.0973 90.0336 73.7188 91.3017L73.1461 93.2168H70.7069C69.7429 93.2168 68.958 92.4319 68.958 91.4679V71.2537C68.958 70.2898 69.7429 69.5049 70.7069 69.5049H107.157C108.121 69.5049 108.906 70.2898 108.906 71.2537V91.4679H108.911Z" fill="#78CAB9"/>
<path d="M73.8339 59.8811C73.8339 51.5534 80.6097 44.7809 88.9342 44.7809C97.2619 44.7809 104.034 51.5567 104.034 59.8811V67.5386H99.5805V59.8785C99.5805 54.0081 94.8043 49.2318 88.9337 49.2318C83.0631 49.2318 78.287 54.0079 78.287 59.8785V67.5386H73.833L73.8339 59.8811Z" fill="white"/>
<path d="M75.1968 93.2168L75.6008 91.8642C75.7337 91.4142 76.1402 91.1125 76.6082 91.1125H101.258C101.726 91.1125 102.133 91.4143 102.266 91.8642L102.67 93.2168H75.1968Z" fill="white"/>
<path d="M95.8063 75.552H82.0609C79.9797 75.552 78.2871 77.2446 78.2871 79.3258C78.2871 81.4071 79.9797 83.0996 82.0609 83.0996H95.8063C97.8875 83.0996 99.5801 81.4071 99.5801 79.3258C99.5801 77.2446 97.8875 75.552 95.8063 75.552ZM95.8063 81.136H82.0609C81.0638 81.136 80.2507 80.3229 80.2507 79.3258C80.2507 78.3287 81.0638 77.5156 82.0609 77.5156H95.8063C96.8034 77.5156 97.6165 78.3287 97.6165 79.3258C97.6165 80.3229 96.8034 81.136 95.8063 81.136Z" fill="#151946"/>
<path d="M95.8051 81.1359H82.0597C81.0626 81.1359 80.2495 80.3228 80.2495 79.3257C80.2495 78.3286 81.0626 77.5155 82.0597 77.5155H95.8051C96.8022 77.5155 97.6152 78.3286 97.6152 79.3257C97.6152 80.3228 96.8022 81.1359 95.8051 81.1359Z" fill="white"/>
<defs>
<filter id="filter0_d_3647_20546" x="15.5" y="2" width="103" height="103" filterUnits="userSpaceOnUse" color-interpolation-filters="sRGB">
<feFlood flood-opacity="0" result="BackgroundImageFix"/>
<feColorMatrix in="SourceAlpha" type="matrix" values="0 0 0 0 0 0 0 0 0 0 0 0 0 0 0 0 0 0 127 0" result="hardAlpha"/>
<feOffset dy="3"/>
<feGaussianBlur stdDeviation="3"/>
<feColorMatrix type="matrix" values="0 0 0 0 0.533333 0 0 0 0 0.533333 0 0 0 0 0.611765 0 0 0 0.12 0"/>
<feBlend mode="normal" in2="BackgroundImageFix" result="effect1_dropShadow_3647_20546"/>
<feBlend mode="normal" in="SourceGraphic" in2="effect1_dropShadow_3647_20546" result="shape"/>
</filter>
</defs>
</svg>
