<svg width="104" height="107" viewBox="0 0 104 107" fill="none" xmlns="http://www.w3.org/2000/svg">
<g filter="url(#filter0_d_3139_6575)">
<circle cx="52" cy="48.5" r="45.5" fill="#EAF5FF"/>
</g>
<path d="M66.8605 65.8546H62.7457C62.2574 63.847 61.5339 61.9117 60.5663 60.0894H63.7586C64.36 60.0894 64.8483 59.601 64.8483 58.9996V46.0129C64.8483 45.4115 64.36 44.9232 63.7586 44.9232H51.324C50.7226 44.9232 50.2343 45.4115 50.2343 46.0129V49.766C48.4166 48.7983 46.4857 48.0794 44.4826 47.5956V43.4808C44.4826 41.3601 42.7553 39.6328 40.6346 39.6328H36.5696C34.4489 39.6328 32.7216 41.3601 32.7216 43.4808V47.5956C30.2392 48.1969 27.8833 49.1737 25.6948 50.5075L22.7829 47.5956C22.0594 46.8721 21.0918 46.4696 20.0608 46.4696C19.0297 46.4696 18.0621 46.8676 17.3386 47.5956L14.4628 50.4714C12.9615 51.9727 12.9615 54.4143 14.4628 55.9156L17.3747 58.8275C16.0409 61.016 15.0641 63.3719 14.4628 65.8543H10.348C8.22732 65.8543 6.5 67.5816 6.5 69.7023V73.7673C6.5 75.8879 8.22732 77.6153 10.348 77.6153H14.4628C15.0642 80.0976 16.0409 82.4535 17.3747 84.642L14.4628 87.554C13.7393 88.2775 13.3369 89.2451 13.3369 90.2761C13.3369 91.3072 13.7348 92.2748 14.4628 92.9982L17.3386 95.8741C18.0892 96.6247 19.075 97 20.0608 97C21.0465 97 22.0322 96.6247 22.7829 95.8741L25.6813 92.9757C26.7213 93.6087 27.8065 94.1648 28.9279 94.6397V95.0285C28.9279 96.0866 29.5022 97.0045 30.3523 97.5109C30.2664 97.7687 30.2076 98.04 30.2076 98.3294V99.4055C30.2076 100.649 31.0984 101.694 32.2741 101.929C33.5311 104.827 35.9819 106.677 38.7085 106.677C41.4352 106.677 43.886 104.827 45.143 101.933C46.3276 101.703 47.223 100.658 47.223 99.4055V98.3294C47.223 98.0445 47.1642 97.7687 47.0783 97.5109C47.9284 97.0045 48.5027 96.0866 48.5027 95.0285V94.5266C49.5382 94.0745 50.542 93.5499 51.5142 92.9621L54.4307 95.8786C55.1542 96.602 56.1218 97.0045 57.1528 97.0045C58.1839 97.0045 59.1515 96.6066 59.8749 95.8786L62.7508 93.0027C63.4743 92.2792 63.8767 91.3116 63.8767 90.2806C63.8767 89.2495 63.4788 88.2819 62.7508 87.5584L59.8388 84.6465C61.1727 82.458 62.1494 80.1021 62.7508 77.6197H66.8656C68.9863 77.6197 70.7136 75.8924 70.7136 73.7717V69.7067C70.7136 67.5861 68.9863 65.8587 66.8656 65.8587L66.8605 65.8546ZM52.4141 47.1033H62.674V57.9147H52.4141V47.1033ZM29.4341 83.1278C29.4161 83.1097 29.3934 83.1007 29.3754 83.0826C29.3573 83.0645 29.3482 83.0419 29.3301 83.0238C26.3865 80.3877 24.6954 76.6074 24.6954 72.66C24.6954 64.9912 30.9353 58.7507 38.6047 58.7507C46.274 58.7507 52.514 64.9907 52.514 72.66C52.514 76.3678 51.0715 79.8587 48.4489 82.4858C48.4399 82.4948 48.4354 82.5084 48.4263 82.5174C48.4173 82.5265 48.4037 82.531 48.3947 82.54C45.4647 85.9223 45.2339 88.9202 45.1706 90.8193H40.8976L40.9202 76.1738C41.2412 76.1693 41.5849 76.1693 41.9557 76.1647C43.5338 76.1467 44.8088 75.4367 45.3696 74.2611C45.8489 73.2618 45.7087 72.1268 44.9943 71.2225C44.221 70.2458 42.7831 69.8841 41.413 70.3272C40.0474 70.7703 39.1612 71.8827 39.1069 73.2256V73.2618V74.347C38.9351 74.3425 38.7542 74.3425 38.5417 74.338V73.2618V73.2256C38.4874 71.9189 37.6464 70.8246 36.3442 70.3725C34.9786 69.8977 33.509 70.2278 32.6815 71.1909C31.8992 72.1043 31.7139 73.1941 32.1796 74.1843C32.7448 75.3916 34.1692 76.1829 35.7246 76.1557C36.0909 76.1512 36.4255 76.1467 36.7375 76.1421L36.7601 90.8108H32.3514C32.3514 89.0337 32.1525 86.3207 29.4304 83.1194L29.4341 83.1278ZM38.55 76.1824H39.1107L39.0881 90.8198H38.5726L38.55 76.1824ZM45.6039 92.9937C45.9973 92.9937 46.3274 93.3238 46.3274 93.7172V95.0285C46.3274 95.4219 45.9973 95.752 45.6039 95.752H31.8266C31.4332 95.752 31.1031 95.4219 31.1031 95.0285V93.7172C31.1031 93.3238 31.4332 92.9937 31.8266 92.9937H45.6039ZM32.7851 99.8035C32.568 99.8035 32.3826 99.6181 32.3826 99.401V98.3248C32.3826 98.1078 32.568 97.9224 32.7851 97.9224H44.6455C44.8625 97.9224 45.0479 98.1078 45.0479 98.3248V99.401C45.0479 99.6181 44.8625 99.8035 44.6455 99.8035H32.7851ZM40.9241 74.3602V73.2885C40.9648 72.4701 41.6702 72.1536 41.9777 72.0541C42.6107 71.8506 43.2845 71.9727 43.5784 72.3435C43.8587 72.6962 43.9175 73.1122 43.7412 73.4785C43.4834 74.012 42.8097 74.3421 41.9415 74.3512C41.5752 74.3557 41.2406 74.3602 40.9286 74.3602L40.9241 74.3602ZM36.7325 74.3376C36.4114 74.3421 36.0678 74.3421 35.6925 74.3512C34.7565 74.3602 34.042 73.8945 33.8205 73.4197C33.7617 73.2976 33.5853 72.9223 34.0556 72.3752C34.2771 72.1174 34.666 71.9772 35.0911 71.9772C35.3081 71.9772 35.5342 72.0134 35.7512 72.0903C36.1039 72.2124 36.6917 72.5289 36.7324 73.2886L36.7325 74.3376ZM38.7084 104.498C37.1484 104.498 35.6969 103.539 34.7338 101.979H42.6785C41.7154 103.539 40.264 104.498 38.7039 104.498H38.7084ZM68.5342 73.7681C68.5342 74.6905 67.7836 75.4411 66.8612 75.4411H61.9008C61.8646 75.4411 61.833 75.4592 61.7968 75.4637C61.7245 75.4727 61.6521 75.4863 61.5843 75.5044C61.5165 75.527 61.4577 75.5496 61.3944 75.5813C61.3311 75.6129 61.2768 75.6536 61.2271 75.6943C61.1728 75.7395 61.1231 75.7847 61.0779 75.839C61.0326 75.8933 60.9965 75.9475 60.9648 76.0063C60.9286 76.0696 60.9015 76.1374 60.8789 76.2098C60.8699 76.246 60.8427 76.2731 60.8382 76.3093C60.2594 79.1399 59.1562 81.7987 57.56 84.2132C57.5374 84.2449 57.5374 84.2811 57.5193 84.3127C57.4831 84.3805 57.456 84.4438 57.4379 84.5162C57.4198 84.584 57.4062 84.6473 57.3972 84.7151C57.3927 84.783 57.3927 84.8508 57.3972 84.9231C57.4062 84.991 57.4153 85.0588 57.4379 85.1266C57.456 85.1944 57.4831 85.2532 57.5148 85.3165C57.5509 85.3798 57.5871 85.4386 57.6369 85.4974C57.6595 85.5245 57.6685 85.5607 57.6956 85.5878L61.2044 89.0966C61.5164 89.4086 61.6928 89.8291 61.6928 90.2813C61.6928 90.7289 61.521 91.1495 61.2044 91.4659L58.3286 94.3418C58.0166 94.6538 57.5961 94.8301 57.1439 94.8301C56.6963 94.8301 56.2758 94.6583 55.9593 94.3418L52.4505 90.833C52.4234 90.8058 52.3917 90.7968 52.36 90.7742C52.3013 90.7245 52.2425 90.6883 52.1792 90.6521C52.1159 90.6205 52.0571 90.5933 51.9938 90.5752C51.926 90.5572 51.8627 90.5436 51.7903 90.5345C51.7225 90.5255 51.6547 90.5255 51.5823 90.5345C51.5145 90.5391 51.4512 90.5526 51.3833 90.5752C51.311 90.5933 51.2477 90.6205 51.1799 90.6566C51.1482 90.6747 51.112 90.6747 51.0804 90.6973C50.1399 91.3168 49.136 91.8413 48.1141 92.3161C47.9152 91.9589 47.6439 91.6514 47.3183 91.4072C47.3228 91.3303 47.3273 91.267 47.3273 91.1856C47.3771 89.4945 47.454 86.9442 50.0313 83.9689C50.0313 83.9689 50.0313 83.9644 50.0358 83.9644C53.0292 80.9348 54.6796 76.9241 54.6796 72.6646C54.6796 63.7974 47.4629 56.5802 38.5953 56.5802C29.7276 56.5802 22.5109 63.7969 22.5109 72.6646C22.5109 77.1863 24.4327 81.5091 27.7742 84.5562C30.207 87.4231 30.1798 89.7337 30.1617 91.2665V91.3479C29.7774 91.6147 29.4699 91.9764 29.2528 92.3924C28.1676 91.8996 27.105 91.3524 26.1103 90.6922C26.0786 90.6696 26.0425 90.6696 26.0108 90.6515C25.943 90.6153 25.8797 90.5882 25.8073 90.5701C25.7395 90.552 25.6762 90.5385 25.6084 90.5294C25.5405 90.5249 25.4727 90.5249 25.4049 90.5294C25.3371 90.5385 25.2692 90.5475 25.2014 90.5701C25.1381 90.5882 25.0748 90.6153 25.016 90.647C24.9527 90.6832 24.8894 90.7193 24.8351 90.7691C24.808 90.7917 24.7718 90.8007 24.7447 90.8279L21.2359 94.3367C20.5848 94.9878 19.5221 94.9878 18.8665 94.3367L15.9906 91.4608C15.6786 91.1488 15.5023 90.7283 15.5023 90.2762C15.5023 89.8285 15.6741 89.408 15.9906 89.0915L19.4994 85.5827C19.5266 85.5556 19.5356 85.5239 19.5582 85.4923C19.6034 85.4335 19.6441 85.3747 19.6803 85.3114C19.712 85.2481 19.7391 85.1893 19.7572 85.1215C19.7753 85.0537 19.7888 84.9904 19.7979 84.918C19.8069 84.8502 19.8069 84.7824 19.7979 84.71C19.7934 84.6422 19.7798 84.5789 19.7572 84.5111C19.7391 84.4387 19.712 84.3754 19.6758 84.3076C19.6577 84.2759 19.6577 84.2397 19.6351 84.2081C18.0389 81.789 16.9357 79.1302 16.3569 76.3041C16.3478 76.268 16.3252 76.2408 16.3162 76.2047C16.2936 76.1323 16.2664 76.069 16.2303 76.0012C16.1986 75.9424 16.1624 75.8836 16.1172 75.8339C16.072 75.7796 16.0268 75.7344 15.9725 75.6892C15.9183 75.644 15.864 75.6078 15.8007 75.5761C15.7419 75.5445 15.6786 75.5173 15.6108 75.4993C15.543 75.4767 15.4706 75.4631 15.3983 75.454C15.3621 75.4495 15.3304 75.4314 15.2943 75.4314H10.3339C9.41145 75.4314 8.66085 74.6808 8.66085 73.7584V69.6934C8.66085 68.7709 9.41146 68.0204 10.3339 68.0204H15.2943C15.4344 68.0204 15.5656 67.9887 15.6877 67.939C15.7284 67.9209 15.7645 67.8938 15.8052 67.8757C15.8821 67.835 15.9544 67.7898 16.0177 67.731C16.0539 67.6948 16.0856 67.6586 16.1172 67.6179C16.167 67.5546 16.2122 67.4913 16.2483 67.419C16.2755 67.3692 16.2936 67.3195 16.3116 67.2652C16.3252 67.2245 16.3478 67.1929 16.3569 67.1522C16.9356 64.3261 18.0389 61.6628 19.6351 59.2482C19.6577 59.2166 19.6577 59.1804 19.6758 59.1487C19.712 59.0809 19.7391 59.0176 19.7572 58.9453C19.7753 58.8774 19.7888 58.8141 19.7979 58.7463C19.8024 58.674 19.8024 58.6106 19.7979 58.5383C19.7888 58.4705 19.7798 58.4026 19.7572 58.3393C19.7391 58.2715 19.712 58.2127 19.6803 58.1494C19.6441 58.0861 19.608 58.0273 19.5582 57.9686C19.5356 57.9414 19.5266 57.9053 19.4994 57.8781L15.9906 54.3693C15.3395 53.7182 15.3395 52.6555 15.9906 51.9999L18.8665 49.124C19.1785 48.812 19.599 48.6357 20.0511 48.6357C20.4988 48.6357 20.9193 48.8075 21.2358 49.124L24.7446 52.6329C24.7989 52.6871 24.8667 52.7142 24.9255 52.7549C24.9707 52.7821 25.0069 52.8182 25.0521 52.8409C25.1968 52.9087 25.355 52.9539 25.5133 52.9539C25.6354 52.9539 25.7575 52.9268 25.8796 52.8815C25.9157 52.868 25.9474 52.8499 25.9836 52.8363C26.0288 52.8137 26.074 52.8047 26.1147 52.7775C28.5338 51.1814 31.1926 50.0781 34.0187 49.4993C34.0548 49.4903 34.082 49.4677 34.1181 49.4586C34.1905 49.436 34.2538 49.4089 34.3171 49.3727C34.3804 49.3411 34.4346 49.3049 34.4844 49.2597C34.5386 49.2145 34.5839 49.1692 34.6291 49.115C34.6743 49.0607 34.7105 49.0065 34.7421 48.9431C34.7738 48.8844 34.8009 48.8211 34.819 48.7532C34.8416 48.6809 34.8552 48.6131 34.8642 48.5407C34.8687 48.5045 34.8868 48.4729 34.8868 48.4367V43.4763C34.8868 42.5539 35.6374 41.8033 36.5598 41.8033H40.6249C41.5473 41.8033 42.2979 42.5539 42.2979 43.4763V48.4367C42.2979 48.4729 42.316 48.5045 42.3205 48.5407C42.3295 48.6131 42.3431 48.6854 42.3657 48.7532C42.3883 48.8211 42.4109 48.8799 42.4426 48.9431C42.4742 49.0065 42.5149 49.0607 42.5556 49.115C42.6008 49.1692 42.6461 49.219 42.7003 49.2597C42.7546 49.3049 42.8089 49.3411 42.8676 49.3727C42.9309 49.4089 42.9988 49.436 43.0666 49.4586C43.1028 49.4677 43.1299 49.4948 43.1661 49.4993C45.6666 50.0103 48.0314 50.9508 50.2246 52.2666V58.9949C50.2246 59.5963 50.7129 60.0847 51.3143 60.0847H58.0472C59.363 62.2777 60.308 64.6516 60.8189 67.1567C60.828 67.1974 60.8506 67.2291 60.8642 67.2698C60.8822 67.324 60.9003 67.3738 60.9275 67.4235C60.9636 67.4958 61.0089 67.5591 61.0586 67.6224C61.0902 67.6631 61.1219 67.7038 61.1581 67.7355C61.2214 67.7943 61.2937 67.8395 61.3706 67.8802C61.4113 67.9028 61.4429 67.9299 61.4882 67.9435C61.6148 67.9932 61.7459 68.0249 61.8815 68.0249H66.8419C67.7644 68.0249 68.515 68.7755 68.515 69.6979V73.7629L68.5342 73.7681ZM78.265 42.3691H66.6662C66.0648 42.3691 65.5764 42.8575 65.5764 43.4589V55.5728C65.5764 56.1742 66.0648 56.6625 66.6662 56.6625H78.265C78.8663 56.6625 79.3547 56.1742 79.3547 55.5728V43.4589C79.3547 42.8575 78.8664 42.3691 78.265 42.3691ZM77.1752 54.483H67.7519V44.5443H77.1752V54.483ZM81.4482 27.778H87.5255C88.1269 27.778 88.6152 27.2897 88.6152 26.6883V20.3397C88.6152 19.7384 88.1269 19.25 87.5255 19.25H81.4482C80.8469 19.25 80.3585 19.7384 80.3585 20.3397V26.6883C80.3585 27.2897 80.8469 27.778 81.4482 27.778ZM82.538 21.4295H86.4403V25.6031H82.538V21.4295ZM58.5 42.6048H65.3052C65.9066 42.6048 66.395 42.1165 66.395 41.5151V34.4069C66.395 33.8055 65.9066 33.3172 65.3052 33.3172H58.5C57.8986 33.3172 57.4103 33.8055 57.4103 34.4069V41.5151C57.4103 42.1165 57.8986 42.6048 58.5 42.6048ZM59.5897 35.4967H64.22V40.4299H59.5897V35.4967ZM94.0366 43.8347H89.6821C89.4108 43.8347 89.1712 43.9432 88.9767 44.1105C89.031 43.9839 89.0581 43.8438 89.0581 43.6991V38.1328C89.0581 37.5314 88.5698 37.0431 87.9684 37.0431H82.6417C82.0404 37.0431 81.552 37.5314 81.552 38.1328V43.6991C81.552 44.3005 82.0404 44.7888 82.6417 44.7888H87.9684C88.2397 44.7888 88.4794 44.6803 88.6738 44.513C88.6195 44.6396 88.5924 44.7798 88.5924 44.9245V49.4733C88.5924 50.0747 89.0807 50.5631 89.6821 50.5631H94.0366C94.6379 50.5631 95.1263 50.0747 95.1263 49.4733V44.9245C95.1263 44.3231 94.638 43.8347 94.0366 43.8347ZM86.8877 42.6093H83.736V39.218H86.8877V42.6093ZM92.9513 48.3836H90.7719V46.0097H92.9513V48.3836ZM80.8421 39.3039V28.402C80.8421 27.8006 80.3537 27.3122 79.7523 27.3122H69.3116C68.7103 27.3122 68.2219 27.8006 68.2219 28.402V39.3039C68.2219 39.9053 68.7103 40.3936 69.3116 40.3936H79.7523C80.3537 40.3936 80.8421 39.9053 80.8421 39.3039ZM78.6671 38.2142H70.4014V29.4872H78.6671V38.2142ZM96.4102 27.5067H89.605C89.0037 27.5067 88.5153 27.995 88.5153 28.5964V35.7046C88.5153 36.306 89.0037 36.7943 89.605 36.7943H96.4102C97.0116 36.7943 97.5 36.306 97.5 35.7046V28.5964C97.5 27.995 97.0116 27.5067 96.4102 27.5067ZM95.3205 34.6148H90.6903V29.6816H95.3205V34.6148ZM88.1038 49.9074H81.2624C80.661 49.9074 80.1726 50.3958 80.1726 50.9972V58.1415C80.1726 58.7429 80.661 59.2313 81.2624 59.2313H88.1038C88.7052 59.2313 89.1935 58.7429 89.1935 58.1415V50.9972C89.1935 50.3958 88.7052 49.9074 88.1038 49.9074ZM87.014 57.0518H82.3477V52.0824H87.014V57.0518Z" fill="#151946"/>
<path d="M68.5343 73.768C68.5343 74.6904 67.7837 75.441 66.8612 75.441H61.9009C61.8647 75.441 61.833 75.4591 61.7969 75.4636C61.7245 75.4727 61.6522 75.4862 61.5843 75.5043C61.5165 75.5269 61.4577 75.5495 61.3944 75.5812C61.3311 75.6128 61.2769 75.6535 61.2271 75.6942C61.1729 75.7394 61.1231 75.7847 61.0779 75.8389C61.0327 75.8932 60.9965 75.9475 60.9649 76.0062C60.9287 76.0695 60.9016 76.1374 60.8789 76.2097C60.8699 76.2459 60.8428 76.273 60.8382 76.3092C60.2595 79.1398 59.1562 81.7986 57.56 84.2132C57.5374 84.2448 57.5374 84.281 57.5193 84.3126C57.4832 84.3805 57.456 84.4438 57.4379 84.5161C57.4198 84.5839 57.4063 84.6472 57.3972 84.7151C57.3927 84.7829 57.3927 84.8507 57.3972 84.9231C57.4063 84.9909 57.4153 85.0587 57.4379 85.1265C57.456 85.1944 57.4832 85.2532 57.5148 85.3164C57.551 85.3797 57.5872 85.4385 57.6369 85.4973C57.6595 85.5244 57.6685 85.5606 57.6957 85.5878L61.2045 89.0966C61.5165 89.4086 61.6928 89.8291 61.6928 90.2812C61.6928 90.7289 61.521 91.1494 61.2045 91.4659L58.3286 94.3417C58.0166 94.6537 57.5961 94.8301 57.144 94.8301C56.6963 94.8301 56.2758 94.6582 55.9593 94.3417L52.4505 90.8329C52.4234 90.8058 52.3917 90.7967 52.3601 90.7741C52.3013 90.7244 52.2425 90.6882 52.1792 90.652C52.1159 90.6204 52.0571 90.5933 51.9938 90.5752C51.926 90.5571 51.8627 90.5435 51.7903 90.5345C51.7225 90.5254 51.6547 90.5254 51.5823 90.5345C51.5145 90.539 51.4512 90.5526 51.3834 90.5752C51.311 90.5933 51.2477 90.6204 51.1799 90.6566C51.1483 90.6746 51.1121 90.6746 51.0804 90.6973C50.1399 91.3167 49.1361 91.8412 48.1142 92.316C47.9152 91.9588 47.6439 91.6513 47.3183 91.4071C47.3229 91.3302 47.3274 91.2669 47.3274 91.1855C47.3771 89.4945 47.454 86.9441 50.0313 83.9688C50.0313 83.9688 50.0313 83.9643 50.0359 83.9643C53.0292 80.9347 54.6797 76.924 54.6797 72.6645C54.6797 63.7973 47.4629 56.5801 38.5953 56.5801C29.7277 56.5801 22.5109 63.7969 22.5109 72.6645C22.5109 77.1862 24.4327 81.509 27.7743 84.5562C30.207 87.423 30.1798 89.7336 30.1618 91.2664V91.3478C29.7774 91.6146 29.4699 91.9764 29.2529 92.3924C28.1677 91.8995 27.105 91.3524 26.1103 90.6921C26.0787 90.6695 26.0425 90.6695 26.0108 90.6514C25.943 90.6153 25.8797 90.5881 25.8074 90.57C25.7395 90.552 25.6762 90.5384 25.6084 90.5293C25.5406 90.5248 25.4728 90.5248 25.4049 90.5293C25.3371 90.5384 25.2693 90.5474 25.2015 90.57C25.1381 90.5881 25.0749 90.6153 25.0161 90.6469C24.9528 90.6831 24.8894 90.7193 24.8352 90.769C24.8081 90.7916 24.7719 90.8007 24.7448 90.8278L21.2359 94.3366C20.5848 94.9877 19.5222 94.9877 18.8665 94.3366L15.9907 91.4607C15.6787 91.1487 15.5023 90.7282 15.5023 90.2761C15.5023 89.8284 15.6741 89.4079 15.9907 89.0914L19.4995 85.5826C19.5266 85.5555 19.5357 85.5238 19.5583 85.4922C19.6035 85.4334 19.6442 85.3746 19.6804 85.3113C19.712 85.248 19.7391 85.1892 19.7572 85.1214C19.7753 85.0536 19.7889 84.9903 19.7979 84.9179C19.807 84.8501 19.807 84.7823 19.7979 84.7099C19.7934 84.6421 19.7798 84.5788 19.7572 84.511C19.7391 84.4386 19.712 84.3753 19.6758 84.3075C19.6577 84.2758 19.6577 84.2397 19.6351 84.208C18.039 81.7889 16.9357 79.1301 16.3569 76.3041C16.3479 76.2679 16.3253 76.2407 16.3162 76.2046C16.2936 76.1322 16.2665 76.0689 16.2303 76.0011C16.1987 75.9423 16.1625 75.8835 16.1173 75.8338C16.072 75.7795 16.0268 75.7343 15.9726 75.6891C15.9183 75.6439 15.864 75.6077 15.8007 75.5761C15.742 75.5444 15.6786 75.5173 15.6108 75.4992C15.543 75.4766 15.4707 75.463 15.3983 75.454C15.3621 75.4494 15.3305 75.4314 15.2943 75.4314H10.3339C9.41149 75.4314 8.66089 74.6807 8.66089 73.7583V69.6933C8.66089 68.7709 9.4115 68.0203 10.3339 68.0203H15.2943C15.4345 68.0203 15.5656 67.9886 15.6877 67.9389C15.7284 67.9208 15.7646 67.8937 15.8053 67.8756C15.8821 67.8349 15.9545 67.7897 16.0178 67.7309C16.054 67.6947 16.0856 67.6585 16.1173 67.6179C16.167 67.5545 16.2122 67.4912 16.2484 67.4189C16.2755 67.3691 16.2936 67.3194 16.3117 67.2652C16.3253 67.2245 16.3479 67.1928 16.3569 67.1521C16.9357 64.326 18.039 61.6627 19.6351 59.2481C19.6577 59.2165 19.6577 59.1803 19.6758 59.1487C19.712 59.0808 19.7391 59.0175 19.7572 58.9452C19.7753 58.8774 19.7889 58.8141 19.7979 58.7462C19.8024 58.6739 19.8024 58.6106 19.7979 58.5382C19.7889 58.4704 19.7798 58.4026 19.7572 58.3393C19.7391 58.2714 19.712 58.2126 19.6803 58.1493C19.6442 58.086 19.608 58.0273 19.5583 57.9685C19.5356 57.9413 19.5266 57.9052 19.4995 57.878L15.9907 54.3692C15.3395 53.7181 15.3395 52.6555 15.9907 51.9998L18.8665 49.124C19.1785 48.812 19.599 48.6356 20.0512 48.6356C20.4988 48.6356 20.9193 48.8074 21.2358 49.124L24.7446 52.6328C24.7989 52.687 24.8667 52.7142 24.9255 52.7549C24.9707 52.782 25.0069 52.8182 25.0521 52.8408C25.1968 52.9086 25.3551 52.9538 25.5133 52.9538C25.6354 52.9538 25.7575 52.9267 25.8796 52.8815C25.9158 52.8679 25.9474 52.8498 25.9836 52.8362C26.0288 52.8136 26.074 52.8046 26.1147 52.7775C28.5338 51.1813 31.1926 50.078 34.0187 49.4992C34.0549 49.4902 34.082 49.4676 34.1182 49.4585C34.1905 49.4359 34.2538 49.4088 34.3171 49.3726C34.3804 49.341 34.4347 49.3048 34.4844 49.2596C34.5387 49.2144 34.5839 49.1692 34.6291 49.1149C34.6743 49.0606 34.7105 49.0064 34.7422 48.9431C34.7738 48.8843 34.8009 48.821 34.819 48.7532C34.8416 48.6808 34.8552 48.613 34.8643 48.5406C34.8688 48.5045 34.8869 48.4728 34.8869 48.4366V43.4762C34.8869 42.5538 35.6375 41.8032 36.5599 41.8032H40.6249C41.5473 41.8032 42.2979 42.5538 42.2979 43.4762V48.4366C42.2979 48.4728 42.316 48.5045 42.3205 48.5406C42.3296 48.613 42.3432 48.6853 42.3658 48.7532C42.3884 48.821 42.411 48.8798 42.4426 48.9431C42.4743 49.0064 42.515 49.0606 42.5557 49.1149C42.6009 49.1692 42.6461 49.2189 42.7004 49.2596C42.7546 49.3048 42.8089 49.341 42.8677 49.3726C42.931 49.4088 42.9988 49.4359 43.0666 49.4585C43.1028 49.4676 43.1299 49.4947 43.1661 49.4992C45.6667 50.0102 48.0315 50.9507 50.2246 52.2665V58.9949C50.2246 59.5963 50.7129 60.0846 51.3143 60.0846H58.0472C59.363 62.2776 60.308 64.6515 60.819 67.1566C60.828 67.1973 60.8506 67.229 60.8642 67.2697C60.8823 67.3239 60.9004 67.3737 60.9275 67.4234C60.9637 67.4958 61.0089 67.5591 61.0586 67.6224C61.0903 67.6631 61.1219 67.7038 61.1581 67.7354C61.2214 67.7942 61.2938 67.8394 61.3706 67.8801C61.4113 67.9027 61.443 67.9298 61.4882 67.9434C61.6148 67.9932 61.7459 68.0248 61.8816 68.0248H66.842C67.7644 68.0248 68.515 68.7754 68.515 69.6978V73.7629L68.5343 73.768Z" fill="#639C90"/>
<path d="M29.4346 83.1276C29.4165 83.1095 29.3939 83.1004 29.3758 83.0824C29.3577 83.0643 29.3487 83.0417 29.3306 83.0236C26.3869 80.3875 24.6958 76.6072 24.6958 72.6598C24.6958 64.9909 30.9358 58.7505 38.6051 58.7505C46.2744 58.7505 52.5144 64.9905 52.5144 72.6598C52.5144 76.3676 51.0719 79.8584 48.4494 82.4855C48.4403 82.4946 48.4358 82.5082 48.4268 82.5172C48.4177 82.5262 48.4042 82.5308 48.3951 82.5398C45.4651 85.9221 45.2344 88.9199 45.1711 90.819H40.898L40.9206 76.1735C41.2417 76.169 41.5853 76.169 41.9561 76.1645C43.5342 76.1464 44.8093 75.4365 45.37 74.2609C45.8493 73.2616 45.7091 72.1266 44.9947 71.2223C44.2215 70.2456 42.7835 69.8839 41.4134 70.327C40.0478 70.7701 39.1616 71.8825 39.1073 73.2254V73.2616V74.3468C38.9355 74.3423 38.7546 74.3423 38.5421 74.3377V73.2616V73.2254C38.4878 71.9186 37.6468 70.8244 36.3446 70.3722C34.979 69.8974 33.5095 70.2275 32.6819 71.1907C31.8997 72.1041 31.7143 73.1938 32.18 74.184C32.7452 75.3913 34.1696 76.1827 35.7251 76.1555C36.0913 76.1509 36.4259 76.1464 36.7379 76.1419L36.7605 90.8106H32.3518C32.3518 89.0335 32.1529 86.3205 29.4309 83.1191L29.4346 83.1276ZM38.5504 76.1822H39.1111L39.0885 90.8196H38.573L38.5504 76.1822ZM40.9246 74.36V73.2883C40.9652 72.4699 41.6706 72.1533 41.9781 72.0539C42.6112 71.8504 43.2849 71.9725 43.5788 72.3433C43.8592 72.696 43.9179 73.112 43.7416 73.4782C43.4839 74.0118 42.8101 74.3419 41.9419 74.3509C41.5757 74.3554 41.2411 74.36 40.9291 74.36L40.9246 74.36ZM36.7329 74.3373C36.4119 74.3419 36.0682 74.3419 35.6929 74.3509C34.7569 74.36 34.0424 73.8942 33.8209 73.4194C33.7621 73.2973 33.5858 72.922 34.056 72.3749C34.2776 72.1172 34.6664 71.977 35.0915 71.977C35.3085 71.977 35.5346 72.0132 35.7517 72.09C36.1044 72.2121 36.6922 72.5287 36.7329 73.2884L36.7329 74.3373Z" fill="white"/>
<path d="M45.6038 92.9937C45.9972 92.9937 46.3273 93.3237 46.3273 93.7171V95.0284C46.3273 95.4218 45.9972 95.7519 45.6038 95.7519H31.8265C31.4331 95.7519 31.103 95.4218 31.103 95.0284V93.7171C31.103 93.3237 31.4331 92.9937 31.8265 92.9937H45.6038ZM32.785 99.8034C32.5679 99.8034 32.3825 99.618 32.3825 99.4009V98.3248C32.3825 98.1077 32.5679 97.9223 32.785 97.9223H44.6454C44.8624 97.9223 45.0478 98.1077 45.0478 98.3248V99.4009C45.0478 99.618 44.8624 99.8034 44.6454 99.8034H32.785ZM38.7083 104.498C37.1483 104.498 35.6968 103.539 34.7337 101.979H42.6784C41.7153 103.539 40.2639 104.498 38.7038 104.498H38.7083Z" fill="#C9CCE0"/>
<path d="M52.4141 47.1035H62.6739V57.9149H52.4141V47.1035ZM77.1752 54.4832H67.7519V44.5445H77.1752V54.4832ZM82.5379 21.4297H86.4402V25.6033H82.5379V21.4297ZM59.5897 35.4969H64.22V40.4301H59.5897V35.4969ZM86.8876 42.6095H83.7359V39.2182H86.8876V42.6095ZM92.9513 48.3838H90.7718V46.0099H92.9513V48.3838ZM78.6671 38.2144H70.4014V29.4874H78.6671V38.2144ZM95.3205 34.615H90.6902V29.6818H95.3205V34.615ZM87.014 57.052H82.3476V52.0826H87.014V57.052Z" fill="#78CAB9"/>
<defs>
<filter id="filter0_d_3139_6575" x="0.5" y="0" width="103" height="103" filterUnits="userSpaceOnUse" color-interpolation-filters="sRGB">
<feFlood flood-opacity="0" result="BackgroundImageFix"/>
<feColorMatrix in="SourceAlpha" type="matrix" values="0 0 0 0 0 0 0 0 0 0 0 0 0 0 0 0 0 0 127 0" result="hardAlpha"/>
<feOffset dy="3"/>
<feGaussianBlur stdDeviation="3"/>
<feColorMatrix type="matrix" values="0 0 0 0 0.533333 0 0 0 0 0.533333 0 0 0 0 0.611765 0 0 0 0.12 0"/>
<feBlend mode="normal" in2="BackgroundImageFix" result="effect1_dropShadow_3139_6575"/>
<feBlend mode="normal" in="SourceGraphic" in2="effect1_dropShadow_3139_6575" result="shape"/>
</filter>
</defs>
</svg>
