<svg width="105" height="107" viewBox="0 0 105 107" fill="none" xmlns="http://www.w3.org/2000/svg">
<g filter="url(#filter0_d_3211_25375)">
<circle cx="52.3334" cy="48.5" r="45.5" fill="#EAF5FF"/>
</g>
<path d="M52.3334 29C44.6199 29 37.0797 31.2873 30.6662 35.5727C24.2526 39.8581 19.2539 45.949 16.3021 53.0753C13.3503 60.2017 12.5779 68.0433 14.0828 75.6085C15.5876 83.1738 19.302 90.1229 24.7562 95.5771C30.2105 101.031 37.1596 104.746 44.7249 106.251C52.2901 107.755 60.1317 106.983 67.258 104.031C74.3844 101.079 80.4753 96.0807 84.7607 89.6672C89.0461 83.2537 91.3334 75.7135 91.3334 68C91.3217 57.6601 87.209 47.7471 79.8976 40.4358C72.5862 33.1244 62.6732 29.0117 52.3334 29ZM51.0334 104.276C47.1451 103.616 43.4778 100.024 40.6256 94.0832C43.9061 95.5633 47.438 96.4064 51.0334 96.5675V104.276ZM53.6334 104.276V96.5675C57.2283 96.407 60.7598 95.5643 64.0399 94.0845C61.189 100.024 57.5217 103.62 53.6334 104.276ZM52.3334 94C47.1911 94 42.1642 92.4751 37.8886 89.6182C33.6129 86.7613 30.2804 82.7006 28.3125 77.9498C26.3446 73.1989 25.8298 67.9711 26.833 62.9276C27.8362 57.8841 30.3124 53.2514 33.9486 49.6152C37.5848 45.9791 42.2175 43.5028 47.261 42.4996C52.3045 41.4964 57.5323 42.0113 62.2832 43.9791C67.034 45.947 71.0947 49.2795 73.9516 53.5552C76.8085 57.8308 78.3334 62.8577 78.3334 68C78.3255 74.8932 75.5837 81.5018 70.7094 86.376C65.8352 91.2503 59.2266 93.9921 52.3334 94ZM15.9659 69.3H23.7659C24.0708 76.0871 26.791 82.5419 31.4359 87.5H21.6209C18.1425 82.0481 16.1896 75.7632 15.9659 69.3ZM23.7659 66.7H15.9659C16.1896 60.2368 18.1425 53.9519 21.6209 48.5H31.4385C26.7927 53.4577 24.0715 59.9125 23.7659 66.7ZM53.6334 31.73C57.4749 32.4099 61.1903 36.0564 64.0334 41.9116C60.7548 40.435 57.2256 39.5941 53.6334 39.4338V31.73ZM51.0334 31.73V39.4338C47.4412 39.5941 43.912 40.435 40.6334 41.9116C43.4765 36.0551 47.1919 32.4086 51.0334 31.73ZM80.9009 69.3H88.7009C88.4771 75.7632 86.5243 82.0481 83.0459 87.5H73.2283C77.8741 82.5423 80.5953 76.0874 80.9009 69.3ZM80.9009 66.7C80.596 59.9129 77.8758 53.4581 73.2309 48.5H83.0485C86.5269 53.9519 88.4797 60.2368 88.7035 66.7H80.9009ZM81.2298 45.9H70.4658C69.5951 45.1867 68.6836 44.5247 67.7358 43.9175C66.2335 39.6322 63.7775 35.744 60.5533 32.5464C68.7846 34.4672 76.0932 39.1873 81.2298 45.9ZM44.1187 32.5464C40.8944 35.744 38.4385 39.6322 36.9362 43.9175C35.9866 44.5245 35.0734 45.1865 34.201 45.9H23.437C28.5749 39.1863 35.8855 34.4661 44.1187 32.5464ZM23.437 90.1H34.201C35.0716 90.813 35.9832 91.4745 36.931 92.0812C38.4341 96.3674 40.8914 100.256 44.1174 103.454C35.8843 101.534 28.574 96.814 23.437 90.1ZM60.5455 103.454C63.7718 100.256 66.2295 96.3674 67.7332 92.0812C68.6819 91.4746 69.5943 90.8131 70.4658 90.1H81.2298C76.0916 96.8146 68.7799 101.535 60.5455 103.454Z" fill="#151946"/>
<path d="M52.3334 42C47.1911 42 42.1642 43.5249 37.8886 46.3818C33.6129 49.2387 30.2804 53.2993 28.3125 58.0502C26.3446 62.8011 25.8298 68.0288 26.833 73.0723C27.8362 78.1158 30.3124 82.7486 33.9486 86.3848C37.5848 90.0209 42.2175 92.4972 47.261 93.5004C52.3045 94.5036 57.5323 93.9887 62.2831 92.0209C67.034 90.053 71.0947 86.7205 73.9516 82.4448C76.8085 78.1691 78.3334 73.1423 78.3334 68C78.3253 61.1068 75.5835 54.4983 70.7093 49.6241C65.8351 44.7499 59.2265 42.008 52.3334 42Z" fill="#C9CCE0"/>
<path d="M51.0334 104.276C47.1451 103.616 43.4778 100.024 40.6256 94.0832C43.9061 95.5633 47.4381 96.4063 51.0334 96.5675V104.276ZM53.6334 104.276V96.5675C57.2283 96.4069 60.7599 95.5643 64.0399 94.0845C61.189 100.024 57.5217 103.62 53.6334 104.276ZM15.9659 69.3H23.7659C24.0708 76.0871 26.7911 82.5419 31.4359 87.5H21.6209C18.1425 82.0481 16.1897 75.7631 15.9659 69.3ZM23.7659 66.7H15.9659C16.1897 60.2368 18.1425 53.9519 21.6209 48.5H31.4385C26.7927 53.4577 24.0715 59.9125 23.7659 66.7ZM53.6334 31.73C57.4749 32.4099 61.1903 36.0564 64.0334 41.9116C60.7548 40.4349 57.2257 39.5941 53.6334 39.4338V31.73ZM51.0334 31.73V39.4338C47.4412 39.5941 43.9121 40.4349 40.6334 41.9116C43.4765 36.0551 47.1919 32.4086 51.0334 31.73ZM80.9009 69.3H88.7009C88.4772 75.7631 86.5244 82.0481 83.0459 87.5H73.2283C77.8742 82.5422 80.5953 76.0874 80.9009 69.3ZM80.9009 66.7C80.596 59.9129 77.8758 53.4581 73.2309 48.5H83.0485C86.527 53.9519 88.4798 60.2368 88.7035 66.7H80.9009ZM81.2298 45.9H70.4658C69.5952 45.1866 68.6836 44.5247 67.7358 43.9175C66.2335 39.6322 63.7776 35.744 60.5533 32.5464C68.7847 34.4672 76.0933 39.1873 81.2298 45.9ZM44.1187 32.5464C40.8945 35.744 38.4385 39.6322 36.9362 43.9175C35.9867 44.5245 35.0734 45.1865 34.201 45.9H23.437C28.5749 39.1863 35.8855 34.4661 44.1187 32.5464ZM23.437 90.1H34.201C35.0717 90.813 35.9832 91.4745 36.931 92.0812C38.4341 96.3674 40.8914 100.256 44.1174 103.454C35.8844 101.534 28.5741 96.8139 23.437 90.1ZM60.5455 103.454C63.7718 100.256 66.2296 96.3674 67.7332 92.0812C68.6819 91.4746 69.5943 90.813 70.4658 90.1H81.2298C76.0917 96.8145 68.7799 101.535 60.5455 103.454Z" fill="#639C90"/>
<path d="M52.3334 44.6001C47.7053 44.6001 43.1811 45.9725 39.333 48.5437C35.4849 51.1149 32.4857 54.7695 30.7146 59.0453C28.9435 63.3211 28.4801 68.0261 29.383 72.5652C30.2859 77.1044 32.5145 81.2738 35.7871 84.5464C39.0596 87.8189 43.2291 90.0476 47.7682 90.9505C52.3074 91.8534 57.0124 91.39 61.2881 89.6189C65.5639 87.8478 69.2185 84.8485 71.7897 81.0004C74.361 77.1523 75.7334 72.6282 75.7334 68.0001C75.7261 61.7962 73.2585 55.8486 68.8717 51.4618C64.4849 47.075 58.5372 44.6073 52.3334 44.6001ZM52.3334 88.8001C48.2195 88.8001 44.198 87.5802 40.7775 85.2947C37.357 83.0091 34.691 79.7606 33.1167 75.9599C31.5424 72.1592 31.1305 67.977 31.933 63.9422C32.7356 59.9074 34.7166 56.2012 37.6255 53.2923C40.5345 50.3833 44.2407 48.4023 48.2755 47.5998C52.3103 46.7972 56.4925 47.2091 60.2932 48.7834C64.0939 50.3577 67.3424 53.0237 69.6279 56.4442C71.9135 59.8648 73.1334 63.8862 73.1334 68.0001C73.1268 73.5146 70.9333 78.8013 67.034 82.7007C63.1346 86.6 57.8479 88.7935 52.3334 88.8001Z" fill="#151946"/>
<path d="M52.3327 88.8002C48.2189 88.8002 44.1974 87.5803 40.7769 85.2948C37.3563 83.0092 34.6903 79.7607 33.116 75.96C31.5417 72.1593 31.1298 67.9771 31.9324 63.9423C32.735 59.9075 34.716 56.2013 37.6249 53.2924C40.5338 50.3834 44.24 48.4024 48.2748 47.5999C52.3097 46.7973 56.4918 47.2092 60.2925 48.7835C64.0932 50.3578 67.3418 53.0238 69.6273 56.4443C71.9128 59.8649 73.1327 63.8864 73.1327 68.0002C73.1262 73.5147 70.9327 78.8015 67.0333 82.7008C63.134 86.6001 57.8472 88.7937 52.3327 88.8002Z" fill="white"/>
<path d="M52.3334 58.4937C45.9825 58.4937 40.3336 61.8135 37.941 66.9506C37.6302 67.6167 37.6302 68.3823 37.941 69.0485C40.3329 74.1855 45.9825 77.5054 52.3334 77.5054C58.6843 77.5054 64.3332 74.1855 66.7259 69.0485C67.0367 68.3823 67.0367 67.6167 66.7259 66.9506C64.334 61.8135 58.6843 58.4937 52.3334 58.4937ZM65.4001 68.4321C63.2473 73.0558 58.1176 76.0437 52.3334 76.0437C46.5492 76.0437 41.4195 73.0558 39.2667 68.4321C39.1388 68.1571 39.1388 67.8427 39.2667 67.5677C41.4195 62.944 46.5492 59.9562 52.3334 59.9562C58.1176 59.9562 63.2473 62.944 65.4001 67.5677C65.5281 67.8427 65.5281 68.1571 65.4001 68.4321Z" fill="#151946" stroke="#151946" stroke-width="0.4"/>
<path d="M65.4002 68.432C63.2474 73.0557 58.1176 76.0436 52.3335 76.0436C46.5493 76.0436 41.4196 73.0557 39.2668 68.432C39.1388 68.157 39.1388 67.8426 39.2668 67.5676C41.4196 62.9439 46.5493 59.9561 52.3335 59.9561C58.1176 59.9561 63.2474 62.9439 65.4002 67.5676C65.5281 67.8426 65.5281 68.157 65.4002 68.432Z" fill="#78CAB9"/>
<path d="M52.332 63.4185C49.5989 63.4185 47.3757 65.6417 47.3757 68.3749C47.3757 71.1081 49.5989 73.3313 52.332 73.3313C55.0651 73.3313 57.2882 71.1081 57.2882 68.3749C57.2882 65.6417 55.0651 63.4185 52.332 63.4185ZM52.332 72.2299C50.2069 72.2299 48.4771 70.5001 48.4771 68.3749C48.4771 66.2497 50.2069 64.5199 52.332 64.5199C54.4571 64.5199 56.1868 66.2497 56.1868 68.3749C56.1868 70.5001 54.4571 72.2299 52.332 72.2299Z" fill="#151946" stroke="#151946" stroke-width="0.4"/>
<path d="M52.332 72.23C50.2069 72.23 48.4772 70.5002 48.4772 68.375C48.4772 66.2498 50.2069 64.52 52.332 64.52C54.4572 64.52 56.1869 66.2498 56.1869 68.375C56.1869 70.5002 54.4572 72.23 52.332 72.23Z" fill="white"/>
<path d="M43.1525 54.9603C42.8161 55.1848 42.7254 55.6382 42.9499 55.9746L44.4124 58.1683C44.5528 58.3797 44.7854 58.4937 45.0216 58.4937C45.1605 58.4937 45.3016 58.4535 45.4267 58.3709C45.763 58.1464 45.8537 57.693 45.6292 57.3567L44.1667 55.1629C43.943 54.8265 43.4896 54.7366 43.1525 54.9603Z" fill="#151946"/>
<path d="M51.6017 54.1062V56.3C51.6017 56.7044 51.9286 57.0312 52.3329 57.0312C52.7373 57.0312 53.0642 56.7044 53.0642 56.3V54.1062C53.0642 53.7019 52.7373 53.375 52.3329 53.375C51.9286 53.375 51.6017 53.7019 51.6017 54.1062Z" fill="#151946"/>
<path d="M60.5 55.1629L59.0375 57.3567C58.813 57.693 58.9036 58.1464 59.24 58.3709C59.3651 58.4535 59.5055 58.4937 59.6451 58.4937C59.8813 58.4937 60.1139 58.3797 60.2543 58.1683L61.7168 55.9746C61.9412 55.6382 61.8506 55.1848 61.5142 54.9603C61.1771 54.7366 60.7237 54.8265 60.5 55.1629Z" fill="#151946"/>
<path d="M44.1667 80.8371L45.6292 78.6434C45.8537 78.307 45.763 77.8536 45.4267 77.6291C45.0888 77.4046 44.6362 77.4953 44.4124 77.8317L42.9499 80.0254C42.7254 80.3618 42.8161 80.8152 43.1525 81.0397C43.2775 81.1223 43.4179 81.1625 43.5576 81.1625C43.7938 81.1625 44.0263 81.0485 44.1667 80.8371Z" fill="#151946"/>
<path d="M53.0642 81.8937V79.7C53.0642 79.2956 52.7373 78.9688 52.3329 78.9688C51.9286 78.9688 51.6017 79.2956 51.6017 79.7V81.8937C51.6017 82.2981 51.9286 82.625 52.3329 82.625C52.7373 82.625 53.0642 82.2981 53.0642 81.8937Z" fill="#151946"/>
<path d="M61.1091 81.1625C61.248 81.1625 61.3892 81.1223 61.5142 81.0397C61.8506 80.8152 61.9412 80.3618 61.7168 80.0254L60.2543 77.8317C60.0298 77.4953 59.5764 77.4046 59.24 77.6291C58.9036 77.8536 58.813 78.307 59.0375 78.6434L60.5 80.8371C60.6404 81.0485 60.8729 81.1625 61.1091 81.1625Z" fill="#151946"/>
<defs>
<filter id="filter0_d_3211_25375" x="0.833374" y="0" width="103" height="103" filterUnits="userSpaceOnUse" color-interpolation-filters="sRGB">
<feFlood flood-opacity="0" result="BackgroundImageFix"/>
<feColorMatrix in="SourceAlpha" type="matrix" values="0 0 0 0 0 0 0 0 0 0 0 0 0 0 0 0 0 0 127 0" result="hardAlpha"/>
<feOffset dy="3"/>
<feGaussianBlur stdDeviation="3"/>
<feColorMatrix type="matrix" values="0 0 0 0 0.533333 0 0 0 0 0.533333 0 0 0 0 0.611765 0 0 0 0.12 0"/>
<feBlend mode="normal" in2="BackgroundImageFix" result="effect1_dropShadow_3211_25375"/>
<feBlend mode="normal" in="SourceGraphic" in2="effect1_dropShadow_3211_25375" result="shape"/>
</filter>
</defs>
</svg>
