<svg width="104" height="107" viewBox="0 0 104 107" fill="none" xmlns="http://www.w3.org/2000/svg">
<g filter="url(#filter0_d_3139_6602)">
<circle cx="52" cy="48.5" r="45.5" fill="#EAF5FF"/>
</g>
<path fill-rule="evenodd" clip-rule="evenodd" d="M47.9131 44.2351C47.3762 43.6981 47.3762 42.8218 47.9131 42.2849C48.4501 41.748 49.3264 41.748 49.8632 42.2849L51.9165 44.3382L56.0144 37.2421C56.3967 36.5806 57.2387 36.3572 57.8958 36.7395C58.5573 37.1218 58.7807 37.9638 58.3984 38.6209L53.4027 47.2763C53.1879 47.65 52.8142 47.8991 52.389 47.955C52.3288 47.9636 52.2687 47.9679 52.2086 47.9679C51.8434 47.9679 51.4955 47.8261 51.2335 47.5641L47.9131 44.2351ZM67.8354 85.1319L52.3755 95.9951L36.9156 85.1319C31.877 81.5967 28.6167 76.644 27.4483 70.8838L34.6303 70.8924C34.7678 71.5539 35.0728 72.1896 35.5582 72.7266C36.2368 73.474 37.1346 73.895 38.0667 73.9894C38.1182 74.8485 38.449 75.699 39.0718 76.3863C39.7634 77.1466 40.7728 77.6106 41.8466 77.6621C41.9111 77.6621 41.9712 77.6664 42.0356 77.6664H42.0657C42.186 78.3838 42.4996 79.071 43.0236 79.6509C43.7195 80.4155 44.6473 80.8365 45.6009 80.9181C45.6654 81.7858 46.009 82.6018 46.6018 83.2505C47.302 84.0237 48.2641 84.4748 49.3122 84.5263C49.3766 84.5306 49.4411 84.5306 49.5055 84.5306C50.4806 84.5306 51.4084 84.1741 52.13 83.5212L52.392 83.2849L52.6712 83.5427C53.3929 84.2085 54.3078 84.5349 55.2185 84.5349C56.2322 84.5349 57.2416 84.1269 57.9804 83.3278L58.2081 83.0787C58.5431 82.7136 58.8009 82.2969 58.9684 81.8459C60.2785 82.2024 61.7389 81.8373 62.7227 80.772L62.9503 80.5229C63.2639 80.1836 63.5002 79.8013 63.6677 79.3975C65.038 79.87 66.6187 79.5264 67.6625 78.3967L67.8901 78.1475C68.4571 77.529 68.7793 76.773 68.8652 75.9998C69.7973 75.9139 70.6521 75.4972 71.2878 74.8057L71.5155 74.5566C72.4519 73.5386 72.7183 72.1425 72.3402 70.9054L77.3015 70.9011C76.1331 76.6442 72.8729 81.5969 67.8342 85.1316L67.8354 85.1319ZM52.3755 27.736C44.9959 33.8613 36.456 38.7885 26.9594 42.392V48.5904L34.6698 48.599C35.1122 48.5689 35.5117 48.4701 35.9499 48.2811C43.0933 45.197 48.664 48.5775 52.427 51.8421C52.8608 51.4899 53.2817 51.1377 53.6898 50.794C55.9535 48.8997 57.9036 47.2589 60.7816 46.9926C62.5943 46.825 64.6304 47.2417 67.0101 48.2684C67.5427 48.496 68.0152 48.5948 68.5951 48.5948H68.5994L77.7875 48.5862V42.3879C68.2945 38.784 59.7552 33.8611 52.3755 27.736ZM70.116 68.1347L58.9173 57.8041C58.3889 57.3187 57.5814 57.3187 57.053 57.8041C55.7386 59.0069 54.669 60.012 53.6854 60.9656C51.9543 62.6451 49.7893 62.0695 46.7267 60.914C48.7757 58.8779 50.8161 56.9621 53.273 54.6942C54.072 54.08 54.7807 53.4829 55.468 52.9116C57.5341 51.1805 59.0247 49.9306 61.0435 49.7415C62.3838 49.617 63.9774 49.9649 65.9232 50.8025C66.7995 51.1805 67.65 51.3566 68.5993 51.3566H68.6036L77.7874 51.348V65.9788C77.7874 66.7047 77.7573 67.4221 77.6972 68.1308L70.116 68.1347ZM48.3464 80.5574C48.3335 80.8666 48.4366 81.163 48.6428 81.3907C48.849 81.6183 49.1325 81.7472 49.4417 81.7644C49.751 81.7773 50.0474 81.6742 50.2751 81.468L51.6625 80.2095C52.135 79.7799 52.1693 79.0497 51.7398 78.5729C51.5336 78.3452 51.2501 78.2163 50.9408 78.1992H50.8807C50.5929 78.1992 50.318 78.3022 50.1075 78.4955L48.7201 79.7541C48.4967 79.9646 48.3636 80.2481 48.3464 80.5574ZM39.2313 70.9526L39.2356 70.9569C39.27 70.9226 39.3001 70.8882 39.3387 70.8538L41.8988 68.53C42.3713 68.1004 42.4057 67.3702 41.9761 66.8977C41.7699 66.67 41.4865 66.5368 41.1772 66.524C40.8679 66.5111 40.5715 66.6142 40.3439 66.8203L37.6806 69.2387C37.2081 69.6682 37.1738 70.3985 37.6033 70.871C38.0286 71.3435 38.7588 71.3822 39.2313 70.9526ZM43.2906 74.1141L45.0302 72.5377C45.1247 72.4518 45.2192 72.3744 45.318 72.3014L45.3051 72.2885C45.5328 72.0824 45.6659 71.7989 45.6788 71.4853C45.6917 71.176 45.5886 70.8796 45.3824 70.652C44.9529 70.1795 44.2226 70.1451 43.7501 70.5746L41.19 72.8985C40.7175 73.3281 40.6832 74.0583 41.1127 74.5308C41.3146 74.7542 41.6282 74.8874 41.9718 74.9045C42.2725 74.9174 42.5603 74.8401 42.7794 74.6855C42.9254 74.4836 43.0973 74.2945 43.2906 74.1141ZM46.6969 77.8684L46.7055 77.877C46.7571 77.8212 46.8129 77.7653 46.8688 77.7138L48.2562 76.4552C48.3163 76.3994 48.3807 76.3521 48.4452 76.3006L48.4366 76.292C48.6642 76.0858 48.7974 75.8023 48.8103 75.493C48.8232 75.1838 48.7201 74.8874 48.5139 74.6597C48.3077 74.4321 48.0242 74.2989 47.7149 74.286C47.4057 74.2688 47.1093 74.3762 46.8816 74.5824L45.142 76.1589C44.6695 76.5884 44.6351 77.3187 45.0647 77.7912C45.4942 78.2637 46.2244 78.298 46.6969 77.8684ZM65.812 74.8487C65.2536 74.3332 65.2193 73.4613 65.7347 72.9029C66.2502 72.3444 67.1221 72.3058 67.6848 72.8255L67.8523 72.9802C68.0456 73.1606 68.3034 73.2508 68.5697 73.2422C68.836 73.2293 69.0851 73.1176 69.2655 72.9243L69.4975 72.6752C69.8712 72.2714 69.8454 71.6357 69.4417 71.2619L57.99 60.695C57.1051 61.5112 56.3319 62.2413 55.6102 62.9416C52.4187 66.0301 48.5356 64.5481 45.4128 63.3625C44.8501 63.1478 44.3175 62.9416 43.8021 62.7698C43.351 62.6194 43.0117 62.2457 42.9 61.7861C42.7883 61.3222 42.9215 60.8368 43.2565 60.4974C45.5633 58.1393 47.7324 56.0688 50.3269 53.6677C45.6147 49.7029 41.5813 48.8567 37.0542 50.8111C36.3025 51.1376 35.5895 51.3094 34.8034 51.3524H34.7217L26.9684 51.3438V65.9745C26.9684 66.7005 26.9984 67.4178 27.0586 68.1265L35.0783 68.1351C35.2759 67.7958 35.525 67.4779 35.8343 67.1987L38.5018 64.7804C39.275 64.0802 40.2758 63.7237 41.3196 63.7709C42.3677 63.8225 43.3299 64.2735 44.03 65.0467C44.6786 65.7641 45.0137 66.6575 45.0395 67.5552C45.9286 67.6712 46.7877 68.0879 47.4364 68.8009C48.1322 69.5698 48.4931 70.5664 48.4458 71.6059C49.2619 71.7691 50.0008 72.1815 50.5678 72.8087C51.2422 73.5518 51.5944 74.5054 51.5772 75.5105C52.432 75.6608 53.2052 76.0775 53.7937 76.7262C54.9535 78.0062 55.1081 79.8489 54.3048 81.275L54.554 81.5027C54.9577 81.8764 55.5935 81.8506 55.9672 81.4469L56.1949 81.1977C56.3753 81.0044 56.4698 80.7467 56.4569 80.4804C56.444 80.2141 56.3323 79.9649 56.139 79.7845C55.5806 79.2691 55.542 78.3971 56.0617 77.8344C56.5772 77.276 57.4491 77.2416 58.0118 77.7571L59.3005 78.9469C59.7043 79.3206 60.34 79.2948 60.7138 78.8911L60.9414 78.6419C61.3151 78.2339 61.2894 77.6024 60.8856 77.2287C60.3272 76.7132 60.2928 75.8413 60.8083 75.2786C61.3237 74.7202 62.1957 74.6858 62.7584 75.2012C62.7627 75.2012 62.7627 75.2055 62.7627 75.2055L64.2404 76.5672C64.6441 76.9409 65.2799 76.9152 65.6536 76.5114L65.8813 76.2623C66.255 75.8585 66.2292 75.227 65.8254 74.8534L65.812 74.8487ZM80.6528 55.6478C80.6013 53.7664 80.5497 51.8205 80.5497 49.9648V41.4297C80.5497 40.8542 80.1889 40.3344 79.6477 40.1368C69.5704 36.4212 60.9405 31.4341 53.2738 24.8792C52.7584 24.4368 51.998 24.4368 51.4826 24.8792C43.8151 31.4298 35.1859 36.4211 25.1088 40.1368C24.5675 40.3344 24.2067 40.8541 24.2067 41.4297V65.9738C24.2067 74.7452 28.1586 82.3486 35.3362 87.3915L51.59 98.8091C51.8263 98.9767 52.1055 99.0583 52.3847 99.0583C52.6639 99.0583 52.9388 98.9767 53.1794 98.8091L69.4332 87.3915C75.5586 83.0917 79.33 76.9192 80.3051 69.7544C80.3093 69.7329 80.3136 69.7114 80.3179 69.6899C80.3351 69.5482 80.3523 69.4021 80.3695 69.2561C80.3738 69.2346 80.3738 69.2131 80.3781 69.1959C80.9021 64.7759 80.7774 60.1362 80.6528 55.6478ZM84.2911 65.9741V37.8606L80.9406 36.6235C71.4175 33.1141 62.9251 28.2045 55.7005 22.0313L52.3715 19.1877L49.0426 22.0313C41.8176 28.2039 33.3254 33.1135 23.8025 36.6235L20.452 37.8606V65.9741C20.452 75.9955 24.9708 84.69 33.1704 90.4544L52.3669 103.938L71.5634 90.4544C79.7764 84.6941 84.2911 75.9996 84.2911 65.9741ZM86.1467 35.6053L81.8942 34.0374C72.6804 30.6397 64.4671 25.8975 57.492 19.94L53.2696 16.3318C52.7542 15.8894 51.9938 15.8894 51.4784 16.3318L47.256 19.94C40.2801 25.9021 32.071 30.6443 22.8538 34.0374L18.6013 35.6053C18.06 35.8072 17.6992 36.3226 17.6992 36.8982V65.9739C17.6992 76.923 22.6347 86.4163 31.591 92.7084L51.5825 106.751C51.8188 106.918 52.098 107 52.3772 107C52.6564 107 52.9313 106.914 53.1719 106.751L73.159 92.7128C82.1193 86.4199 87.0508 76.923 87.0508 65.9783V36.9026C87.0508 36.3227 86.6942 35.8073 86.1487 35.6054L86.1467 35.6053Z" fill="#151946"/>
<path fill-rule="evenodd" clip-rule="evenodd" d="M80.8676 55.6476C80.8157 53.7662 80.7638 51.8203 80.7638 49.9646V41.4295C80.7638 40.8539 80.4002 40.3342 79.8549 40.1366C69.7016 36.421 61.0066 31.4339 53.282 24.879C52.7626 24.4366 51.9966 24.4366 51.4773 24.879C43.7519 31.4296 35.0576 36.4209 24.9044 40.1366C24.359 40.3342 23.9955 40.8539 23.9955 41.4295V65.9736C23.9955 74.745 27.9772 82.3484 35.209 87.3913L51.5855 98.8089C51.8235 98.9764 52.1048 99.0581 52.3862 99.0581C52.6675 99.0581 52.9445 98.9764 53.1868 98.8089L69.5633 87.3913C75.7349 83.0915 79.5348 76.919 80.5172 69.7542C80.5216 69.7327 80.5259 69.7112 80.5302 69.6897C80.5475 69.548 80.5648 69.4019 80.5822 69.2559C80.5865 69.2344 80.5865 69.2129 80.5908 69.1957C81.1188 64.7757 80.9931 60.136 80.8676 55.6476ZM84.5334 65.9739V37.8604L81.1576 36.6233C71.5626 33.1139 63.0061 28.2042 55.727 22.0311L52.3729 19.1875L49.0188 22.0311C41.7393 28.2037 33.183 33.1133 23.5882 36.6233L20.2124 37.8604V65.9739C20.2124 75.9953 24.7654 84.6898 33.0269 90.4542L52.3682 103.938L71.7096 90.4542C79.9846 84.6939 84.5334 75.9994 84.5334 65.9739Z" fill="#639C90"/>
<path fill-rule="evenodd" clip-rule="evenodd" d="M70.2492 68.1345L58.9659 57.804C58.4336 57.3186 57.62 57.3186 57.0876 57.804C55.7633 59.0067 54.6856 60.0118 53.6945 60.9654C51.9504 62.6449 49.7691 62.0694 46.6834 60.9139C48.7478 58.8778 50.8036 56.962 53.2791 54.6941C54.0841 54.0798 54.7982 53.4827 55.4906 52.9114C57.5723 51.1804 59.0742 49.9304 61.1082 49.7414C62.4586 49.6168 64.0642 49.9648 66.0247 50.8024C66.9076 51.1804 67.7645 51.3565 68.721 51.3565H68.7253L77.9784 51.3479V65.9787C77.9784 66.7046 77.9481 67.4219 77.8876 68.1307L70.2492 68.1345ZM48.3153 80.5572C48.3023 80.8665 48.4061 81.1629 48.6139 81.3905C48.8216 81.6182 49.1073 81.7471 49.4189 81.7642C49.7305 81.7771 50.0291 81.674 50.2585 81.4679L51.6564 80.2093C52.1324 79.7798 52.1671 79.0495 51.7343 78.5727C51.5265 78.3451 51.2409 78.2162 50.9293 78.199H50.8687C50.5787 78.199 50.3017 78.3021 50.0897 78.4954L48.6918 79.7539C48.4667 79.9644 48.3326 80.2479 48.3153 80.5572ZM39.1314 70.9525L39.1357 70.9568C39.1704 70.9224 39.2007 70.8881 39.2396 70.8537L41.819 68.5298C42.2951 68.1003 42.3297 67.37 41.8969 66.8975C41.6892 66.6698 41.4035 66.5367 41.0919 66.5238C40.7803 66.5109 40.4817 66.614 40.2523 66.8202L37.569 69.2385C37.0929 69.6681 37.0583 70.3983 37.4911 70.8708C37.9195 71.3433 38.6553 71.382 39.1314 70.9525ZM43.2213 74.114L44.974 72.5375C45.0693 72.4516 45.1645 72.3743 45.264 72.3013L45.251 72.2884C45.4804 72.0822 45.6146 71.7987 45.6275 71.4851C45.6405 71.1759 45.5367 70.8795 45.3289 70.6518C44.8961 70.1793 44.1604 70.1449 43.6843 70.5745L41.1049 72.8984C40.6288 73.3279 40.5942 74.0582 41.027 74.5307C41.2304 74.754 41.5463 74.8872 41.8926 74.9044C42.1955 74.9173 42.4855 74.8399 42.7062 74.6853C42.8534 74.4834 43.0265 74.2944 43.2213 74.114ZM46.6533 77.8683L46.662 77.8769C46.7139 77.821 46.7702 77.7652 46.8265 77.7136L48.2244 76.4551C48.2849 76.3992 48.3499 76.352 48.4148 76.3004L48.4061 76.2919C48.6355 76.0857 48.7697 75.8022 48.7827 75.4929C48.7956 75.1836 48.6918 74.8872 48.484 74.6596C48.2763 74.4319 47.9907 74.2988 47.679 74.2859C47.3674 74.2687 47.0688 74.3761 46.8394 74.5823L45.0867 76.1587C44.6106 76.5883 44.576 77.3185 45.0088 77.791C45.4416 78.2635 46.1773 78.2978 46.6533 77.8683ZM65.9127 74.8485C65.3501 74.3331 65.3155 73.4611 65.8348 72.9027C66.3542 72.3443 67.2327 72.3056 67.7996 72.8254L67.9684 72.98C68.1632 73.1604 68.4229 73.2506 68.6912 73.242C68.9595 73.2292 69.2105 73.1175 69.3923 72.9242L69.626 72.6751C70.0025 72.2713 69.9766 71.6355 69.5698 71.2618L58.0316 60.6949C57.1401 61.511 56.3611 62.2412 55.6339 62.9414C52.4183 66.0299 48.5059 64.5479 45.3595 63.3624C44.7926 63.1476 44.2559 62.9414 43.7366 62.7696C43.2822 62.6193 42.9403 62.2456 42.8278 61.786C42.7152 61.3221 42.8494 60.8367 43.187 60.4973C45.5111 58.1391 47.6966 56.0687 50.3107 53.6675C45.563 49.7027 41.4991 48.8566 36.9378 50.811C36.1805 51.1374 35.4621 51.3092 34.67 51.3522H34.5878L26.7759 51.3436V65.9744C26.7759 66.7003 26.8062 67.4177 26.8668 68.1264L34.947 68.135C35.1461 67.7956 35.3971 67.4777 35.7087 67.1986L38.3963 64.7802C39.1754 64.08 40.1838 63.7235 41.2355 63.7708C42.2915 63.8223 43.2609 64.2733 43.9663 65.0466C44.6198 65.7639 44.9574 66.6573 44.9834 67.5551C45.8792 67.6711 46.7448 68.0877 47.3984 68.8008C48.0995 69.5697 48.463 70.5662 48.4154 71.6057C49.2377 71.769 49.9822 72.1813 50.5534 72.8085C51.2329 73.5516 51.5878 74.5053 51.5705 75.5103C52.4317 75.6607 53.2108 76.0773 53.8036 76.726C54.9722 78.0061 55.128 79.8488 54.3187 81.2749L54.5697 81.5025C54.9765 81.8763 55.617 81.8505 55.9936 81.4467L56.223 81.1976C56.4047 81.0043 56.5 80.7465 56.487 80.4802C56.474 80.2139 56.3615 79.9648 56.1667 79.7844C55.6041 79.2689 55.5651 78.3969 56.0888 77.8343C56.6082 77.2759 57.4867 77.2415 58.0536 77.7569L59.352 78.9468C59.7589 79.3205 60.3994 79.2947 60.776 78.8909L61.0053 78.6418C61.3819 78.2337 61.3559 77.6023 60.9491 77.2285C60.3865 76.7131 60.3518 75.8411 60.8712 75.2784C61.3905 74.72 62.2691 74.6856 62.836 75.2011C62.8403 75.2011 62.8403 75.2054 62.8403 75.2054L64.3292 76.5671C64.736 76.9408 65.3765 76.915 65.7531 76.5112L65.9825 76.2621C66.359 75.8583 66.3331 75.2269 65.9262 74.8532L65.9127 74.8485Z" fill="white"/>
<path fill-rule="evenodd" clip-rule="evenodd" d="M67.953 85.1317L52.3764 95.995L36.7999 85.1317C31.7233 81.5966 28.4383 76.6438 27.2611 70.8836L34.4973 70.8922C34.6358 71.5537 34.9431 72.1895 35.4322 72.7264C36.116 73.4739 37.0205 73.8948 37.9596 73.9893C38.0115 74.8484 38.3448 75.6989 38.9723 76.3862C39.6691 77.1465 40.6862 77.6104 41.7681 77.662C41.833 77.662 41.8936 77.6663 41.9586 77.6663H41.9888C42.11 78.3836 42.426 79.0708 42.954 79.6508C43.6551 80.4154 44.59 80.8363 45.5508 80.9179C45.6157 81.7856 45.9619 82.6017 46.5592 83.2504C47.2646 84.0235 48.234 84.4746 49.29 84.5262C49.3549 84.5305 49.4199 84.5305 49.4848 84.5305C50.4672 84.5305 51.4021 84.1739 52.1291 83.521L52.3931 83.2848L52.6744 83.5425C53.4015 84.2083 54.3234 84.5348 55.2409 84.5348C56.2622 84.5348 57.2793 84.1267 58.0237 83.3277L58.2531 83.0785C58.5906 82.7134 58.8503 82.2968 59.0191 81.8457C60.3391 82.2023 61.8106 81.8371 62.8017 80.7719L63.0311 80.5227C63.3471 80.1834 63.5851 79.8011 63.7539 79.3974C65.1345 79.8699 66.7271 79.5262 67.7788 78.3965L68.0082 78.1474C68.5795 77.5288 68.9041 76.7728 68.9906 75.9997C69.9298 75.9138 70.791 75.4971 71.4315 74.8056L71.6609 74.5564C72.6044 73.5384 72.8728 72.1424 72.4919 70.9053L77.4906 70.901C76.3134 76.6441 73.0297 81.597 67.953 85.1317ZM52.3764 27.7358C44.9412 33.8612 36.3368 38.7884 26.7686 42.3919V48.5902L34.5371 48.5988C34.9829 48.5688 35.3854 48.47 35.8269 48.281C43.0242 45.1968 48.6369 48.5774 52.4283 51.8419C52.8654 51.4897 53.2895 51.1375 53.7007 50.7939C55.9815 48.8995 57.9463 47.2587 60.846 46.9924C62.6723 46.8249 64.7238 47.2415 67.1215 48.2682C67.6582 48.4959 68.1342 48.5947 68.7185 48.5947H68.7228L77.9802 48.5861V42.3877C68.4156 38.7838 59.8119 33.861 52.3764 27.7358Z" fill="#78CAB9"/>
<path fill-rule="evenodd" clip-rule="evenodd" d="M47.6191 44.2349C47.0781 43.698 47.0781 42.8216 47.6191 42.2848C48.1601 41.7479 49.043 41.7479 49.5839 42.2848L51.6527 44.338L55.7816 37.2419C56.1667 36.5804 57.015 36.3571 57.6771 36.7394C58.3436 37.1217 58.5687 37.9636 58.1835 38.6207L53.1501 47.2761C52.9337 47.6498 52.5572 47.899 52.1287 47.9548C52.0681 47.9634 52.0075 47.9677 51.947 47.9677C51.5791 47.9677 51.2285 47.826 50.9645 47.5639L47.6191 44.2349Z" fill="#151946"/>
<defs>
<filter id="filter0_d_3139_6602" x="0.5" y="0" width="103" height="103" filterUnits="userSpaceOnUse" color-interpolation-filters="sRGB">
<feFlood flood-opacity="0" result="BackgroundImageFix"/>
<feColorMatrix in="SourceAlpha" type="matrix" values="0 0 0 0 0 0 0 0 0 0 0 0 0 0 0 0 0 0 127 0" result="hardAlpha"/>
<feOffset dy="3"/>
<feGaussianBlur stdDeviation="3"/>
<feColorMatrix type="matrix" values="0 0 0 0 0.533333 0 0 0 0 0.533333 0 0 0 0 0.611765 0 0 0 0.12 0"/>
<feBlend mode="normal" in2="BackgroundImageFix" result="effect1_dropShadow_3139_6602"/>
<feBlend mode="normal" in="SourceGraphic" in2="effect1_dropShadow_3139_6602" result="shape"/>
</filter>
</defs>
</svg>
