<svg width="104" height="114" viewBox="0 0 104 114" fill="none" xmlns="http://www.w3.org/2000/svg">
<g filter="url(#filter0_d_3653_26428)">
<circle cx="52" cy="48.5" r="45.5" fill="#FFDE82"/>
</g>
<path d="M84.5 51.0943V50.9803V44.7083C84.5 41.7434 83.0175 39.1206 80.5088 37.6382L58.5 24.2961C54.5088 21.9013 49.4912 21.9013 45.5 24.2961L23.4912 37.4101C20.9825 38.8925 19.5 41.5154 19.5 44.4803V50.9803C19.5 51.0943 19.5 51.0943 19.5 51.2083C19.614 53.9452 20.9825 56.4539 23.3772 57.8224C20.9825 59.3048 19.5 61.9276 19.5 64.7785V71.1645V71.2785C19.5 71.3925 19.5 71.3925 19.5 71.3925C19.614 74.1294 20.9825 76.5241 23.3772 78.0066C20.9825 79.489 19.5 82.1118 19.5 84.9627V91.3487C19.5 91.3487 19.5 91.4627 19.5 91.5767C19.614 94.4276 21.0965 96.9364 23.4912 98.3048L45.5 111.533C47.5526 113.129 49.7193 113.7 52 113.7C54.2807 113.7 56.4474 113.129 58.5 111.875L80.5088 98.761C82.9035 97.2785 84.5 94.7697 84.5 91.8048V85.3048C84.5 82.4539 83.0175 79.8311 80.6228 78.3487C83.0175 76.8662 84.386 74.3575 84.5 71.5066V71.2785V65.0066C84.5 62.1557 83.0175 59.5329 80.6228 58.0504C83.0175 56.4539 84.386 53.9452 84.5 51.0943ZM78.6842 95.7961L56.7895 108.91C53.8246 110.621 50.1754 110.621 47.3246 108.91L25.3158 95.7961C23.9474 94.9978 23.0351 93.5154 22.9211 91.9189C23.1491 92.0329 23.2632 92.1469 23.4912 92.261L45.5 105.375C47.5526 106.515 49.7193 107.2 52 107.2C54.2807 107.2 56.4474 106.629 58.5 105.375L80.5088 92.375C80.7368 92.261 80.8509 92.1469 81.0789 91.9189C80.9649 93.5154 80.1667 94.9978 78.6842 95.7961ZM81.0789 85.3048C81.0789 87.0153 80.1667 88.6118 78.6842 89.4101L56.7895 102.524C53.8246 104.235 50.2895 104.235 47.3246 102.524L25.3158 89.4101C23.8333 88.4978 22.9211 87.0153 22.9211 85.3048C22.9211 83.5943 23.8333 81.9978 25.3158 81.0855L26.6842 80.2873L45.5 91.5767C47.5526 92.7171 49.7193 93.4013 52 93.4013C54.2807 93.4013 56.4474 92.8311 58.5 91.5767L77.3158 80.2873L78.6842 81.0855C80.1667 81.9978 81.0789 83.4803 81.0789 85.3048ZM78.6842 75.4978L56.7895 88.6118C53.8246 90.3224 50.1754 90.3224 47.3246 88.6118L25.3158 75.4978C23.9474 74.6996 23.0351 73.2171 22.9211 71.6206C23.1491 71.7346 23.2632 71.8487 23.4912 72.0768L45.5 85.1908C47.5526 86.3311 49.7193 87.0153 52 87.0153C54.2807 87.0153 56.4474 86.4452 58.5 85.1908L80.5088 71.9627C80.7368 71.8487 80.8509 71.7346 81.0789 71.5066C80.9649 73.2171 80.1667 74.5855 78.6842 75.4978ZM81.0789 64.8925C81.0789 66.6031 80.1667 68.1996 78.6842 68.9978L56.7895 82.2259C53.8246 83.9364 50.2895 83.9364 47.3246 82.2259L25.3158 69.1118C23.8333 68.1996 22.9211 66.7171 22.9211 65.0066C22.9211 63.296 23.8333 61.6996 25.3158 60.9013L26.6842 60.1031L45.5 71.3925C47.5526 72.5329 49.7193 73.2171 52 73.2171C54.2807 73.2171 56.4474 72.6469 58.5 71.3925L77.3158 60.1031L78.6842 60.9013C80.1667 61.5855 81.0789 63.182 81.0789 64.8925ZM78.6842 55.0855L56.7895 68.3136C53.8246 70.0241 50.1754 70.0241 47.3246 68.3136L25.3158 55.0855C23.9474 54.2873 23.0351 52.8048 22.9211 51.2083C23.1491 51.3224 23.2632 51.4364 23.4912 51.5504L45.5 64.6645C47.5526 65.9189 49.7193 66.489 52 66.489C54.2807 66.489 56.4474 65.9189 58.5 64.6645L80.5088 51.6645C80.7368 51.5504 80.8509 51.4364 81.0789 51.3224C80.9649 52.8048 80.1667 54.2873 78.6842 55.0855ZM78.6842 48.6996L56.7895 61.9276C53.8246 63.6382 50.2895 63.6382 47.3246 61.9276L25.3158 48.6996C23.8333 47.7873 22.9211 46.3048 22.9211 44.4803C22.9211 42.6557 23.8333 41.1732 25.3158 40.375L47.3246 27.261C50.2895 25.5504 53.8246 25.5504 56.7895 27.261L78.7982 40.375C80.2807 41.2873 81.193 42.7697 81.193 44.4803C81.193 46.1908 80.1667 47.7873 78.6842 48.6996Z" fill="black"/>
<path d="M78.6845 95.7959L56.7898 108.91C53.8249 110.62 50.1758 110.62 47.3249 108.91L25.3161 95.7959C23.9477 94.9977 23.0354 93.5152 22.9214 91.9187C23.1495 92.0327 23.2635 92.1468 23.4916 92.2608L45.5003 105.375C47.553 106.515 49.7196 107.199 52.0003 107.199C54.281 107.199 56.4477 106.629 58.5003 105.375L80.5091 92.3748C80.7372 92.2608 80.8512 92.1468 81.0793 91.9187C80.9652 93.5152 80.167 94.9977 78.6845 95.7959Z" fill="#FFD600"/>
<path d="M81.0793 85.3053C81.0793 87.0158 80.167 88.6123 78.6845 89.4105L56.7898 102.525C53.8249 104.235 50.2898 104.235 47.3249 102.525L25.3161 89.4105C23.8337 88.4982 22.9214 87.0158 22.9214 85.3053C22.9214 83.5947 23.8337 81.9982 25.3161 81.086L26.6845 80.2877L45.5003 91.5772C47.553 92.7175 49.7196 93.4018 52.0003 93.4018C54.281 93.4018 56.4477 92.8316 58.5003 91.5772L77.3161 80.2877L78.6845 81.086C80.167 81.9982 81.0793 83.4807 81.0793 85.3053Z" fill="white"/>
<path d="M78.6846 75.4976L56.7898 88.6116C53.8249 90.3221 50.1758 90.3221 47.3249 88.6116L25.3161 75.4976C23.9477 74.6993 23.0354 73.2169 22.9214 71.6204C23.1495 71.7344 23.2635 71.8485 23.4916 72.0765L45.5003 85.1906C47.553 86.3309 49.7196 87.0151 52.0003 87.0151C54.281 87.0151 56.4477 86.4449 58.5003 85.1906L80.5091 71.9625C80.7372 71.8485 80.8512 71.7344 81.0793 71.5063C80.9652 73.2169 80.167 74.5853 78.6846 75.4976Z" fill="#FFD600"/>
<path d="M81.0793 64.8924C81.0793 66.6029 80.167 68.1994 78.6845 68.9976L56.7898 82.2257C53.8249 83.9362 50.2898 83.9362 47.3249 82.2257L25.3161 69.1117C23.8337 68.1994 22.9214 66.7169 22.9214 65.0064C22.9214 63.2959 23.8337 61.6994 25.3161 60.9012L26.6845 60.1029L45.5003 71.3924C47.553 72.5327 49.7196 73.2169 52.0003 73.2169C54.281 73.2169 56.4477 72.6468 58.5003 71.3924L77.3161 60.1029L78.6845 60.9012C80.167 61.5854 81.0793 63.1819 81.0793 64.8924Z" fill="#80DC50"/>
<path d="M78.6845 55.0858L56.7898 68.3139C53.8249 70.0244 50.1758 70.0244 47.3249 68.3139L25.3161 55.0858C23.9477 54.2876 23.0354 52.8051 22.9214 51.2086C23.1495 51.3227 23.2635 51.4367 23.4916 51.5507L45.5003 64.6648C47.553 65.9191 49.7196 66.4893 52.0003 66.4893C54.281 66.4893 56.4477 65.9191 58.5003 64.6648L80.5091 51.6648C80.7372 51.5507 80.8512 51.4367 81.0793 51.3227C80.9652 52.8051 80.167 54.2876 78.6845 55.0858Z" fill="#FFD600"/>
<path d="M78.6626 48.6996L56.7678 61.9277C53.8029 63.6382 50.2678 63.6382 47.3029 61.9277L25.2942 48.6996C23.8117 47.7874 22.8994 46.3049 22.8994 44.4803C22.8994 42.6558 23.8117 41.1733 25.2942 40.3751L47.3029 27.261C50.2678 25.5505 53.8029 25.5505 56.7678 27.261L78.7766 40.3751C80.2591 41.2874 81.1713 42.7698 81.1713 44.4803C81.1713 46.1909 80.145 47.7874 78.6626 48.6996Z" fill="white"/>
<defs>
<filter id="filter0_d_3653_26428" x="0.5" y="0" width="103" height="103" filterUnits="userSpaceOnUse" color-interpolation-filters="sRGB">
<feFlood flood-opacity="0" result="BackgroundImageFix"/>
<feColorMatrix in="SourceAlpha" type="matrix" values="0 0 0 0 0 0 0 0 0 0 0 0 0 0 0 0 0 0 127 0" result="hardAlpha"/>
<feOffset dy="3"/>
<feGaussianBlur stdDeviation="3"/>
<feColorMatrix type="matrix" values="0 0 0 0 0.533333 0 0 0 0 0.533333 0 0 0 0 0.611765 0 0 0 0.12 0"/>
<feBlend mode="normal" in2="BackgroundImageFix" result="effect1_dropShadow_3653_26428"/>
<feBlend mode="normal" in="SourceGraphic" in2="effect1_dropShadow_3653_26428" result="shape"/>
</filter>
</defs>
</svg>
