<svg width="104" height="107" viewBox="0 0 104 107" fill="none" xmlns="http://www.w3.org/2000/svg">
<g filter="url(#filter0_d_3646_9075)">
<circle cx="52" cy="48.5" r="45.5" fill="#FFDE82"/>
</g>
<path d="M27.7373 49.942C27.9648 50.0235 28.2128 50.0167 28.4404 49.9352L41.0143 45.1053C41.4083 44.9559 41.6664 44.5754 41.6664 44.1542V42.6937C42.9775 43.3764 43.9421 41.4914 42.5971 40.8698L41.6664 40.5063L41.6698 28.3471C41.6698 28.1026 41.5781 27.858 41.4185 27.6746C41.3098 27.5523 41.174 27.4538 41.0177 27.3961L28.4437 22.5662C28.2094 22.4779 27.9479 22.4779 27.7135 22.5662L15.1395 27.3961C14.7931 27.5286 14.535 27.858 14.4942 28.2316C14.4602 28.3607 14.5044 44.0184 14.4874 44.1541C14.4874 44.5752 14.7455 44.9557 15.1395 45.1051C15.1667 45.1119 27.7135 49.9418 27.7405 49.9452L27.7373 49.942ZM39.6322 43.4478L29.0963 47.4964V33.8764L39.6322 29.8278V39.7489C38.4807 39.6402 38.0799 41.2807 39.1702 41.7121L39.6322 41.8921V43.4478ZM28.0773 24.6073L37.8114 28.3468L28.0773 32.0864L18.3431 28.3468L28.0773 24.6073ZM16.5224 29.8277L27.0582 33.8763V47.4963L16.5224 43.4477V29.8277Z" fill="black"/>
<path d="M45.2908 41.9154C44.0273 41.4603 43.3073 43.2944 44.5504 43.8141L47.2405 44.867C47.75 45.0708 48.3545 44.8194 48.5583 44.2895C48.7621 43.7665 48.504 43.1755 47.9809 42.9717L45.2908 41.9188L45.2908 41.9154Z" fill="black"/>
<path d="M37.2207 38.7637L34.5306 37.7108C34.0075 37.507 33.4166 37.7652 33.2128 38.2882C33.009 38.8113 33.2671 39.4022 33.7902 39.6061C34.0144 39.6672 36.684 40.8084 36.8504 40.7269C37.9509 40.7337 38.2634 39.1645 37.224 38.757L37.2207 38.7637Z" fill="black"/>
<path d="M50.6678 44.0182C49.4043 43.5631 48.6843 45.3971 49.9273 45.9168L52.6174 46.9697C53.1269 47.1735 53.7314 46.9222 53.9353 46.3923C54.1391 45.8693 53.8809 45.2783 53.3578 45.0745L50.6678 44.0216L50.6678 44.0182Z" fill="black"/>
<path d="M56.7026 61.5204L69.2765 66.3502C69.3954 66.391 69.5143 66.4181 69.6433 66.4181C69.769 66.4181 69.8913 66.3876 70.0102 66.3502L82.5841 61.5204C82.9781 61.3709 83.2363 60.9905 83.2363 60.5693V44.7651C83.2397 44.3473 82.9645 43.9533 82.5739 43.8106L70.0104 38.9808C69.7727 38.8925 69.5145 38.8925 69.2802 38.9808L56.7062 43.8106C56.5873 43.8582 56.482 43.9261 56.3869 44.0076C56.1763 44.1978 56.0541 44.4764 56.0541 44.7617V46.1135C54.7906 45.6516 54.0705 47.4891 55.3102 48.0088L56.0541 48.3009V57.2542L54.9604 57.7365C53.9551 58.1713 54.2879 59.6997 55.368 59.6895C55.5921 59.7031 55.8503 59.5706 56.0541 59.4823C56.088 60.2024 55.8367 61.1873 56.7062 61.5168L56.7026 61.5204ZM58.0849 58.5959L58.411 58.4533C59.379 58.0355 59.1174 56.575 58.0849 56.5037V46.253L68.6207 50.3016V63.9216L58.0849 59.873V58.5959ZM81.1947 59.8731L70.6589 63.9217V50.3017L81.1947 46.2531V59.8731ZM69.6398 41.0291L79.3739 44.7687L69.6398 48.5082L59.9057 44.7687L69.6398 41.0291Z" fill="black"/>
<path d="M53.6497 59.4247C53.4256 58.9085 52.821 58.6741 52.3081 58.9017L49.6656 60.0599C48.4428 60.6339 49.2444 62.4375 50.4841 61.9279L53.1266 60.7697C53.6429 60.5456 53.8773 59.941 53.6497 59.4281L53.6497 59.4247Z" fill="black"/>
<path d="M64.2264 54.7922C64.0022 54.2759 63.3976 54.0415 62.8847 54.2691L60.2422 55.4273C59.0195 56.0013 59.821 57.8049 61.0608 57.2954L63.7033 56.1372C64.2196 55.913 64.4539 55.3084 64.2264 54.7955L64.2264 54.7922Z" fill="black"/>
<path d="M47.838 63.0865C49.0539 62.5159 48.2625 60.7123 47.0194 61.2185L45.7967 61.7551C45.7695 61.3713 45.5046 61.0215 45.148 60.8856L32.574 56.0557C32.3397 55.9674 32.0781 55.9674 31.8438 56.0557L19.2698 60.8856C18.9607 61.0011 18.7196 61.2762 18.6448 61.5989C18.6245 61.677 18.6177 61.7551 18.6177 61.8366V77.6408C18.6177 78.062 18.8758 78.4424 19.2698 78.5919L31.8438 83.4217C32.0815 83.51 32.3397 83.51 32.574 83.4217L45.148 78.5919C45.542 78.4424 45.8001 78.062 45.8001 77.6408V76.3909C47.1315 77.1755 48.2116 75.338 46.8564 74.6247L45.8001 74.1696V63.9729L47.8346 63.083L47.838 63.0865ZM32.2068 58.0936L41.941 61.8332L32.2068 65.5728L22.4727 61.8332L32.2068 58.0936ZM20.6519 63.3141L31.1878 67.3627V80.9826L20.6519 76.934V63.3141ZM43.7617 76.9375L33.2259 80.9861V67.3661L43.7617 63.3175V73.4082C42.6986 73.4387 42.4065 74.94 43.4017 75.3646L43.7617 75.5208V76.9406V76.9375Z" fill="black"/>
<path d="M41.5509 72.3517L38.8948 71.2173C37.6449 70.7214 36.8705 72.5283 38.0898 73.0921C38.3479 73.1736 40.9259 74.393 41.1433 74.3114C42.2267 74.3182 42.5596 72.7864 41.544 72.355L41.5509 72.3517Z" fill="black"/>
<path d="M57.4703 79.1724L54.8142 78.0346C53.5643 77.5353 52.7899 79.3456 54.0092 79.9094C54.2674 79.991 56.8453 81.2103 57.0627 81.1288C58.1462 81.1355 58.479 79.6037 57.4635 79.1724L57.4703 79.1724Z" fill="black"/>
<path d="M52.1658 76.8968L49.5097 75.759C48.2631 75.2597 47.4854 77.07 48.7047 77.6338C48.9628 77.7153 51.5408 78.9347 51.7582 78.8531C52.8416 78.8599 53.1745 77.3281 52.1589 76.8967L52.1658 76.8968Z" fill="black"/>
<path d="M89.5131 78.727C89.4723 78.3568 89.2142 78.0239 88.8677 77.8914L76.2938 73.0616C76.0594 72.9733 75.7979 72.9733 75.5635 73.0616L62.9895 77.8914C62.8333 77.9526 62.6974 78.0477 62.5887 78.17C62.4257 78.3534 62.3374 78.5945 62.3374 78.8425V81.254L60.1296 80.3098C58.8797 79.8105 58.1053 81.6208 59.3247 82.1846C59.5285 82.2491 62.188 83.4787 62.3339 83.4005V94.6502C62.3339 95.0714 62.5921 95.4518 62.9861 95.6013L75.56 100.431C75.6721 100.465 75.7842 100.499 75.9031 100.499C76.0355 100.506 76.1646 100.472 76.2903 100.431L88.8643 95.6013C89.2582 95.4518 89.5164 95.0714 89.5164 94.6502C89.5096 94.5347 89.53 78.8356 89.5096 78.7278L89.5131 78.727ZM75.927 75.1029L85.6611 78.8425L75.927 82.5821L66.1928 78.8425L75.927 75.1029ZM64.3721 80.3267L74.9079 84.3753V97.9953L64.3721 93.9467V80.3267ZM87.4819 93.9467L76.946 97.9953V84.3753L87.4819 80.3267V93.9467Z" fill="black"/>
<path d="M16.5225 29.8276L27.0583 33.8762V47.4962L16.5225 43.4476V29.8276Z" fill="#FFD600"/>
<path d="M58.085 58.5961L58.411 58.4534C59.3791 58.0357 59.1175 56.5751 58.085 56.5038V46.2532L68.6208 50.3018V63.9218L58.085 59.8732V58.5961Z" fill="#FFD600"/>
<path d="M20.6509 63.314L31.1867 67.3626V80.9826L20.6509 76.934V63.314Z" fill="#FFD600"/>
<path d="M64.373 80.3267L74.9089 84.3753V97.9953L64.373 93.9466V80.3267Z" fill="#FFD600"/>
<path d="M39.6323 43.4477L29.0965 47.4963V33.8763L39.6323 29.8277V39.7488C38.4809 39.6401 38.0801 41.2806 39.1704 41.712L39.6323 41.892V43.4477ZM28.0774 24.6072L37.8116 28.3468L28.0774 32.0863L18.3433 28.3468L28.0774 24.6072Z" fill="#80DC50"/>
<path d="M81.1943 59.8733L70.6585 63.9219V50.3019L81.1943 46.2533V59.8733ZM69.6394 41.0293L79.3736 44.7689L69.6394 48.5085L59.9053 44.7689L69.6394 41.0293Z" fill="#80DC50"/>
<path d="M32.2058 58.0935L41.94 61.8331L32.2058 65.5727L22.4717 61.8331L32.2058 58.0935ZM43.7607 76.9374L33.2249 80.986V67.366L43.7607 63.3174V73.4081C42.6976 73.4386 42.4055 74.9399 43.4007 75.3645L43.7607 75.5207V76.9405V76.9374Z" fill="#80DC50"/>
<path d="M75.928 75.1028L85.6621 78.8424L75.928 82.5819L66.1938 78.8424L75.928 75.1028ZM87.4829 93.9466L76.9471 97.9952V84.3752L87.4829 80.3266V93.9466Z" fill="#80DC50"/>
<path d="M39.6315 43.4479L29.0957 47.4965V33.8765L39.6315 29.8279V39.749C38.4801 39.6403 38.0793 41.2808 39.1696 41.7121L39.6315 41.8922V43.4479Z" fill="white"/>
<path d="M81.1936 59.8732L70.6577 63.9218V50.3018L81.1936 46.2532V59.8732Z" fill="white"/>
<path d="M43.7604 76.9376L33.2246 80.9862V67.3662L43.7604 63.3176V73.4083C42.6973 73.4388 42.4052 74.9401 43.4004 75.3647L43.7604 75.5209V76.9406V76.9376Z" fill="white"/>
<path d="M87.4831 93.9464L76.9473 97.995V84.375L87.4831 80.3264V93.9464Z" fill="white"/>
<defs>
<filter id="filter0_d_3646_9075" x="0.5" y="0" width="103" height="103" filterUnits="userSpaceOnUse" color-interpolation-filters="sRGB">
<feFlood flood-opacity="0" result="BackgroundImageFix"/>
<feColorMatrix in="SourceAlpha" type="matrix" values="0 0 0 0 0 0 0 0 0 0 0 0 0 0 0 0 0 0 127 0" result="hardAlpha"/>
<feOffset dy="3"/>
<feGaussianBlur stdDeviation="3"/>
<feColorMatrix type="matrix" values="0 0 0 0 0.533333 0 0 0 0 0.533333 0 0 0 0 0.611765 0 0 0 0.12 0"/>
<feBlend mode="normal" in2="BackgroundImageFix" result="effect1_dropShadow_3646_9075"/>
<feBlend mode="normal" in="SourceGraphic" in2="effect1_dropShadow_3646_9075" result="shape"/>
</filter>
</defs>
</svg>
