<svg width="104" height="107" viewBox="0 0 104 107" fill="none" xmlns="http://www.w3.org/2000/svg">
<g filter="url(#filter0_d_3653_28023)">
<circle cx="52" cy="48.5" r="45.5" fill="#FFDE82"/>
</g>
<path d="M85.8216 35.5655L4.13895 67.9569C3.65026 68.1512 3.31085 68.6005 3.25734 69.123C3.20382 69.6455 3.44605 70.1539 3.88545 70.444L19.2897 80.5529L28.7494 99.4723C28.7592 99.4934 28.7761 99.5075 28.7874 99.5272C28.8198 99.585 28.8592 99.6371 28.9001 99.6892C28.9395 99.7413 28.9789 99.7934 29.0254 99.8385C29.0691 99.8821 29.1183 99.9173 29.1676 99.9554C29.2226 99.9976 29.2775 100.037 29.3366 100.071C29.3563 100.082 29.3704 100.098 29.3901 100.107C29.4099 100.117 29.4324 100.113 29.4535 100.122C29.6282 100.198 29.8126 100.25 30.0084 100.25C30.1154 100.25 30.2239 100.237 30.3323 100.213C30.3548 100.207 30.3732 100.193 30.3943 100.186C30.4703 100.164 30.5393 100.129 30.6112 100.093C30.683 100.058 30.7548 100.027 30.8182 99.9821C30.8351 99.9694 30.8548 99.9666 30.8717 99.9525L39.0991 93.5531L48.9517 100.019C49.1841 100.171 49.4531 100.25 49.7249 100.25C49.8319 100.25 49.9376 100.237 50.0432 100.213C50.4192 100.126 50.7417 99.8906 50.9375 99.5582L87.5538 37.5921C87.8608 37.0738 87.8031 36.4175 87.4116 35.9612C87.0201 35.5021 86.3821 35.3416 85.8216 35.5655ZM23.9766 83.6287L28.6001 86.6622V92.8743L23.9766 83.6287ZM31.4167 95.9614V88.5113L36.612 91.9209L31.4167 95.9614ZM49.263 96.8542L39.8061 90.6478L39.8047 90.6464L32.5039 85.8552L76.0028 47.794L74.148 45.673L30.0591 84.2512L22.602 79.3573L53.2344 62.0419L51.8486 59.5915L19.953 77.6194L7.69777 69.5765L83.0359 39.7017L49.263 96.8542Z" fill="black"/>
<path d="M49.263 96.8544L39.8061 90.6479L39.8047 90.6465L32.5039 85.8554L76.0028 47.7941L74.148 45.6732L30.0591 84.2513L22.602 79.3574L53.2344 62.0421L51.8486 59.5916L19.953 77.6195L7.69775 69.5766L83.0359 39.7019L49.263 96.8544Z" fill="white"/>
<path d="M30.0576 84.2514L74.1466 45.6732L53.233 62.0421L22.6006 79.3575L30.0576 84.2514Z" fill="#FFD600"/>
<path d="M23.9766 83.6289L28.6001 86.6624V92.8745L23.9766 83.6289ZM31.4167 95.9616V88.5116L36.612 91.9211L31.4167 95.9616Z" fill="#FFD600"/>
<path d="M10.4674 47.3151L7.77327 46.4927C7.4916 47.4151 7.24092 48.3643 7.02686 49.315L9.77449 49.9332C9.97306 49.0516 10.2054 48.1714 10.4674 47.3151Z" fill="black"/>
<path d="M12.4291 42.2605L9.88708 41.0452C9.47021 41.9183 9.08011 42.8225 8.72803 43.7294L11.3531 44.7476C11.6799 43.9069 12.0418 43.0689 12.4291 42.2605Z" fill="black"/>
<path d="M69.7764 30.587C70.4453 31.1813 71.1058 31.8108 71.7396 32.4614L73.7577 30.4954C73.0761 29.7969 72.3663 29.1181 71.6452 28.4801L69.7764 30.587Z" fill="black"/>
<path d="M18.473 33.2937L16.3958 31.3896C15.7451 32.1009 15.1072 32.8501 14.5044 33.6176L16.7183 35.3583C17.2788 34.6471 17.8689 33.9528 18.473 33.2937Z" fill="black"/>
<path d="M15.1236 37.5498L12.7872 35.9767C12.2422 36.7865 11.7239 37.6216 11.2451 38.4581L13.69 39.8552C14.135 39.0778 14.6166 38.3032 15.1236 37.5498Z" fill="black"/>
<path d="M22.4162 29.573L20.6389 27.3887C19.8869 27.9999 19.1475 28.6477 18.4434 29.311L20.377 31.3601C21.0319 30.7433 21.7177 30.1433 22.4162 29.573Z" fill="black"/>
<path d="M58.213 23.6494L59.1932 21.0088C58.2877 20.6737 57.3525 20.3652 56.4146 20.0977L55.6372 22.8044C56.5075 23.0551 57.3751 23.3382 58.213 23.6494Z" fill="black"/>
<path d="M50.3306 21.6991C51.2122 21.816 52.1135 21.9681 53.0078 22.1526L53.5767 19.3937C52.6163 19.1951 51.6473 19.0317 50.6995 18.9064L50.3306 21.6991Z" fill="black"/>
<path d="M77.2663 34.6289C76.7705 33.9585 76.2537 33.3022 75.7171 32.6628L73.5596 34.4725C74.0581 35.0683 74.5398 35.6781 75.0003 36.3048L77.2663 34.6289Z" fill="black"/>
<path d="M63.1425 25.9055L64.5015 23.4381C63.6551 22.972 62.7777 22.5297 61.8919 22.1241L60.7188 24.6845C61.5412 25.0619 62.3566 25.4717 63.1425 25.9055Z" fill="black"/>
<path d="M67.685 28.8661L69.3933 26.6269C68.6216 26.0382 67.8188 25.472 67.0076 24.9425L65.4697 27.3029C66.2232 27.7929 66.9682 28.3197 67.685 28.8661Z" fill="black"/>
<path d="M24.5813 27.9438C25.3221 27.427 26.0896 26.9326 26.8599 26.4763L25.4235 24.0526C24.594 24.5441 23.7673 25.0765 22.9688 25.6327L24.5813 27.9438Z" fill="black"/>
<path d="M41.959 18.7234C40.9929 18.8107 40.0183 18.9332 39.0635 19.091L39.5198 21.8696C40.407 21.7231 41.3112 21.609 42.2097 21.5302L41.959 18.7234Z" fill="black"/>
<path d="M36.8631 22.4087L36.2012 19.6724C35.259 19.8991 34.3141 20.1653 33.3916 20.4624L34.2535 23.1439C35.1098 22.8664 35.9885 22.62 36.8631 22.4087Z" fill="black"/>
<path d="M44.916 21.388L45.5004 21.3838C46.2144 21.3838 46.9242 21.4035 47.6298 21.4443L47.7932 18.6333C47.0341 18.5897 46.2694 18.5671 45.5004 18.5671L44.8779 18.5714L44.916 21.388Z" fill="black"/>
<path d="M31.711 24.0667L30.6477 21.4585C29.7549 21.8218 28.8606 22.226 27.9902 22.6584L29.2422 25.1807C30.0492 24.7807 30.8815 24.4061 31.711 24.0667Z" fill="black"/>
<path d="M70.627 84.637L72.5592 86.6861C73.2619 86.0242 73.9506 85.3243 74.6083 84.6046L72.5282 82.7034C71.9184 83.3737 71.279 84.023 70.627 84.637Z" fill="black"/>
<path d="M74.2832 80.6347L76.4929 82.381C77.09 81.6233 77.6702 80.829 78.2152 80.0193L75.8802 78.4462C75.3746 79.1982 74.8367 79.9334 74.2832 80.6347Z" fill="black"/>
<path d="M81.2246 66.071L83.9722 66.6892C84.1849 65.7442 84.3638 64.7796 84.506 63.8177L81.7189 63.405C81.588 64.2993 81.4204 65.195 81.2246 66.071Z" fill="black"/>
<path d="M82.0181 60.7097L84.8277 60.9153C84.8981 59.9549 84.9333 58.9733 84.9333 58.0001H82.1166C82.1166 58.9057 82.0843 59.8169 82.0181 60.7097Z" fill="black"/>
<path d="M79.644 71.2538L82.2692 72.272C82.6212 71.3665 82.9423 70.4384 83.224 69.5131L80.5299 68.6907C80.2679 69.5497 79.9708 70.4116 79.644 71.2538Z" fill="black"/>
<path d="M77.3145 76.1448L79.7593 77.5418C80.2424 76.694 80.6986 75.8237 81.1127 74.9548L78.5693 73.7422C78.1848 74.5506 77.7637 75.3589 77.3145 76.1448Z" fill="black"/>
<path d="M86.3409 21.3837C84.0115 21.3837 82.1159 19.4881 82.1159 17.1587C82.1159 16.3799 81.485 15.7504 80.7076 15.7504C79.9302 15.7504 79.2993 16.3799 79.2993 17.1587C79.2993 19.4881 77.4037 21.3837 75.0743 21.3837C74.2969 21.3837 73.666 22.0132 73.666 22.792C73.666 23.5708 74.2969 24.2003 75.0743 24.2003C77.4037 24.2003 79.2993 26.0959 79.2993 28.4253C79.2993 29.2041 79.9302 29.8336 80.7076 29.8336C81.485 29.8336 82.1159 29.2041 82.1159 28.4253C82.1159 26.0959 84.0115 24.2003 86.3409 24.2003C87.1183 24.2003 87.7492 23.5708 87.7492 22.792C87.7492 22.0132 87.1183 21.3837 86.3409 21.3837ZM80.7076 24.2045C80.3063 23.6694 79.8288 23.1933 79.2951 22.792C79.8288 22.3906 80.3063 21.9146 80.7076 21.3794C81.109 21.9146 81.5864 22.3906 82.1202 22.792C81.5864 23.1933 81.109 23.6694 80.7076 24.2045Z" fill="black"/>
<path d="M80.706 24.2045C80.3046 23.6693 79.8272 23.1933 79.2935 22.7919C79.8272 22.3906 80.3046 21.9146 80.706 21.3794C81.1074 21.9146 81.5848 22.3906 82.1185 22.7919C81.5848 23.1933 81.1074 23.6693 80.706 24.2045Z" fill="#80DC50"/>
<path d="M27.1914 45.3251C27.1914 46.1039 27.8223 46.7334 28.5997 46.7334C30.9291 46.7334 32.8247 48.629 32.8247 50.9583C32.8247 51.7371 33.4556 52.3667 34.233 52.3667C35.0104 52.3667 35.6413 51.7371 35.6413 50.9583C35.6413 48.629 37.5369 46.7334 39.8663 46.7334C40.6437 46.7334 41.2746 46.1039 41.2746 45.3251C41.2746 44.5463 40.6437 43.9167 39.8663 43.9167C37.5369 43.9167 35.6413 42.0211 35.6413 39.6918C35.6413 38.913 35.0104 38.2834 34.233 38.2834C33.4556 38.2834 32.8247 38.913 32.8247 39.6918C32.8247 42.0211 30.9291 43.9167 28.5997 43.9167C27.8223 43.9167 27.1914 44.5463 27.1914 45.3251ZM34.233 43.9125C34.6344 44.4477 35.1118 44.9237 35.6456 45.3251C35.1118 45.7264 34.6344 46.2024 34.233 46.7376C33.8316 46.2024 33.3542 45.7264 32.8205 45.3251C33.3542 44.9237 33.8316 44.4477 34.233 43.9125Z" fill="black"/>
<path d="M34.2319 43.9126C34.6333 44.4478 35.1107 44.9238 35.6444 45.3251C35.1107 45.7265 34.6333 46.2025 34.2319 46.7377C33.8305 46.2025 33.3531 45.7265 32.8193 45.3251C33.3531 44.9238 33.8305 44.4478 34.2319 43.9126Z" fill="#80DC50"/>
<defs>
<filter id="filter0_d_3653_28023" x="0.5" y="0" width="103" height="103" filterUnits="userSpaceOnUse" color-interpolation-filters="sRGB">
<feFlood flood-opacity="0" result="BackgroundImageFix"/>
<feColorMatrix in="SourceAlpha" type="matrix" values="0 0 0 0 0 0 0 0 0 0 0 0 0 0 0 0 0 0 127 0" result="hardAlpha"/>
<feOffset dy="3"/>
<feGaussianBlur stdDeviation="3"/>
<feColorMatrix type="matrix" values="0 0 0 0 0.533333 0 0 0 0 0.533333 0 0 0 0 0.611765 0 0 0 0.12 0"/>
<feBlend mode="normal" in2="BackgroundImageFix" result="effect1_dropShadow_3653_28023"/>
<feBlend mode="normal" in="SourceGraphic" in2="effect1_dropShadow_3653_28023" result="shape"/>
</filter>
</defs>
</svg>
