<svg width="104" height="107" viewBox="0 0 104 107" fill="none" xmlns="http://www.w3.org/2000/svg">
<g filter="url(#filter0_d_3646_9066)">
<circle cx="52" cy="48.5" r="45.5" fill="#FFDE82"/>
</g>
<rect x="9.3623" y="71.25" width="85.2762" height="32.5" fill="#80DC50"/>
<path d="M93.5027 68.1464C93.0343 68.1464 84.3855 68.3324 84.0543 68.6636C83.7231 68.9948 83.537 69.444 83.537 69.9124C83.537 70.3808 83.7231 70.83 84.0543 71.1612C84.3855 71.4924 93.0343 71.6785 93.5027 71.6785C93.7369 71.6785 93.9615 71.7715 94.1271 71.9371C94.2927 72.1027 94.3858 72.3274 94.3858 72.5615V102.585C94.3858 102.819 94.2927 103.044 94.1271 103.209C93.9615 103.375 93.7369 103.468 93.5027 103.468H10.4972C10.263 103.468 10.0384 103.375 9.87282 103.209C9.70721 103.044 9.61418 102.819 9.61418 102.585V72.5615C9.61418 72.3274 9.70721 72.1027 9.87282 71.9371C10.0384 71.7715 10.263 71.6785 10.4972 71.6785C10.9656 71.6785 19.6145 71.4924 19.9457 71.1612C20.2769 70.83 20.4629 70.3808 20.4629 69.9124C20.4629 69.444 20.2769 68.9948 19.9457 68.6636C19.6145 68.3324 10.9656 68.1464 10.4972 68.1464C9.32624 68.1464 8.20322 68.6115 7.37521 69.4395C6.5472 70.2675 6.08203 71.3906 6.08203 72.5615V102.585C6.08203 103.756 6.5472 104.879 7.37521 105.707C8.20322 106.535 9.32624 107 10.4972 107H93.5027C94.6737 107 95.7967 106.535 96.6247 105.707C97.4527 104.879 97.9179 103.756 97.9179 102.585V72.5615C97.9179 71.3906 97.4527 70.2675 96.6247 69.4395C95.7967 68.6115 94.6737 68.1464 93.5027 68.1464Z" fill="black"/>
<path d="M18.4446 85.8071C17.9762 85.8071 17.527 85.9932 17.1958 86.3244C16.8646 86.6556 16.6786 87.1048 16.6786 87.5732C16.6786 88.0416 16.8646 88.4908 17.1958 88.822C17.527 89.1532 17.9762 89.3393 18.4446 89.3393H85.5555C86.0239 89.3393 86.4731 89.1532 86.8043 88.822C87.1355 88.4908 87.3215 88.0416 87.3215 87.5732C87.3215 87.1048 87.1355 86.6556 86.8043 86.3244C86.4731 85.9932 86.0239 85.8071 85.5555 85.8071H78.8002C83.4454 80.6293 86.4914 74.2169 87.5702 67.345C88.649 60.4731 87.7144 53.4358 84.8793 47.0837C82.0443 40.7316 77.4301 35.3365 71.5945 31.5506C65.7589 27.7647 58.9517 25.75 51.9956 25.75C45.0396 25.75 38.2324 27.7647 32.3968 31.5506C26.5612 35.3365 21.947 40.7316 19.112 47.0837C16.2769 53.4358 15.3423 60.4731 16.4211 67.345C17.4999 74.2169 20.5459 80.6293 25.191 85.8071H18.4446ZM19.5219 61.7709C19.5199 56.3628 20.8683 51.0399 23.4448 46.2851C26.0213 41.5303 29.7444 37.4941 34.2761 34.5429C38.8079 31.5916 44.0049 29.8187 49.3955 29.385C54.7861 28.9513 60.1996 29.8706 65.1449 32.0594C70.0902 34.2482 74.4107 37.6372 77.7142 41.9189C81.0178 46.2007 83.1998 51.2396 84.0624 56.5783C84.9249 61.9171 84.4407 67.3868 82.6536 72.491C80.8665 77.5952 77.8331 82.1724 73.8287 85.8071H30.1714C26.8203 82.7632 24.142 79.0528 22.3082 74.9137C20.4743 70.7746 19.5253 66.298 19.5219 61.7709Z" fill="black"/>
<path d="M19.5225 61.7709C19.5204 56.3628 20.8688 51.0399 23.4453 46.2851C26.0219 41.5303 29.7449 37.4941 34.2767 34.5429C38.8084 31.5916 44.0054 29.8187 49.396 29.385C54.7866 28.9513 60.2002 29.8706 65.1455 32.0594C70.0908 34.2482 74.4112 37.6372 77.7148 41.9189C81.0183 46.2007 83.2003 51.2396 84.0629 56.5783C84.9255 61.9171 84.4412 67.3868 82.6541 72.491C80.867 77.5952 77.8337 82.1724 73.8293 85.8071H30.1719C26.8208 82.7632 24.1425 79.0528 22.3087 74.9137C20.4748 70.7746 19.5258 66.298 19.5225 61.7709Z" fill="white"/>
<path d="M68.9628 60.8966L53.2448 45.1874C52.9139 44.8585 52.4662 44.6738 51.9997 44.6738C51.5331 44.6738 51.0855 44.8585 50.7546 45.1874L35.0365 60.8966C34.8723 61.0606 34.7421 61.2554 34.6532 61.4698C34.5643 61.6842 34.5186 61.914 34.5186 62.1461C34.5186 62.3782 34.5643 62.608 34.6532 62.8224C34.7421 63.0368 34.8723 63.2316 35.0365 63.3956L50.7546 79.1049C51.0855 79.4338 51.5331 79.6184 51.9997 79.6184C52.4662 79.6184 52.9139 79.4338 53.2448 79.1049L68.9628 63.3956C69.127 63.2316 69.2573 63.0368 69.3462 62.8224C69.435 62.608 69.4808 62.3782 69.4808 62.1461C69.4808 61.914 69.435 61.6842 69.3462 61.4698C69.2573 61.2554 69.127 61.0606 68.9628 60.8966ZM51.9997 75.3608L38.7541 62.1152L51.9997 48.8697L65.2452 62.1152L51.9997 75.3608Z" fill="black"/>
<path d="M51.9995 75.3609L38.7539 62.1153L51.9995 48.8698L65.245 62.1153L51.9995 75.3609Z" fill="#FFD600"/>
<defs>
<filter id="filter0_d_3646_9066" x="0.5" y="0" width="103" height="103" filterUnits="userSpaceOnUse" color-interpolation-filters="sRGB">
<feFlood flood-opacity="0" result="BackgroundImageFix"/>
<feColorMatrix in="SourceAlpha" type="matrix" values="0 0 0 0 0 0 0 0 0 0 0 0 0 0 0 0 0 0 127 0" result="hardAlpha"/>
<feOffset dy="3"/>
<feGaussianBlur stdDeviation="3"/>
<feColorMatrix type="matrix" values="0 0 0 0 0.533333 0 0 0 0 0.533333 0 0 0 0 0.611765 0 0 0 0.12 0"/>
<feBlend mode="normal" in2="BackgroundImageFix" result="effect1_dropShadow_3646_9066"/>
<feBlend mode="normal" in="SourceGraphic" in2="effect1_dropShadow_3646_9066" result="shape"/>
</filter>
</defs>
</svg>
